<?xml version="1.0" encoding="UTF-8" standalone="no"?>
<!-- Created with Inkscape (http://www.inkscape.org/) -->

<svg
   version="1.1"
   id="svg1"
   width="208.93929"
   height="128.49988"
   viewBox="0 0 208.93928 128.49987"
   xmlns="http://www.w3.org/2000/svg"
   xmlns:svg="http://www.w3.org/2000/svg">
  <defs
     id="defs1" />
  <g
     id="g1"
     transform="translate(7.5041801e-6,-4.1445314)">
    <path
       id="path1"
       d="m 77.95372,85.04042 c 0,23.48357 -9.51832,42.52022 -21.2601,42.52022 -11.74179,0 -21.26012,-19.03665 -21.26012,-42.52022 0,-23.48357 9.51833,-42.52022 21.26012,-42.52022 11.74178,0 21.2601,19.03665 21.2601,42.52022 z"
       style="fill:none;stroke:#000000;stroke-width:0.79701;stroke-linecap:butt;stroke-linejoin:miter;stroke-miterlimit:10;stroke-dasharray:none;stroke-opacity:1"
       transform="matrix(1.3333333,0,0,-1.3333333,-46.713333,188.80667)" />
    <path
       id="path2"
       d="M 3.4800938,-3.8672578 2.20275,-4.1719453 c -0.6210937,-0.1523438 -1.0078125,-0.6914063 -1.0078125,-1.265625 0,-0.703125 0.5390625,-1.3007813 1.3125,-1.3007813 1.6640625,0 1.8867188,1.6289063 1.9453125,2.0742188 0.011719,0.058594 0.011719,0.1171875 0.1171875,0.1171875 0.1289063,0 0.1289063,-0.046875 0.1289063,-0.234375 v -2.0039063 c 0,-0.1640625 0,-0.234375 -0.1054688,-0.234375 -0.070312,0 -0.082031,0.011719 -0.1523437,0.1289063 l -0.3515625,0.5625 c -0.2929688,-0.28125 -0.703125,-0.6914063 -1.59375,-0.6914063 -1.1015625,0 -1.9335938,0.8789063 -1.9335938,1.9335938 0,0.8203125 0.5273438,1.546875 1.3007813,1.8164062 0.1054687,0.046875 0.6210937,0.1640625 1.3125,0.328125 0.2695312,0.070312 0.5742187,0.140625 0.84375,0.515625 0.2109375,0.2578125 0.3164062,0.5859375 0.3164062,0.9140625 0,0.70312504 -0.5039062,1.41796879 -1.3359375,1.41796879 -0.2929687,0 -1.0429687,-0.046875 -1.5703125,-0.5390625 C 0.843375,-1.1602266 0.8199375,-1.8047578 0.80821875,-2.1563203 0.7965,-2.2617891 0.71446875,-2.2617891 0.69103125,-2.2617891 c -0.12890625,0 -0.12890625,0.070312 -0.12890625,0.2460938 v 1.99218749 c 0,0.17578125 0,0.24609375 0.10546875,0.24609375 0.0703125,0 0.0820313,-0.0234375 0.15234375,-0.12890625 0,-0.01171875 0.0234375,-0.046875 0.3515625,-0.57421875 0.3164063,0.33984375 0.9492188,0.703125 1.8398438,0.703125 1.1601562,0 1.9570312,-0.984375 1.9570312,-2.07421874 0,-0.9960938 -0.65625,-1.8164063 -1.4882812,-2.015625 z m 0,0"
       style="fill:#000000;fill-opacity:1;fill-rule:nonzero;stroke:none"
       aria-label="S"
       transform="matrix(1.3333333,0,0,1.3333333,25.188,13.504)" />
    <path
       id="path3"
       d="m 191.34096,85.04042 c 0,23.48357 -9.51833,42.52022 -21.2601,42.52022 -11.74179,0 -21.2601,-19.03665 -21.2601,-42.52022 0,-23.48357 9.51831,-42.52022 21.2601,-42.52022 11.74177,0 21.2601,19.03665 21.2601,42.52022 z"
       style="fill:none;stroke:#000000;stroke-width:0.79701;stroke-linecap:butt;stroke-linejoin:miter;stroke-miterlimit:10;stroke-dasharray:none;stroke-opacity:1"
       transform="matrix(1.3333333,0,0,-1.3333333,-46.713333,188.80667)" />
    <path
       id="path4"
       d="M 5.8007734,-6.7735078 H 0.32811719 v 0.3046875 h 0.234375 c 0.77343751,0 0.79687501,0.1171875 0.79687501,0.46875 v 5.22656249 c 0,0.3515625 -0.023437,0.46875 -0.79687501,0.46875 h -0.234375 V -7.03125e-5 C 0.67967969,-0.03522656 1.4531172,-0.03522656 1.8398359,-0.03522656 c 0.4101563,0 1.3125,0 1.6757813,0.0351562475 V -0.30475781 h -0.328125 c -0.9492188,0 -0.9492188,-0.12890625 -0.9492188,-0.48046875 V -3.2344453 h 0.8554688 c 0.9609375,0 1.0546875,0.3164062 1.0546875,1.1601562 H 4.4062422 V -4.7110078 H 4.1484297 c 0,0.8320312 -0.09375,1.1601562 -1.0546875,1.1601562 H 2.2382734 v -2.5195312 c 0,-0.328125 0.023437,-0.3984375 0.4921875,-0.3984375 h 1.1953125 c 1.4882813,0 1.7460938,0.5625 1.8984375,1.9335937 h 0.2578125 z m 0,0"
       style="fill:#000000;fill-opacity:1;fill-rule:nonzero;stroke:none"
       aria-label="F"
       transform="matrix(1.3333333,0,0,1.3333333,175.72267,13.504)" />
    <path
       id="path5"
       d="m 61.38992,99.21382 c 0,2.59374 -2.10258,4.69632 -4.6963,4.69632 -2.59374,0 -4.69632,-2.10258 -4.69632,-4.69632 0,-2.59373 2.10258,-4.69632 4.69632,-4.69632 2.59372,0 4.6963,2.10259 4.6963,4.69632 z"
       style="fill:#000000;fill-opacity:1;fill-rule:nonzero;stroke:none"
       transform="matrix(1.3333333,0,0,-1.3333333,-46.713333,188.80667)" />
    <path
       id="path6"
       d="m 2.8586953,-2.3451641 c 0.2929688,-0.375 0.6796875,-0.8671875 0.9140625,-1.125 0.3164063,-0.3515625 0.7148438,-0.5039062 1.1835938,-0.515625 v -0.3046875 c -0.2578125,0.011719 -0.5507813,0.023437 -0.8085938,0.023437 -0.3046875,0 -0.8320312,-0.023437 -0.9609375,-0.023437 v 0.3046875 c 0.2109375,0.023437 0.2929688,0.1523438 0.2929688,0.3046875 0,0.1640625 -0.1054688,0.2929688 -0.1523438,0.3515625 L 2.7063516,-2.5561016 1.9329141,-3.5521953 c -0.09375,-0.1054688 -0.09375,-0.1289063 -0.09375,-0.1875 0,-0.1523438 0.1523437,-0.234375 0.3515625,-0.2460938 v -0.3046875 c -0.2578125,0 -0.9140625,0.023437 -1.078125,0.023437 -0.21093754,0 -0.67968754,-0.011719 -0.94921879,-0.023437 v 0.3046875 c 0.703125,0 0.71484375,0.011719 1.18359379,0.609375 l 0.984375,1.2773438 -0.9375,1.19531249 c -0.48046879,0.57421875 -1.06640629,0.59765625 -1.27734379,0.59765625 v 0.3046875 c 0.2578125,-0.0234375 0.57421875,-0.03515625 0.83203125,-0.03515625 0.28125004,0 0.70312504,0.0234375 0.94921874,0.03515625 v -0.3046875 c -0.2226562,-0.0351563 -0.2929687,-0.1640625 -0.2929687,-0.31640625 0,-0.2109375 0.2929687,-0.53906249 0.890625,-1.26562499 l 0.7617187,0.99609374 c 0.082031,0.1171875 0.2109375,0.26953125 0.2109375,0.328125 0,0.09375 -0.09375,0.24609375 -0.3632812,0.2578125 v 0.3046875 c 0.3046875,-0.01171875 0.8554687,-0.03515625 1.078125,-0.03515625 0.2695312,0 0.65625,0.01171875 0.9609375,0.03515625 v -0.3046875 c -0.5390625,0 -0.7265625,-0.0234375 -0.9492188,-0.31640625 z m 0,0"
       style="fill:#000000;fill-opacity:1;fill-rule:nonzero;stroke:none"
       aria-label="x"
       transform="matrix(1.3333333,0,0,1.3333333,25.372,45.302667)" />
  </g>
</svg>
