<?xml version="1.0" encoding="UTF-8" standalone="no"?>
<!-- Created with Inkscape (http://www.inkscape.org/) -->

<svg
   version="1.1"
   id="svg1"
   width="302.61835"
   height="227.02684"
   viewBox="0 0 302.61835 227.02684"
   xmlns="http://www.w3.org/2000/svg"
   xmlns:svg="http://www.w3.org/2000/svg">
  <defs
     id="defs1" />
  <g
     id="g1"
     transform="translate(-5.000015e-4,-0.00998567)">
    <path
       id="path1"
       d="M 0,0 H 226.77448 M 0,28.3468 H 226.77448 M 0,56.69362 H 226.77448 M 0,85.04042 H 226.77448 M 0,113.38724 H 226.77448 M 0,141.73404 H 226.77448 M 0,170.07089 H 226.77448 M 0,0 V 170.08086 M 28.3468,0 V 170.08086 M 56.69362,0 V 170.08086 M 85.04042,0 V 170.08086 M 113.38724,0 V 170.08086 M 141.73404,0 V 170.08086 M 170.08086,0 V 170.08086 M 198.42766,0 V 170.08086 M 226.76451,0 v 170.08086"
       style="fill:none;stroke:#808080;stroke-width:0.19925;stroke-linecap:butt;stroke-linejoin:miter;stroke-miterlimit:10;stroke-dasharray:none;stroke-opacity:1"
       transform="matrix(1.3333333,0,0,-1.3333333,0.13333333,226.904)" />
    <path
       id="path2"
       d="m 77.95372,85.04042 c 0,23.48357 -9.51832,42.52022 -21.2601,42.52022 -11.74179,0 -21.26012,-19.03665 -21.26012,-42.52022 0,-23.48357 9.51833,-42.52022 21.26012,-42.52022 11.74178,0 21.2601,19.03665 21.2601,42.52022 z"
       style="fill:none;stroke:#000000;stroke-width:0.79701;stroke-linecap:butt;stroke-linejoin:miter;stroke-miterlimit:10;stroke-dasharray:none;stroke-opacity:1"
       transform="matrix(1.3333333,0,0,-1.3333333,0.13333333,226.904)" />
    <path
       id="path3"
       d="M 3.4818359,-3.8670156 2.2044922,-4.1717031 c -0.6210938,-0.1523438 -1.0078125,-0.6914063 -1.0078125,-1.265625 0,-0.703125 0.5390625,-1.3007813 1.3125,-1.3007813 1.6640625,0 1.8867187,1.6289063 1.9453125,2.0742188 0.011719,0.058594 0.011719,0.1171875 0.1171875,0.1171875 0.1289062,0 0.1289062,-0.046875 0.1289062,-0.234375 v -2.0039063 c 0,-0.1640625 0,-0.234375 -0.1054687,-0.234375 -0.070312,0 -0.082031,0.011719 -0.1523438,0.1289063 l -0.3515625,0.5625 c -0.2929687,-0.28125 -0.703125,-0.6914063 -1.59375,-0.6914063 -1.1015625,0 -1.93359371,0.8789063 -1.93359371,1.9335938 0,0.8203125 0.52734371,1.546875 1.30078121,1.8164062 0.1054688,0.046875 0.6210938,0.1640625 1.3125,0.328125 0.2695313,0.070312 0.5742188,0.140625 0.84375,0.515625 0.2109375,0.2578125 0.3164063,0.5859375 0.3164063,0.9140625 0,0.70312502 -0.5039063,1.41796877 -1.3359375,1.41796877 -0.2929688,0 -1.0429688,-0.046875 -1.5703125,-0.5390625 C 0.84511719,-1.1599844 0.82167969,-1.8045156 0.80996094,-2.1560781 c -0.0117188,-0.1054688 -0.09375,-0.1054688 -0.1171875,-0.1054688 -0.12890625,0 -0.12890625,0.070312 -0.12890625,0.2460938 v 1.99218747 c 0,0.17578125 0,0.24609375 0.10546875,0.24609375 0.0703125,0 0.0820313,-0.0234375 0.15234375,-0.12890625 0,-0.01171875 0.0234375,-0.046875 0.35156251,-0.57421875 0.3164062,0.33984375 0.9492187,0.703125 1.8398437,0.703125 1.1601563,0 1.9570313,-0.984375 1.9570313,-2.07421872 0,-0.9960938 -0.65625,-1.8164063 -1.4882813,-2.015625 z m 0,0"
       style="fill:#000000;fill-opacity:1;fill-rule:nonzero;stroke:none"
       aria-label="S"
       transform="matrix(1.3333333,0,0,1.3333333,72.033333,51.601333)" />
    <path
       id="path4"
       d="m 191.34096,85.04042 c 0,23.48357 -9.51833,42.52022 -21.2601,42.52022 -11.74179,0 -21.2601,-19.03665 -21.2601,-42.52022 0,-23.48357 9.51831,-42.52022 21.2601,-42.52022 11.74177,0 21.2601,19.03665 21.2601,42.52022 z"
       style="fill:none;stroke:#000000;stroke-width:0.79701;stroke-linecap:butt;stroke-linejoin:miter;stroke-miterlimit:10;stroke-dasharray:none;stroke-opacity:1"
       transform="matrix(1.3333333,0,0,-1.3333333,0.13333333,226.904)" />
    <path
       id="path5"
       d="M 5.8015156,-6.7732656 H 0.32885937 v 0.3046875 h 0.234375 c 0.77343753,0 0.79687503,0.1171875 0.79687503,0.46875 v 5.22656247 c 0,0.3515625 -0.023437,0.46875 -0.79687503,0.46875 h -0.234375 V 1.71875e-4 C 0.68042187,-0.03498438 1.4538594,-0.03498438 1.8405781,-0.03498438 c 0.4101563,0 1.3125,0 1.6757813,0.035156255 V -0.30451563 h -0.328125 c -0.9492188,0 -0.9492188,-0.12890625 -0.9492188,-0.48046875 V -3.2342031 h 0.8554688 c 0.9609375,0 1.0546875,0.3164062 1.0546875,1.1601562 H 4.4069844 V -4.7107656 H 4.1491719 c 0,0.8320312 -0.09375,1.1601562 -1.0546875,1.1601562 H 2.2390156 v -2.5195312 c 0,-0.328125 0.023437,-0.3984375 0.4921875,-0.3984375 h 1.1953125 c 1.4882813,0 1.7460938,0.5625 1.8984375,1.9335937 h 0.2578125 z m 0,0"
       style="fill:#000000;fill-opacity:1;fill-rule:nonzero;stroke:none"
       aria-label="F"
       transform="matrix(1.3333333,0,0,1.3333333,222.56933,51.601333)" />
    <path
       id="path6"
       d="m 61.38992,99.21382 c 0,2.59374 -2.10258,4.69632 -4.6963,4.69632 -2.59374,0 -4.69632,-2.10258 -4.69632,-4.69632 0,-2.59373 2.10258,-4.69632 4.69632,-4.69632 2.59372,0 4.6963,2.10259 4.6963,4.69632 z"
       style="fill:#000000;fill-opacity:1;fill-rule:nonzero;stroke:none"
       transform="matrix(1.3333333,0,0,-1.3333333,0.13333333,226.904)" />
    <g
       id="g6"
       aria-label="x1"
       transform="matrix(1.3333333,0,0,1.3333333,68.606667,83.4)">
      <path
         id="path7"
         d="m 3.3272266,-3.0128906 c 0.058594,-0.2578125 0.2929687,-1.171875 0.984375,-1.171875 0.046875,0 0.2929687,0 0.5039062,0.1289062 -0.28125,0.046875 -0.4804687,0.3046875 -0.4804687,0.5390625 0,0.1640625 0.1054687,0.3515625 0.375,0.3515625 0.2226562,0 0.5390625,-0.1875 0.5390625,-0.5859375 0,-0.515625 -0.5859375,-0.65625 -0.9257813,-0.65625 -0.5742187,0 -0.9257812,0.5273438 -1.0429687,0.7617188 -0.2578125,-0.65625 -0.7851563,-0.7617188 -1.078125,-0.7617188 -1.0429688,0 -1.60546879,1.2890625 -1.60546879,1.5351563 0,0.1054687 0.10546875,0.1054687 0.1171875,0.1054687 0.0820313,0 0.1171875,-0.023437 0.12890625,-0.1171875 0.33984374,-1.0546875 0.99609374,-1.3007812 1.33593754,-1.3007812 0.1875,0 0.5390625,0.09375 0.5390625,0.6679687 0,0.3046875 -0.1640625,0.9726563 -0.5390625,2.3671875 -0.1523438,0.62109377 -0.5039063,1.04296877 -0.9492188,1.04296877 -0.058594,0 -0.28124999,0 -0.49218749,-0.12890625 0.24609375,-0.0585938 0.46874999,-0.26953125 0.46874999,-0.5390625 0,-0.26953122 -0.22265624,-0.35156252 -0.37499999,-0.35156252 -0.29296875,0 -0.5390625,0.25781252 -0.5390625,0.57421877 0,0.45703125 0.4921875,0.65625 0.93749999,0.65625 0.65625,0 1.0078125,-0.69140625 1.0429688,-0.75 0.1171875,0.36328125 0.4804687,0.75 1.078125,0.75 1.0195312,0 1.59375,-1.27734377 1.59375,-1.53515627 0,-0.09375 -0.09375,-0.09375 -0.1289063,-0.09375 -0.082031,0 -0.1054687,0.035156 -0.1289062,0.1054688 -0.328125,1.06640622 -0.9960938,1.31249997 -1.3242188,1.31249997 -0.3867187,0 -0.5390625,-0.328125 -0.5390625,-0.65625 0,-0.22265625 0.058594,-0.44531247 0.1640625,-0.87890627 z m 0,0"
         style="fill:#000000;fill-opacity:1;fill-rule:nonzero;stroke:none" />
      <path
         id="path8"
         d="m 8.6241016,-6.3761719 c 0,-0.234375 0,-0.2578125 -0.234375,-0.2578125 -0.609375,0.6328125 -1.4882813,0.6328125 -1.8046875,0.6328125 v 0.3164063 c 0.1992187,0 0.7851562,0 1.3007812,-0.2578125 v 5.15624997 c 0,0.3515625 -0.035156,0.48046875 -0.9257812,0.48046875 H 6.6436328 v 0.3046875 c 0.3515625,-0.03515625 1.2070313,-0.03515625 1.6054688,-0.03515625 0.3984375,0 1.265625,0 1.6171875,0.03515625 v -0.3046875 H 9.5498828 c -0.9023437,0 -0.9257812,-0.1171875 -0.9257812,-0.48046875 z m 0,0"
         style="fill:#000000;fill-opacity:1;fill-rule:nonzero;stroke:none" />
    </g>
    <path
       id="path9"
       d="m 174.77716,99.21382 c 0,2.59374 -2.10258,4.69632 -4.6963,4.69632 -2.59374,0 -4.69632,-2.10258 -4.69632,-4.69632 0,-2.59373 2.10258,-4.69632 4.69632,-4.69632 2.59372,0 4.6963,2.10259 4.6963,4.69632 z"
       style="fill:#000000;fill-opacity:1;fill-rule:nonzero;stroke:none"
       transform="matrix(1.3333333,0,0,-1.3333333,0.13333333,226.904)" />
    <g
       id="g9"
       aria-label="y1"
       transform="matrix(1.3333333,0,0,1.3333333,220.08933,80.817333)">
      <path
         id="path10"
         d="m 4.8402266,-3.7975703 c 0.046875,-0.140625 0.046875,-0.1523438 0.046875,-0.2226563 0,-0.1875 -0.140625,-0.2695312 -0.2929688,-0.2695312 -0.1054687,0 -0.2578125,0.058594 -0.3515625,0.1992187 -0.023437,0.058594 -0.09375,0.3632813 -0.140625,0.5390625 -0.070312,0.2578125 -0.140625,0.5273438 -0.1992187,0.796875 l -0.4453125,1.79296879 c -0.035156,0.15234375 -0.46875,0.85546875 -1.125,0.85546875 -0.5039063,0 -0.6210938,-0.4453125 -0.6210938,-0.80859375 0,-0.45703129 0.1757813,-1.07812499 0.515625,-1.95703129 0.1523438,-0.4101562 0.1992188,-0.515625 0.1992188,-0.7148437 0,-0.4453125 -0.328125,-0.8203125 -0.8203125,-0.8203125 -0.94921879,0 -1.31250004,1.453125 -1.31250004,1.5351562 0,0.1054688 0.09375,0.1054688 0.1171875,0.1054688 0.09375,0 0.10546875,-0.023437 0.15234375,-0.1875 0.26953125,-0.9375 0.66796879,-1.2304688 1.00781249,-1.2304688 0.082031,0 0.2578125,0 0.2578125,0.3164063 0,0.2460937 -0.1054687,0.515625 -0.1757812,0.703125 -0.3984375,1.0546875 -0.5742188,1.6171875 -0.5742188,2.0859375 0,0.89062499 0.6210938,1.18359374 1.21875,1.18359374 0.3867188,0 0.7265625,-0.1640625 0.9960938,-0.4453125 -0.1289063,0.515625 -0.2460938,1.0078125 -0.6445313,1.53515626 -0.2578125,0.3398437 -0.6328125,0.6328125 -1.0898437,0.6328125 -0.140625,0 -0.59765629,-0.035156 -0.76171879,-0.421875 0.1640625,0 0.29296879,0 0.43359379,-0.1171875 0.09375,-0.09375 0.1992187,-0.2226563 0.1992187,-0.41015626 0,-0.31640625 -0.2695312,-0.3515625 -0.375,-0.3515625 -0.22265624,0 -0.55078124,0.1640625 -0.55078124,0.64453126 0,0.5039062 0.43359375,0.8671875 1.05468754,0.8671875 1.0195312,0 2.0507812,-0.9023438 2.3320312,-2.02734376 z m 0,0"
         style="fill:#000000;fill-opacity:1;fill-rule:nonzero;stroke:none" />
      <path
         id="path11"
         d="m 8.1742109,-6.3756953 c 0,-0.234375 0,-0.2578125 -0.234375,-0.2578125 -0.609375,0.6328125 -1.4882812,0.6328125 -1.8046875,0.6328125 v 0.3164062 c 0.1992188,0 0.7851563,0 1.3007813,-0.2578125 v 5.15625004 c 0,0.3515625 -0.035156,0.48046875 -0.9257813,0.48046875 H 6.1937422 V -6.953125e-4 C 6.5453047,-0.03585156 7.4007734,-0.03585156 7.7992109,-0.03585156 c 0.3984375,0 1.265625,0 1.6171875,0.0351562475 V -0.30538281 H 9.0999922 c -0.9023438,0 -0.9257813,-0.1171875 -0.9257813,-0.48046875 z m 0,0"
         style="fill:#000000;fill-opacity:1;fill-rule:nonzero;stroke:none" />
    </g>
    <path
       id="path12"
       d="m 60.93323,101.66151 c 35.4301,20.45554 69.4779,20.45554 104.908,0"
       style="fill:none;stroke:#000000;stroke-width:0.3985;stroke-linecap:butt;stroke-linejoin:miter;stroke-miterlimit:10;stroke-dasharray:none;stroke-opacity:1"
       transform="matrix(1.3333333,0,0,-1.3333333,0.13333333,226.904)" />
    <path
       id="path13"
       d="m 3.6569922,-3.985625 h 0.8554687 c 0.1992188,0 0.3046875,0 0.3046875,-0.1992187 0,-0.1054688 -0.1054687,-0.1054688 -0.2695312,-0.1054688 H 3.7155859 L 3.9265234,-5.4270312 C 3.9616797,-5.6379687 4.1023047,-6.3410937 4.1608984,-6.47 c 0.09375,-0.1875 0.2578125,-0.3398437 0.46875,-0.3398437 0.046875,0 0.3046875,0 0.4921875,0.1875 -0.4335937,0.035156 -0.5390625,0.3867187 -0.5390625,0.5390625 0,0.2226562 0.1757813,0.3398437 0.3632813,0.3398437 0.2695312,0 0.5507812,-0.2109375 0.5507812,-0.5976562 0,-0.4570313 -0.4570312,-0.6796875 -0.8671875,-0.6796875 -0.3398437,0 -0.9609375,0.1757812 -1.265625,1.1601562 -0.058594,0.2109375 -0.082031,0.3164063 -0.328125,1.5703125 H 2.3562109 c -0.1992187,0 -0.3046875,0 -0.3046875,0.1875 0,0.1171875 0.09375,0.1171875 0.28125,0.1171875 h 0.65625 l -0.75,3.9375 c -0.1757812,0.9609375 -0.3398437,1.875 -0.8671875,1.875 -0.035156,0 -0.28125,0 -0.46874996,-0.1875 C 1.3601172,1.6159375 1.4421484,1.2526563 1.4421484,1.1003125 c 0,-0.22265625 -0.1757812,-0.33984375 -0.3632812,-0.33984375 -0.25781251,0 -0.55078126,0.2109375 -0.55078126,0.59765625 0,0.4453125 0.43359375,0.6796875 0.84374996,0.6796875 0.5507813,0 0.9492188,-0.5859375 1.125,-0.9609375 0.328125,-0.6328125 0.5507813,-1.83984375 0.5625,-1.91015625 z m 0,0"
       style="fill:#000000;fill-opacity:1;fill-rule:nonzero;stroke:none"
       aria-label="f"
       transform="matrix(1.3333333,0,0,1.3333333,147.34667,63.626667)" />
    <path
       id="path14"
       d="m 61.38992,70.867 c 0,2.59374 -2.10258,4.69632 -4.6963,4.69632 -2.59374,0 -4.69632,-2.10258 -4.69632,-4.69632 0,-2.59372 2.10258,-4.6963 4.69632,-4.6963 2.59372,0 4.6963,2.10258 4.6963,4.6963 z"
       style="fill:#000000;fill-opacity:1;fill-rule:nonzero;stroke:none"
       transform="matrix(1.3333333,0,0,-1.3333333,0.13333333,226.904)" />
    <path
       id="path15"
       d="m 3.3293906,-3.0122344 c 0.058594,-0.2578125 0.2929688,-1.171875 0.984375,-1.171875 0.046875,0 0.2929688,0 0.5039063,0.1289063 -0.28125,0.046875 -0.4804688,0.3046875 -0.4804688,0.5390625 0,0.1640625 0.1054688,0.3515625 0.375,0.3515625 0.2226563,0 0.5390625,-0.1875 0.5390625,-0.5859375 0,-0.515625 -0.5859375,-0.65625 -0.9257812,-0.65625 -0.5742188,0 -0.9257813,0.5273437 -1.0429688,0.7617187 -0.2578125,-0.65625 -0.7851562,-0.7617187 -1.078125,-0.7617187 -1.0429687,0 -1.60546872,1.2890625 -1.60546872,1.5351562 0,0.1054688 0.10546875,0.1054688 0.1171875,0.1054688 0.0820313,0 0.1171875,-0.023437 0.12890625,-0.1171875 0.33984377,-1.0546875 0.99609377,-1.3007813 1.33593747,-1.3007813 0.1875,0 0.5390625,0.09375 0.5390625,0.6679688 0,0.3046875 -0.1640625,0.9726562 -0.5390625,2.3671875 -0.1523437,0.62109373 -0.5039062,1.04296873 -0.9492187,1.04296873 -0.058594,0 -0.28125002,0 -0.49218752,-0.12890625 0.24609375,-0.0585938 0.46875002,-0.26953125 0.46875002,-0.5390625 0,-0.26953128 -0.22265627,-0.35156248 -0.37500002,-0.35156248 -0.29296875,0 -0.5390625,0.25781248 -0.5390625,0.57421873 0,0.45703125 0.4921875,0.65625 0.93750002,0.65625 0.65625,0 1.0078125,-0.69140625 1.0429687,-0.75 0.1171875,0.36328125 0.4804688,0.75 1.078125,0.75 1.0195313,0 1.59375,-1.27734373 1.59375,-1.53515623 0,-0.09375 -0.09375,-0.09375 -0.1289062,-0.09375 -0.082031,0 -0.1054688,0.035156 -0.1289063,0.1054687 -0.328125,1.06640628 -0.9960937,1.31250003 -1.3242187,1.31250003 -0.3867188,0 -0.5390625,-0.328125 -0.5390625,-0.65625 0,-0.22265625 0.058594,-0.44531253 0.1640625,-0.87890623 z m 0,0"
       style="fill:#000000;fill-opacity:1;fill-rule:nonzero;stroke:none"
       aria-label="x"
       transform="matrix(1.3333333,0,0,1.3333333,71.928,121.196)" />
    <path
       id="path16"
       d="m 174.77716,99.21382 c 0,2.59374 -2.10258,4.69632 -4.6963,4.69632 -2.59374,0 -4.69632,-2.10258 -4.69632,-4.69632 0,-2.59373 2.10258,-4.69632 4.69632,-4.69632 2.59372,0 4.6963,2.10259 4.6963,4.69632 z"
       style="fill:#000000;fill-opacity:1;fill-rule:nonzero;stroke:none"
       transform="matrix(1.3333333,0,0,-1.3333333,0.13333333,226.904)" />
    <path
       id="path17"
       d="m 4.8404609,-3.7975703 c 0.046875,-0.140625 0.046875,-0.1523438 0.046875,-0.2226563 0,-0.1875 -0.140625,-0.2695312 -0.2929687,-0.2695312 -0.1054688,0 -0.2578125,0.058594 -0.3515625,0.1992187 -0.023437,0.058594 -0.09375,0.3632813 -0.140625,0.5390625 -0.070312,0.2578125 -0.140625,0.5273438 -0.1992188,0.796875 l -0.4453125,1.79296879 c -0.035156,0.15234375 -0.46875,0.85546875 -1.125,0.85546875 -0.5039062,0 -0.6210937,-0.4453125 -0.6210937,-0.80859375 0,-0.45703129 0.1757812,-1.07812499 0.515625,-1.95703129 0.1523437,-0.4101562 0.1992187,-0.515625 0.1992187,-0.7148437 0,-0.4453125 -0.328125,-0.8203125 -0.8203125,-0.8203125 -0.94921871,0 -1.31249996,1.453125 -1.31249996,1.5351562 0,0.1054688 0.09375,0.1054688 0.1171875,0.1054688 0.09375,0 0.10546875,-0.023437 0.15234375,-0.1875 0.26953125,-0.9375 0.66796871,-1.2304688 1.00781251,-1.2304688 0.082031,0 0.2578125,0 0.2578125,0.3164063 0,0.2460937 -0.1054688,0.515625 -0.1757813,0.703125 -0.3984375,1.0546875 -0.5742187,1.6171875 -0.5742187,2.0859375 0,0.89062499 0.6210937,1.18359374 1.21875,1.18359374 0.3867187,0 0.7265625,-0.1640625 0.9960937,-0.4453125 -0.1289062,0.515625 -0.2460937,1.0078125 -0.6445312,1.53515626 -0.2578125,0.3398437 -0.6328125,0.6328125 -1.0898438,0.6328125 -0.140625,0 -0.59765621,-0.035156 -0.76171871,-0.421875 0.1640625,0 0.29296871,0 0.43359371,-0.1171875 0.09375,-0.09375 0.1992188,-0.2226563 0.1992188,-0.41015626 0,-0.31640625 -0.2695313,-0.3515625 -0.375,-0.3515625 -0.22265626,0 -0.55078126,0.1640625 -0.55078126,0.64453126 0,0.5039062 0.43359375,0.8671875 1.05468746,0.8671875 1.0195313,0 2.0507813,-0.9023438 2.3320313,-2.02734376 z m 0,0"
       style="fill:#000000;fill-opacity:1;fill-rule:nonzero;stroke:none"
       aria-label="y"
       transform="matrix(1.3333333,0,0,1.3333333,223.40933,80.817333)" />
    <path
       id="path18"
       d="m 61.40025,69.52069 c 40.69442,-11.64217 74.73154,-3.13093 105.16126,26.2903"
       style="fill:none;stroke:#000000;stroke-width:0.3985;stroke-linecap:butt;stroke-linejoin:miter;stroke-miterlimit:10;stroke-dasharray:none;stroke-opacity:1"
       transform="matrix(1.3333333,0,0,-1.3333333,0.13333333,226.904)" />
    <path
       id="path19"
       d="m 4.6875234,-3.7493203 c 0.011719,-0.070312 0.035156,-0.1171875 0.035156,-0.1875 0,-0.1640625 -0.1171875,-0.2695313 -0.2929688,-0.2695313 -0.09375,0 -0.3632812,0.070312 -0.4101562,0.4335938 -0.1757813,-0.375 -0.5273438,-0.6328125 -0.9257813,-0.6328125 -1.1367187,0 -2.36718746,1.3945312 -2.36718746,2.8359375 0,0.98437499 0.60937496,1.5703124875 1.32421876,1.5703124875 0.5859375,0 1.0546875,-0.4687499975 1.1601562,-0.5742187475 l 0.011719,0.0117188 c -0.2109375,0.87890625 -0.328125,1.2890625 -0.328125,1.3125 -0.046875,0.0820313 -0.3867188,1.07812506 -1.4414063,1.07812506 -0.1875,0 -0.51562496,-0.011719 -0.79687496,-0.1054688 0.3046875,-0.09375 0.41015626,-0.3515625 0.41015626,-0.515625 0,-0.1640625 -0.10546876,-0.35156251 -0.37500001,-0.35156251 -0.22265625,0 -0.5390625,0.17578131 -0.5390625,0.57421881 0,0.4101562 0.36328125,0.609375 1.32421871,0.609375 1.2421875,0 1.9570313,-0.7734375 2.109375,-1.37109381 z m -1.2890625,2.4726562 c -0.058594,0.2578125 -0.2929687,0.51562504 -0.5039062,0.70312504 -0.2109375,0.17578125 -0.5273438,0.3515625 -0.8085938,0.3515625 -0.5039062,0 -0.65625,-0.515625 -0.65625,-0.91406254 0,-0.4804687 0.2929688,-1.6523437 0.5625,-2.15625 0.2695313,-0.4921875 0.703125,-0.890625 1.1132813,-0.890625 0.65625,0 0.796875,0.8085938 0.796875,0.8554688 0,0.046875 -0.011719,0.1054687 -0.023437,0.1523437 z m 0,0"
       style="fill:#000000;fill-opacity:1;fill-rule:nonzero;stroke:none"
       aria-label="g"
       transform="matrix(1.3333333,0,0,1.3333333,153.832,147.628)" />
  </g>
</svg>
