<?xml version="1.0" encoding="UTF-8" standalone="no"?>
<!-- Created with Inkscape (http://www.inkscape.org/) -->

<svg
   version="1.1"
   id="svg1"
   width="133.34776"
   height="241.88843"
   viewBox="0 0 133.34776 241.88843"
   xmlns="http://www.w3.org/2000/svg"
   xmlns:svg="http://www.w3.org/2000/svg">
  <defs
     id="defs1" />
  <g
     id="g1"
     transform="translate(8.0628106e-4,-4.1445311)">
    <path
       id="path1"
       d="m 77.95372,85.04042 c 0,23.48357 -9.51832,42.52022 -21.2601,42.52022 -11.74179,0 -21.26012,-19.03665 -21.26012,-42.52022 0,-23.48357 9.51833,-42.52022 21.26012,-42.52022 11.74178,0 21.2601,19.03665 21.2601,42.52022 z"
       style="fill:none;stroke:#000000;stroke-width:0.79701;stroke-linecap:butt;stroke-linejoin:miter;stroke-miterlimit:10;stroke-dasharray:none;stroke-opacity:1"
       transform="matrix(1.3333333,0,0,-1.3333333,28.877333,188.808)" />
    <path
       id="path2"
       d="M 3.4794766,-3.8682578 2.2021328,-4.1729453 c -0.6210937,-0.1523438 -1.0078125,-0.6914063 -1.0078125,-1.265625 0,-0.703125 0.5390625,-1.3007813 1.3125,-1.3007813 1.6640625,0 1.8867188,1.6289063 1.9453125,2.0742188 0.011719,0.058594 0.011719,0.1171875 0.1171875,0.1171875 0.1289063,0 0.1289063,-0.046875 0.1289063,-0.234375 v -2.0039063 c 0,-0.1640625 0,-0.234375 -0.1054688,-0.234375 -0.070312,0 -0.082031,0.011719 -0.1523437,0.1289063 l -0.3515625,0.5625 c -0.2929688,-0.28125 -0.703125,-0.6914063 -1.59375,-0.6914063 -1.1015625,0 -1.93359379,0.8789063 -1.93359379,1.9335938 0,0.8203125 0.52734379,1.546875 1.30078129,1.8164062 0.1054687,0.046875 0.6210937,0.1640625 1.3125,0.328125 0.2695312,0.070312 0.5742187,0.140625 0.84375,0.515625 0.2109375,0.2578125 0.3164062,0.5859375 0.3164062,0.9140625 0,0.70312504 -0.5039062,1.41796879 -1.3359375,1.41796879 -0.2929687,0 -1.0429687,-0.046875 -1.5703125,-0.5390625 C 0.84275781,-1.1612266 0.81932031,-1.8057578 0.80760156,-2.1573203 c -0.0117188,-0.1054688 -0.09375,-0.1054688 -0.1171875,-0.1054688 -0.12890625,0 -0.12890625,0.070312 -0.12890625,0.2460938 v 1.99218749 c 0,0.17578125 0,0.24609375 0.10546875,0.24609375 0.0703125,0 0.0820313,-0.0234375 0.15234375,-0.12890625 0,-0.01171875 0.0234375,-0.046875 0.35156249,-0.57421875 0.3164063,0.33984375 0.9492188,0.703125 1.8398438,0.703125 1.1601562,0 1.9570312,-0.984375 1.9570312,-2.07421874 0,-0.9960938 -0.65625,-1.8164063 -1.4882812,-2.015625 z m 0,0"
       style="fill:#000000;fill-opacity:1;fill-rule:nonzero;stroke:none"
       aria-label="S"
       transform="matrix(1.3333333,0,0,1.3333333,100.77867,13.505333)" />
    <path
       id="path3"
       d="M 21.2601,0 C 21.2601,23.48355 11.74178,42.52022 0,42.52022 -11.74178,42.52022 -21.2601,23.48355 -21.2601,0 c 0,-23.48355 9.51832,-42.52022 21.2601,-42.52022 11.74178,0 21.2601,19.03667 21.2601,42.52022 z"
       style="fill:none;stroke:#000000;stroke-width:0.79701;stroke-linecap:butt;stroke-linejoin:miter;stroke-miterlimit:10;stroke-dasharray:none;stroke-opacity:1"
       transform="matrix(1.3333333,0,0,-1.3333333,28.877333,188.808)" />
    <path
       id="path4"
       d="M 5.8010078,-6.7734687 H 0.32835156 v 0.3046875 h 0.234375 c 0.77343754,0 0.79687504,0.1171875 0.79687504,0.46875 v 5.22656245 c 0,0.3515625 -0.023437,0.46875 -0.79687504,0.46875 h -0.234375 V -3.125e-5 C 0.67991406,-0.0351875 1.4533516,-0.0351875 1.8400703,-0.0351875 c 0.4101563,0 1.3125,0 1.6757813,0.03515625 v -0.3046875 h -0.328125 c -0.9492188,0 -0.9492188,-0.12890625 -0.9492188,-0.48046875 v -2.4492187 h 0.8554688 c 0.9609375,0 1.0546875,0.3164062 1.0546875,1.1601562 H 4.4064766 V -4.7109687 H 4.1486641 c 0,0.8320312 -0.09375,1.1601562 -1.0546875,1.1601562 H 2.2385078 v -2.5195312 c 0,-0.328125 0.023437,-0.3984375 0.4921875,-0.3984375 h 1.1953125 c 1.4882813,0 1.7460938,0.5625 1.8984375,1.9335937 h 0.2578125 z m 0,0"
       style="fill:#000000;fill-opacity:1;fill-rule:nonzero;stroke:none"
       aria-label="F"
       transform="matrix(1.3333333,0,0,1.3333333,24.542667,126.89067)" />
  </g>
</svg>
