<?xml version="1.0" encoding="UTF-8" standalone="no"?>
<!-- Created with Inkscape (http://www.inkscape.org/) -->

<svg
   version="1.1"
   id="svg1"
   width="230.54716"
   height="132.39714"
   viewBox="0 0 230.54716 132.39714"
   xmlns="http://www.w3.org/2000/svg"
   xmlns:svg="http://www.w3.org/2000/svg">
  <defs
     id="defs1" />
  <g
     id="g1"
     transform="translate(-0.26533333,-4.1445314)">
    <path
       id="path1"
       d="m 53.37305,81.71985 h 6.64113 v 6.64113 h -6.64113 z"
       style="fill:none;stroke:#000000;stroke-width:0.3985;stroke-linecap:butt;stroke-linejoin:miter;stroke-miterlimit:10;stroke-dasharray:none;stroke-opacity:1"
       transform="matrix(1.3333333,0,0,-1.3333333,0.26533333,136.276)" />
    <path
       id="path2"
       d="M 3.4814453,-3.8672578 2.2041016,-4.1719453 c -0.6210938,-0.1523438 -1.0078125,-0.6914063 -1.0078125,-1.265625 0,-0.703125 0.5390625,-1.3007813 1.3125,-1.3007813 1.6640625,0 1.8867187,1.6289063 1.9453125,2.0742188 0.011719,0.058594 0.011719,0.1171875 0.1171875,0.1171875 0.1289062,0 0.1289062,-0.046875 0.1289062,-0.234375 v -2.0039063 c 0,-0.1640625 0,-0.234375 -0.1054687,-0.234375 -0.070312,0 -0.082031,0.011719 -0.1523438,0.1289063 l -0.3515625,0.5625 c -0.2929687,-0.28125 -0.703125,-0.6914063 -1.59375,-0.6914063 -1.1015625,0 -1.93359374,0.8789063 -1.93359374,1.9335938 0,0.8203125 0.52734374,1.546875 1.30078124,1.8164062 0.1054688,0.046875 0.6210938,0.1640625 1.3125,0.328125 0.2695313,0.070312 0.5742188,0.140625 0.84375,0.515625 0.2109375,0.2578125 0.3164063,0.5859375 0.3164063,0.9140625 0,0.70312504 -0.5039063,1.41796879 -1.3359375,1.41796879 -0.2929688,0 -1.0429688,-0.046875 -1.5703125,-0.5390625 C 0.84472656,-1.1602266 0.82128906,-1.8047578 0.80957031,-2.1563203 c -0.0117188,-0.1054688 -0.09375,-0.1054688 -0.1171875,-0.1054688 -0.12890625,0 -0.12890625,0.070312 -0.12890625,0.2460938 v 1.99218749 c 0,0.17578125 0,0.24609375 0.10546875,0.24609375 0.0703125,0 0.0820313,-0.0234375 0.15234375,-0.12890625 0,-0.01171875 0.0234375,-0.046875 0.35156254,-0.57421875 0.3164062,0.33984375 0.9492187,0.703125 1.8398437,0.703125 1.1601563,0 1.9570313,-0.984375 1.9570313,-2.07421874 0,-0.9960938 -0.65625,-1.8164063 -1.4882813,-2.015625 z m 0,0"
       style="fill:#000000;fill-opacity:1;fill-rule:nonzero;stroke:none"
       aria-label="S"
       transform="matrix(1.3333333,0,0,1.3333333,72.166667,13.504)" />
    <path
       id="path3"
       d="M 5.802125,-6.7735078 H 0.32946875 v 0.3046875 h 0.234375 c 0.77343745,0 0.79687495,0.1171875 0.79687495,0.46875 v 5.22656249 c 0,0.3515625 -0.023437,0.46875 -0.79687495,0.46875 h -0.234375 V -7.03125e-5 C 0.68103125,-0.03522656 1.4544687,-0.03522656 1.8411875,-0.03522656 c 0.4101562,0 1.3125,0 1.6757812,0.0351562475 V -0.30475781 h -0.328125 c -0.9492187,0 -0.9492187,-0.12890625 -0.9492187,-0.48046875 V -3.2344453 h 0.8554687 c 0.9609375,0 1.0546875,0.3164062 1.0546875,1.1601562 H 4.4075937 V -4.7110078 H 4.1497812 c 0,0.8320312 -0.09375,1.1601562 -1.0546875,1.1601562 H 2.239625 v -2.5195312 c 0,-0.328125 0.023437,-0.3984375 0.4921875,-0.3984375 H 3.927125 c 1.4882812,0 1.7460937,0.5625 1.8984375,1.9335937 H 6.083375 Z m 0,0"
       style="fill:#000000;fill-opacity:1;fill-rule:nonzero;stroke:none"
       aria-label="F"
       transform="matrix(1.3333333,0,0,1.3333333,222.70133,13.504)" />
    <path
       id="path4"
       d="M 0,0 C 0,0 0,0 0,0"
       style="fill:none;stroke:#000000;stroke-width:0.3985;stroke-linecap:butt;stroke-linejoin:miter;stroke-miterlimit:10;stroke-dasharray:none;stroke-opacity:1"
       transform="matrix(1.3333333,0,0,-1.3333333,0.26533333,136.276)" />
  </g>
</svg>
