<?xml version="1.0" encoding="UTF-8" standalone="no"?>
<!-- Created with Inkscape (http://www.inkscape.org/) -->

<svg
   version="1.1"
   id="svg1"
   width="82.421875"
   height="122.74609"
   viewBox="0 0 82.421875 122.74609"
   xmlns="http://www.w3.org/2000/svg"
   xmlns:svg="http://www.w3.org/2000/svg">
  <defs
     id="defs1" />
  <g
     id="g1"
     transform="translate(-4.8671875,-4.1445311)">
    <path
       id="path1"
       d="M 3.4805156,-3.8682578 2.2031719,-4.1729453 c -0.6210938,-0.1523438 -1.0078125,-0.6914063 -1.0078125,-1.265625 0,-0.703125 0.5390625,-1.3007813 1.3125,-1.3007813 1.6640625,0 1.8867187,1.6289063 1.9453125,2.0742188 0.011719,0.058594 0.011719,0.1171875 0.1171875,0.1171875 0.1289062,0 0.1289062,-0.046875 0.1289062,-0.234375 v -2.0039063 c 0,-0.1640625 0,-0.234375 -0.1054687,-0.234375 -0.070312,0 -0.082031,0.011719 -0.1523438,0.1289063 l -0.3515625,0.5625 c -0.2929687,-0.28125 -0.703125,-0.6914063 -1.59375,-0.6914063 -1.1015625,0 -1.93359372,0.8789063 -1.93359372,1.9335938 0,0.8203125 0.52734372,1.546875 1.30078122,1.8164062 0.1054688,0.046875 0.6210938,0.1640625 1.3125,0.328125 0.2695313,0.070312 0.5742188,0.140625 0.84375,0.515625 0.2109375,0.2578125 0.3164063,0.5859375 0.3164063,0.9140625 0,0.70312504 -0.5039063,1.41796879 -1.3359375,1.41796879 -0.2929688,0 -1.0429688,-0.046875 -1.5703125,-0.5390625 C 0.84379688,-1.1612266 0.82035938,-1.8057578 0.80864063,-2.1573203 c -0.0117188,-0.1054688 -0.09375,-0.1054688 -0.1171875,-0.1054688 -0.12890625,0 -0.12890625,0.070312 -0.12890625,0.2460938 v 1.99218749 c 0,0.17578125 0,0.24609375 0.10546875,0.24609375 0.0703125,0 0.0820313,-0.0234375 0.15234375,-0.12890625 0,-0.01171875 0.0234375,-0.046875 0.35156252,-0.57421875 0.3164062,0.33984375 0.9492187,0.703125 1.8398437,0.703125 1.1601563,0 1.9570313,-0.984375 1.9570313,-2.07421874 0,-0.9960938 -0.65625,-1.8164063 -1.4882813,-2.015625 z m 0,0"
       style="fill:#000000;fill-opacity:1;fill-rule:nonzero;stroke:none"
       aria-label="S"
       transform="matrix(1.3333333,0,0,1.3333333,80.664,13.505333)" />
    <path
       id="path2"
       d="M 5.8020469,-6.7734687 H 0.32939063 v 0.3046875 h 0.234375 c 0.77343747,0 0.79687497,0.1171875 0.79687497,0.46875 v 5.22656245 c 0,0.3515625 -0.023437,0.46875 -0.79687497,0.46875 h -0.234375 V -3.125e-5 C 0.68095313,-0.0351875 1.4543906,-0.0351875 1.8411094,-0.0351875 c 0.4101562,0 1.3125,0 1.6757812,0.03515625 v -0.3046875 h -0.328125 c -0.9492187,0 -0.9492187,-0.12890625 -0.9492187,-0.48046875 v -2.4492187 h 0.8554687 c 0.9609375,0 1.0546875,0.3164062 1.0546875,1.1601562 H 4.4075156 V -4.7109687 H 4.1497031 c 0,0.8320312 -0.09375,1.1601562 -1.0546875,1.1601562 H 2.2395469 v -2.5195312 c 0,-0.328125 0.023437,-0.3984375 0.4921875,-0.3984375 h 1.1953125 c 1.4882812,0 1.7460937,0.5625 1.8984375,1.9335937 h 0.2578125 z m 0,0"
       style="fill:#000000;fill-opacity:1;fill-rule:nonzero;stroke:none"
       aria-label="F"
       transform="matrix(1.3333333,0,0,1.3333333,4.428,126.89067)" />
  </g>
</svg>
