<?xml version="1.0" encoding="UTF-8" standalone="no"?>
<!-- Created with Inkscape (http://www.inkscape.org/) -->

<svg
   version="1.1"
   id="svg1"
   width="302.61835"
   height="227.02684"
   viewBox="0 0 302.61835 227.02684"
   xmlns="http://www.w3.org/2000/svg"
   xmlns:svg="http://www.w3.org/2000/svg">
  <defs
     id="defs1" />
  <g
     id="g1"
     transform="translate(-5.000015e-4,-0.00998567)">
    <path
       id="path1"
       d="M 0,0 H 226.77448 M 0,28.3468 H 226.77448 M 0,56.69362 H 226.77448 M 0,85.04042 H 226.77448 M 0,113.38724 H 226.77448 M 0,141.73404 H 226.77448 M 0,170.07089 H 226.77448 M 0,0 V 170.08086 M 28.3468,0 V 170.08086 M 56.69362,0 V 170.08086 M 85.04042,0 V 170.08086 M 113.38724,0 V 170.08086 M 141.73404,0 V 170.08086 M 170.08086,0 V 170.08086 M 198.42766,0 V 170.08086 M 226.76451,0 v 170.08086"
       style="fill:none;stroke:#808080;stroke-width:0.19925;stroke-linecap:butt;stroke-linejoin:miter;stroke-miterlimit:10;stroke-dasharray:none;stroke-opacity:1"
       transform="matrix(1.3333333,0,0,-1.3333333,0.13333333,226.904)" />
    <path
       id="path2"
       d="m 77.95372,113.38724 c 0,23.48355 -9.51832,42.52022 -21.2601,42.52022 -11.74179,0 -21.26012,-19.03667 -21.26012,-42.52022 0,-23.48357 9.51833,-42.52024 21.26012,-42.52024 11.74178,0 21.2601,19.03667 21.2601,42.52024 z"
       style="fill:none;stroke:#000000;stroke-width:0.79701;stroke-linecap:butt;stroke-linejoin:miter;stroke-miterlimit:10;stroke-dasharray:none;stroke-opacity:1"
       transform="matrix(1.3333333,0,0,-1.3333333,0.13333333,226.904)" />
    <path
       id="path3"
       d="M 3.4818359,-3.8657422 2.2044922,-4.1704297 c -0.6210938,-0.1523437 -1.0078125,-0.6914062 -1.0078125,-1.265625 0,-0.703125 0.5390625,-1.3007812 1.3125,-1.3007812 1.6640625,0 1.8867187,1.6289062 1.9453125,2.0742187 0.011719,0.058594 0.011719,0.1171875 0.1171875,0.1171875 0.1289062,0 0.1289062,-0.046875 0.1289062,-0.234375 v -2.0039062 c 0,-0.1640625 0,-0.234375 -0.1054687,-0.234375 -0.070312,0 -0.082031,0.011719 -0.1523438,0.1289062 l -0.3515625,0.5625 c -0.2929687,-0.28125 -0.703125,-0.6914062 -1.59375,-0.6914062 -1.1015625,0 -1.93359371,0.8789062 -1.93359371,1.9335937 0,0.8203125 0.52734371,1.546875 1.30078121,1.8164063 0.1054688,0.046875 0.6210938,0.1640625 1.3125,0.328125 0.2695313,0.070312 0.5742188,0.140625 0.84375,0.515625 0.2109375,0.2578125 0.3164063,0.5859375 0.3164063,0.9140625 0,0.70312496 -0.5039063,1.41796871 -1.3359375,1.41796871 -0.2929688,0 -1.0429688,-0.046875 -1.5703125,-0.5390625 C 0.84511719,-1.1587109 0.82167969,-1.8032422 0.80996094,-2.1548047 c -0.0117188,-0.1054687 -0.09375,-0.1054687 -0.1171875,-0.1054687 -0.12890625,0 -0.12890625,0.070312 -0.12890625,0.2460937 v 1.99218751 c 0,0.17578125 0,0.24609375 0.10546875,0.24609375 0.0703125,0 0.0820313,-0.0234375 0.15234375,-0.12890625 0,-0.01171875 0.0234375,-0.046875 0.35156251,-0.57421875 0.3164062,0.33984375 0.9492187,0.703125 1.8398437,0.703125 1.1601563,0 1.9570313,-0.984375 1.9570313,-2.07421876 0,-0.9960937 -0.65625,-1.8164062 -1.4882813,-2.015625 z m 0,0"
       style="fill:#000000;fill-opacity:1;fill-rule:nonzero;stroke:none"
       aria-label="S"
       transform="matrix(1.3333333,0,0,1.3333333,72.033333,13.806667)" />
  </g>
</svg>
