<?xml version="1.0" encoding="UTF-8" standalone="no"?>
<!-- Created with Inkscape (http://www.inkscape.org/) -->

<svg
   version="1.1"
   id="svg1"
   width="302.61835"
   height="227.02684"
   viewBox="0 0 302.61835 227.02684"
   xmlns="http://www.w3.org/2000/svg"
   xmlns:svg="http://www.w3.org/2000/svg">
  <defs
     id="defs1" />
  <g
     id="g1"
     transform="translate(-5.000015e-4,-0.00998567)">
    <path
       id="path1"
       d="M 0,0 H 226.77448 M 0,28.3468 H 226.77448 M 0,56.69362 H 226.77448 M 0,85.04042 H 226.77448 M 0,113.38724 H 226.77448 M 0,141.73404 H 226.77448 M 0,170.07089 H 226.77448 M 0,0 V 170.08086 M 28.3468,0 V 170.08086 M 56.69362,0 V 170.08086 M 85.04042,0 V 170.08086 M 113.38724,0 V 170.08086 M 141.73404,0 V 170.08086 M 170.08086,0 V 170.08086 M 198.42766,0 V 170.08086 M 226.76451,0 v 170.08086"
       style="fill:none;stroke:#808080;stroke-width:0.19925;stroke-linecap:butt;stroke-linejoin:miter;stroke-miterlimit:10;stroke-dasharray:none;stroke-opacity:1"
       transform="matrix(1.3333333,0,0,-1.3333333,0.13333333,226.904)" />
    <path
       id="path2"
       d="m 77.95372,85.04042 c 0,23.48357 -9.51832,42.52022 -21.2601,42.52022 -11.74179,0 -21.26012,-19.03665 -21.26012,-42.52022 0,-23.48357 9.51833,-42.52022 21.26012,-42.52022 11.74178,0 21.2601,19.03665 21.2601,42.52022 z"
       style="fill:none;stroke:#000000;stroke-width:0.79701;stroke-linecap:butt;stroke-linejoin:miter;stroke-miterlimit:10;stroke-dasharray:none;stroke-opacity:1"
       transform="matrix(1.3333333,0,0,-1.3333333,0.13333333,226.904)" />
    <path
       id="path3"
       d="M 3.4818359,-3.8670156 2.2044922,-4.1717031 c -0.6210938,-0.1523438 -1.0078125,-0.6914063 -1.0078125,-1.265625 0,-0.703125 0.5390625,-1.3007813 1.3125,-1.3007813 1.6640625,0 1.8867187,1.6289063 1.9453125,2.0742188 0.011719,0.058594 0.011719,0.1171875 0.1171875,0.1171875 0.1289062,0 0.1289062,-0.046875 0.1289062,-0.234375 v -2.0039063 c 0,-0.1640625 0,-0.234375 -0.1054687,-0.234375 -0.070312,0 -0.082031,0.011719 -0.1523438,0.1289063 l -0.3515625,0.5625 c -0.2929687,-0.28125 -0.703125,-0.6914063 -1.59375,-0.6914063 -1.1015625,0 -1.93359371,0.8789063 -1.93359371,1.9335938 0,0.8203125 0.52734371,1.546875 1.30078121,1.8164062 0.1054688,0.046875 0.6210938,0.1640625 1.3125,0.328125 0.2695313,0.070312 0.5742188,0.140625 0.84375,0.515625 0.2109375,0.2578125 0.3164063,0.5859375 0.3164063,0.9140625 0,0.70312502 -0.5039063,1.41796877 -1.3359375,1.41796877 -0.2929688,0 -1.0429688,-0.046875 -1.5703125,-0.5390625 C 0.84511719,-1.1599844 0.82167969,-1.8045156 0.80996094,-2.1560781 c -0.0117188,-0.1054688 -0.09375,-0.1054688 -0.1171875,-0.1054688 -0.12890625,0 -0.12890625,0.070312 -0.12890625,0.2460938 v 1.99218747 c 0,0.17578125 0,0.24609375 0.10546875,0.24609375 0.0703125,0 0.0820313,-0.0234375 0.15234375,-0.12890625 0,-0.01171875 0.0234375,-0.046875 0.35156251,-0.57421875 0.3164062,0.33984375 0.9492187,0.703125 1.8398437,0.703125 1.1601563,0 1.9570313,-0.984375 1.9570313,-2.07421872 0,-0.9960938 -0.65625,-1.8164063 -1.4882813,-2.015625 z m 0,0"
       style="fill:#000000;fill-opacity:1;fill-rule:nonzero;stroke:none"
       aria-label="S"
       transform="matrix(1.3333333,0,0,1.3333333,72.033333,51.601333)" />
    <path
       id="path4"
       d="m 191.34096,85.04042 c 0,23.48357 -9.51833,42.52022 -21.2601,42.52022 -11.74179,0 -21.2601,-19.03665 -21.2601,-42.52022 0,-23.48357 9.51831,-42.52022 21.2601,-42.52022 11.74177,0 21.2601,19.03665 21.2601,42.52022 z"
       style="fill:none;stroke:#000000;stroke-width:0.79701;stroke-linecap:butt;stroke-linejoin:miter;stroke-miterlimit:10;stroke-dasharray:none;stroke-opacity:1"
       transform="matrix(1.3333333,0,0,-1.3333333,0.13333333,226.904)" />
    <path
       id="path5"
       d="M 5.8015156,-6.7732656 H 0.32885937 v 0.3046875 h 0.234375 c 0.77343753,0 0.79687503,0.1171875 0.79687503,0.46875 v 5.22656247 c 0,0.3515625 -0.023437,0.46875 -0.79687503,0.46875 h -0.234375 V 1.71875e-4 C 0.68042187,-0.03498438 1.4538594,-0.03498438 1.8405781,-0.03498438 c 0.4101563,0 1.3125,0 1.6757813,0.035156255 V -0.30451563 h -0.328125 c -0.9492188,0 -0.9492188,-0.12890625 -0.9492188,-0.48046875 V -3.2342031 h 0.8554688 c 0.9609375,0 1.0546875,0.3164062 1.0546875,1.1601562 H 4.4069844 V -4.7107656 H 4.1491719 c 0,0.8320312 -0.09375,1.1601562 -1.0546875,1.1601562 H 2.2390156 v -2.5195312 c 0,-0.328125 0.023437,-0.3984375 0.4921875,-0.3984375 h 1.1953125 c 1.4882813,0 1.7460938,0.5625 1.8984375,1.9335937 h 0.2578125 z m 0,0"
       style="fill:#000000;fill-opacity:1;fill-rule:nonzero;stroke:none"
       aria-label="F"
       transform="matrix(1.3333333,0,0,1.3333333,222.56933,51.601333)" />
    <path
       id="path6"
       d="m 61.38992,99.21382 c 0,2.59374 -2.10258,4.69632 -4.6963,4.69632 -2.59374,0 -4.69632,-2.10258 -4.69632,-4.69632 0,-2.59373 2.10258,-4.69632 4.69632,-4.69632 2.59372,0 4.6963,2.10259 4.6963,4.69632 z"
       style="fill:#000000;fill-opacity:1;fill-rule:nonzero;stroke:none"
       transform="matrix(1.3333333,0,0,-1.3333333,0.13333333,226.904)" />
    <path
       id="path7"
       d="m 2.8604375,-2.3449219 c 0.2929687,-0.375 0.6796875,-0.8671875 0.9140625,-1.125 0.3164062,-0.3515625 0.7148437,-0.5039062 1.1835937,-0.515625 v -0.3046875 c -0.2578125,0.011719 -0.5507812,0.023437 -0.8085937,0.023437 -0.3046875,0 -0.8320313,-0.023437 -0.9609375,-0.023437 v 0.3046875 c 0.2109375,0.023437 0.2929687,0.1523438 0.2929687,0.3046875 0,0.1640625 -0.1054687,0.2929688 -0.1523437,0.3515625 L 2.7080937,-2.5558594 1.9346562,-3.5519531 c -0.09375,-0.1054688 -0.09375,-0.1289063 -0.09375,-0.1875 0,-0.1523438 0.1523438,-0.234375 0.3515625,-0.2460938 v -0.3046875 c -0.2578125,0 -0.9140625,0.023437 -1.078125,0.023437 -0.21093745,0 -0.67968745,-0.011719 -0.9492187,-0.023437 v 0.3046875 c 0.703125,0 0.71484375,0.011719 1.1835937,0.609375 l 0.984375,1.2773438 -0.9375,1.19531247 C 0.915125,-0.32929688 0.3291875,-0.30585938 0.11825,-0.30585938 v 0.3046875 c 0.2578125,-0.0234375 0.57421875,-0.03515625 0.83203125,-0.03515625 0.28124995,0 0.70312495,0.0234375 0.94921875,0.03515625 v -0.3046875 c -0.2226563,-0.0351563 -0.2929688,-0.1640625 -0.2929688,-0.31640625 0,-0.2109375 0.2929688,-0.53906247 0.890625,-1.26562497 l 0.7617188,0.99609372 c 0.082031,0.1171875 0.2109375,0.26953125 0.2109375,0.328125 0,0.09375 -0.09375,0.24609375 -0.3632813,0.2578125 v 0.3046875 C 3.4112187,-0.01289063 3.962,-0.03632813 4.1846562,-0.03632813 c 0.2695313,0 0.65625,0.01171875 0.9609375,0.03515625 v -0.3046875 c -0.5390625,0 -0.7265625,-0.0234375 -0.9492187,-0.31640625 z m 0,0"
       style="fill:#000000;fill-opacity:1;fill-rule:nonzero;stroke:none"
       aria-label="x"
       transform="matrix(1.3333333,0,0,1.3333333,72.217333,83.4)" />
  </g>
</svg>
