<?xml version="1.0" encoding="UTF-8" standalone="no"?>
<!-- Created with Inkscape (http://www.inkscape.org/) -->

<svg
   version="1.1"
   id="svg1"
   width="372.90878"
   height="131.39305"
   viewBox="0 0 372.90878 131.39305"
   xmlns="http://www.w3.org/2000/svg"
   xmlns:svg="http://www.w3.org/2000/svg">
  <defs
     id="defs1" />
  <g
     id="g1"
     transform="translate(-3.7330292e-4,0.00145266)">
    <path
       id="path1"
       d="m 10.91228,106.60738 h 34.86905 v 13.55971 H 10.91228 Z"
       style="fill:#99def9;fill-opacity:1;fill-rule:nonzero;stroke:none"
       transform="matrix(1.3333333,0,0,-1.3333333,-14.549333,160.22133)" />
    <path
       id="path2"
       d="m 1.1028281,-3.4216172 v 2.66015626 c 0,0.45703125 -0.11718747,0.45703125 -0.78515622,0.45703125 V 2.578125e-4 C 0.66923438,-0.01146094 1.1731406,-0.03489844 1.4426719,-0.03489844 c 0.2578125,0 0.7851562,0.0234375 1.1132812,0.0351562525 V -0.30442969 c -0.65625,0 -0.7734375,0 -0.7734375,-0.45703125 V -2.5895859 c 0,-1.03125 0.7148438,-1.59375 1.3476563,-1.59375 0.6210937,0 0.7382812,0.5390625 0.7382812,1.1015625 v 2.32031246 c 0,0.45703125 -0.1171875,0.45703125 -0.7734375,0.45703125 V 2.578125e-4 c 0.3398438,-0.0117187525 0.8554688,-0.0351562525 1.125,-0.0351562525 0.2578125,0 0.7734375,0.0234375 1.1132813,0.0351562525 V -0.30442969 c -0.515625,0 -0.7734375,0 -0.7851563,-0.3046875 V -2.5075547 c 0,-0.8554687 0,-1.171875 -0.3046875,-1.5234375 -0.140625,-0.1757812 -0.46875,-0.375 -1.0429687,-0.375 -0.7265625,0 -1.1953125,0.4335938 -1.4765625,1.0546875 v -1.0546875 l -1.40625002,0.1171875 v 0.3046875 c 0.70312502,0 0.78515622,0.070312 0.78515622,0.5625 z m 9.1201169,1.2890625 c 0,-1.2773437 -0.9960934,-2.3320312 -2.1914059,-2.3320312 -1.2539063,0 -2.2148438,1.0898437 -2.2148438,2.3320312 0,1.28906251 1.03125,2.23828126 2.203125,2.23828126 1.2070313,0 2.2031247,-0.97265625 2.2031247,-2.23828126 z m -2.1914059,1.99218751 c -0.4335938,0 -0.8671875,-0.2109375 -1.1367188,-0.66796875 C 6.6370078,-1.2419297 6.6370078,-1.8513047 6.6370078,-2.2145859 c 0,-0.3867188 0,-0.9257813 0.2460938,-1.359375 0.2695312,-0.4570313 0.7382812,-0.6679688 1.1367187,-0.6679688 0.4335938,0 0.8671875,0.2226563 1.125,0.6445313 0.2578125,0.4335937 0.2578125,1.0078125 0.2578125,1.3828125 0,0.3632812 0,0.9023437 -0.2226562,1.33593746 -0.2226563,0.4453125 -0.65625,0.73828125 -1.1484375,0.73828125 z m 6.5478519,-0.41015625 v 0.65625 L 16.044234,2.578125e-4 V -0.30442969 c -0.703125,0 -0.773437,-0.0703125 -0.773437,-0.5625 V -6.9138047 l -1.441406,0.1054688 v 0.3164062 c 0.703125,0 0.785156,0.070312 0.785156,0.5507813 v 2.15625 c -0.292969,-0.3632813 -0.726563,-0.6210938 -1.265625,-0.6210938 -1.171875,0 -2.214844,0.984375 -2.214844,2.2617188 0,1.26562496 0.972656,2.24999996 2.109375,2.24999996 0.644531,0 1.089844,-0.33984375 1.335938,-0.65625 z m 0,-2.67187496 v 2.0507812 c 0,0.17578126 0,0.19921876 -0.105469,0.36328126 -0.304688,0.48046875 -0.75,0.703125 -1.183594,0.703125 -0.445312,0 -0.796875,-0.2578125 -1.042969,-0.64453125 -0.257812,-0.41015621 -0.292968,-0.97265621 -0.292968,-1.38281251 0,-0.3632812 0.02344,-0.9609375 0.316406,-1.4179687 0.210937,-0.3046875 0.585937,-0.6328125 1.125,-0.6328125 0.351562,0 0.761719,0.1523437 1.078125,0.5976562 0.105469,0.1640625 0.105469,0.1875 0.105469,0.3632813 z m 2.865234,0.7148437 c 0.05859,-1.4882812 0.902344,-1.734375 1.242188,-1.734375 1.019531,0 1.125,1.3476563 1.125,1.734375 z m -0.01172,0.2109375 h 2.789063 c 0.210937,0 0.246094,0 0.246094,-0.2109375 0,-0.984375 -0.539063,-1.9570312 -1.78125,-1.9570312 -1.160157,0 -2.074219,1.03125 -2.074219,2.2734375 0,1.33593746 1.042969,2.29687496 2.191406,2.29687496 1.21875,0 1.664063,-1.1015625 1.664063,-1.28906246 0,-0.1054688 -0.08203,-0.1171875 -0.128907,-0.1171875 -0.09375,0 -0.117187,0.058594 -0.128906,0.140625 -0.351562,1.01953121 -1.253906,1.01953121 -1.347656,1.01953121 -0.503906,0 -0.902344,-0.29296875 -1.125,-0.66796875 C 17.432906,-1.2888047 17.432906,-1.9450547 17.432905,-2.2966172 Z m 7.286133,-4.640625 c -0.04687,-0.1289062 -0.07031,-0.1992187 -0.222656,-0.1992187 -0.164063,0 -0.1875,0.058594 -0.246094,0.1992187 l -2.0625,5.96484376 c -0.175781,0.50390625 -0.574219,0.65625 -1.113281,0.66796875 V 2.578125e-4 c 0.234375,-0.0117187525 0.65625,-0.0351562525 1.019531,-0.0351562525 0.304688,0 0.820313,0.0234375 1.148438,0.0351562525 V -0.30442969 c -0.503907,0 -0.75,-0.2578125 -0.75,-0.515625 0,-0.0234375 0.01172,-0.12890625 0.02344,-0.140625 l 0.457031,-1.31250001 h 2.460938 l 0.527344,1.52343751 c 0.01172,0.046875 0.02344,0.10546875 0.02344,0.140625 0,0.3046875 -0.550781,0.3046875 -0.820312,0.3046875 V 2.578125e-4 C 25.515914,-0.03489844 26.219039,-0.03489844 26.594039,-0.03489844 c 0.433594,0 0.890625,0.01171875 1.300781,0.0351562525 V -0.30442969 h -0.175781 c -0.597656,0 -0.738281,-0.0703125 -0.84375,-0.3984375 z m -0.527344,1.125 1.125,3.234375 h -2.238281 z m 0,0"
       style="fill:#000000;fill-opacity:1;fill-rule:nonzero;stroke:none"
       aria-label="nodeA"
       transform="matrix(1.3333333,0,0,1.3333333,4.428,13.652)" />
    <path
       id="path3"
       d="m 21.49774,21.6223 h 13.6981 v 13.449 h -13.6981 z"
       style="fill:#fffa99;fill-opacity:1;fill-rule:nonzero;stroke:none"
       transform="matrix(1.3333333,0,0,-1.3333333,-14.549333,160.22133)" />
    <path
       id="path4"
       d="m 2.2160703,-3.6438984 v -2.4492188 c 0,-0.328125 0.011719,-0.3984375 0.4804688,-0.3984375 h 1.2421875 c 0.9609375,0 1.3125,0.84375 1.3125,1.3710938 0,0.6328125 -0.4921875,1.4765625 -1.59375,1.4765625 z m 2.34375,0.09375 c 0.9726563,-0.1992188 1.6523438,-0.8320313 1.6523438,-1.5703125 0,-0.8671875 -0.9140625,-1.6875 -2.203125,-1.6875 H 0.36450781 v 0.3164062 h 0.234375 c 0.76171879,0 0.78515629,0.1054688 0.78515629,0.46875 v 5.25000001 c 0,0.3515625 -0.023437,0.46875 -0.78515629,0.46875 h -0.234375 V 6.328125e-4 H 4.2668516 c 1.3242187,0 2.2148437,-0.8906250025 2.2148437,-1.8281250125 0,-0.8671875 -0.8085937,-1.6054687 -1.921875,-1.7226562 z m -0.609375,3.24609371 H 2.6965391 c -0.46875,0 -0.4804688,-0.0703125 -0.4804688,-0.3984375 V -3.4212422 h 1.875 c 0.984375,0 1.3945313,0.9257813 1.3945313,1.59375 0,0.703125 -0.515625,1.52343751 -1.5351563,1.52343751 z m 0,0"
       style="fill:#000000;fill-opacity:1;fill-rule:nonzero;stroke:none"
       aria-label="B"
       transform="matrix(1.3333333,0,0,1.3333333,18.541333,126.964)" />
    <path
       id="path5"
       d="m 134.81581,64.1425 h 13.83647 v 13.449 h -13.83647 z"
       style="fill:#ffffff;fill-opacity:1;fill-rule:nonzero;stroke:none"
       transform="matrix(1.3333333,0,0,-1.3333333,-14.549333,160.22133)" />
    <path
       id="path6"
       d="m 0.56217969,-3.4090781 c 0,2.0625 1.60546871,3.63281247 3.45703121,3.63281247 1.6289063,0 2.6015625,-1.38281247 2.6015625,-2.54296877 0,-0.1054687 0,-0.1757812 -0.1289062,-0.1757812 -0.1054688,0 -0.1054688,0.070312 -0.1171875,0.1640625 -0.082031,1.42968747 -1.1484375,2.23828122 -2.2265625,2.23828122 -0.609375,0 -2.5664063,-0.33984375 -2.5664063,-3.30468752 0,-2.9765625 1.9453125,-3.3164062 2.5546875,-3.3164062 1.078125,0 1.96875,0.9023437 2.1679688,2.3671875 0.023437,0.1289062 0.023437,0.1640625 0.1640625,0.1640625 0.1523437,0 0.1523437,-0.035156 0.1523437,-0.234375 v -2.3671875 c 0,-0.1640625 0,-0.234375 -0.1054687,-0.234375 -0.035156,0 -0.082031,0 -0.1640625,0.1171875 l -0.4921875,0.7382812 c -0.375,-0.3632812 -0.8789063,-0.8554687 -1.8398438,-0.8554687 -1.8632812,0 -3.45703121,1.5820312 -3.45703121,3.609375 z m 0,0"
       style="fill:#000000;fill-opacity:1;fill-rule:nonzero;stroke:none"
       aria-label="C"
       transform="matrix(1.3333333,0,0,1.3333333,169.62933,70.272)" />
    <path
       id="path7"
       d="m 276.3423,64.1425 h 14.25157 v 13.449 H 276.3423 Z"
       style="fill:#ffb3b3;fill-opacity:1;fill-rule:nonzero;stroke:none"
       transform="matrix(1.3333333,0,0,-1.3333333,-14.549333,160.22133)" />
    <path
       id="path8"
       d="m 0.35065625,-6.8075156 v 0.3164062 h 0.234375 c 0.77343745,0 0.78515625,0.1054688 0.78515625,0.46875 v 5.25000002 c 0,0.3515625 -0.011719,0.46875 -0.78515625,0.46875 h -0.234375 v 0.3046875 H 3.9951875 c 1.6757812,0 3.046875,-1.47656252 3.046875,-3.35156252 0,-1.8867187 -1.3476563,-3.4570312 -3.046875,-3.4570312 z m 2.36718745,6.50390622 c -0.46875,0 -0.4921875,-0.0703125 -0.4921875,-0.3984375 V -6.0926719 c 0,-0.328125 0.023437,-0.3984375 0.4921875,-0.3984375 h 0.9960938 c 0.6210937,0 1.3007812,0.2109375 1.8164062,0.9257813 0.421875,0.5859375 0.515625,1.4414062 0.515625,2.2148437 0,1.1132813 -0.1875,1.7109375 -0.5507812,2.1914063 -0.1992188,0.26953122 -0.7617188,0.85546872 -1.7695313,0.85546872 z m 0,0"
       style="fill:#000000;fill-opacity:1;fill-rule:nonzero;stroke:none"
       aria-label="D"
       transform="matrix(1.3333333,0,0,1.3333333,358.32933,70.272)" />
    <path
       id="path9"
       d="M 45.98058,106.77834 133.9543,73.78055"
       style="fill:none;stroke:#000000;stroke-width:0.79701;stroke-linecap:butt;stroke-linejoin:miter;stroke-miterlimit:10;stroke-dasharray:none;stroke-opacity:1"
       transform="matrix(1.3333333,0,0,-1.3333333,-14.549333,160.22133)" />
    <path
       id="path10"
       d="M -1.55415,2.0722 C -1.42464,1.29512 0,0.1295 0.38852,0 0,-0.1295 -1.42464,-1.29512 -1.55415,-2.0722"
       style="fill:none;stroke:#000000;stroke-width:0.6376;stroke-linecap:round;stroke-linejoin:round;stroke-miterlimit:10;stroke-dasharray:none;stroke-opacity:1"
       transform="matrix(1.2483333,0.46822667,0.46822667,-1.2483333,164.0564,61.847267)" />
    <path
       id="path11"
       d="m 2.9309609,-6.3749922 c 0,-0.234375 0,-0.2578125 -0.234375,-0.2578125 -0.609375,0.6328125 -1.4882812,0.6328125 -1.80468746,0.6328125 v 0.3164063 c 0.19921876,0 0.78515626,0 1.30078126,-0.2578125 v 5.15624996 c 0,0.3515625 -0.035156,0.48046875 -0.9257813,0.48046875 H 0.95049219 V 7.8125e-6 C 1.3020547,-0.03514844 2.1575234,-0.03514844 2.5559609,-0.03514844 c 0.3984375,0 1.265625,0 1.6171875,0.0351562525 V -0.30467969 H 3.8567422 c -0.9023438,0 -0.9257813,-0.1171875 -0.9257813,-0.48046875 z m 4.9453125,2.8710938 c 0.8085938,-0.2695313 1.3945313,-0.9726563 1.3945313,-1.7578125 0,-0.8203125 -0.8789063,-1.3710938 -1.8398438,-1.3710938 -1.0078125,0 -1.7578125,0.5976563 -1.7578125,1.3476563 0,0.3398437 0.2109375,0.5273437 0.5039063,0.5273437 0.3046875,0 0.5039062,-0.2226562 0.5039062,-0.515625 0,-0.4921875 -0.46875,-0.4921875 -0.609375,-0.4921875 0.3046875,-0.4921875 0.9609375,-0.6210937 1.3242188,-0.6210937 0.4101562,0 0.9492187,0.2226562 0.9492187,1.1132812 0,0.1289063 -0.011719,0.703125 -0.2695312,1.1367188 -0.3046875,0.4804687 -0.6445313,0.515625 -0.890625,0.515625 -0.082031,0.011719 -0.3164063,0.035156 -0.3867188,0.035156 -0.082031,0.011719 -0.1523437,0.023437 -0.1523437,0.1171875 0,0.1171875 0.070312,0.1171875 0.234375,0.1171875 h 0.4453125 c 0.8085937,0 1.1835937,0.6679688 1.1835937,1.6523438 0,1.34765621 -0.6914062,1.64062496 -1.125,1.64062496 -0.4335937,0 -1.171875,-0.17578125 -1.5234375,-0.76171875 0.3515625,0.0585938 0.65625,-0.1640625 0.65625,-0.53906251 0,-0.3632812 -0.2695312,-0.5625 -0.5625,-0.5625 -0.234375,0 -0.5507812,0.140625 -0.5507812,0.5742188 0,0.91406246 0.9257812,1.57031246 2.0039062,1.57031246 1.21875,0 2.1210938,-0.9140625 2.1210938,-1.92187496 0,-0.8203125 -0.6210938,-1.59375 -1.6523438,-1.8046873 z m 0,0"
       style="fill:#000000;fill-opacity:1;fill-rule:nonzero;stroke:none"
       aria-label="13"
       transform="matrix(1.3333333,0,0,1.3333333,99.205333,31.277333)" />
    <path
       id="path12"
       d="m 35.39511,30.9884 98.55917,36.9651"
       style="fill:none;stroke:#000000;stroke-width:0.79701;stroke-linecap:butt;stroke-linejoin:miter;stroke-miterlimit:10;stroke-dasharray:none;stroke-opacity:1"
       transform="matrix(1.3333333,0,0,-1.3333333,-14.549333,160.22133)" />
    <path
       id="path13"
       d="M -1.55415,2.0722 C -1.42464,1.29512 0,0.1295 0.38852,0 0,-0.1295 -1.42464,-1.29512 -1.55415,-2.0722"
       style="fill:none;stroke:#000000;stroke-width:0.6376;stroke-linecap:round;stroke-linejoin:round;stroke-miterlimit:10;stroke-dasharray:none;stroke-opacity:1"
       transform="matrix(1.2483467,-0.46818667,-0.46818667,-1.2483467,164.05637,69.616667)" />
    <path
       id="path14"
       d="m 2.9300156,-6.3763984 c 0,-0.234375 0,-0.2578125 -0.234375,-0.2578125 -0.609375,0.6328125 -1.4882812,0.6328125 -1.80468747,0.6328125 v 0.3164062 c 0.19921877,0 0.78515627,0 1.30078127,-0.2578125 v 5.15625001 c 0,0.3515625 -0.035156,0.48046875 -0.9257813,0.48046875 H 0.94954688 v 0.3046875 C 1.3011094,-0.03655469 2.1565781,-0.03655469 2.5550156,-0.03655469 c 0.3984375,0 1.265625,0 1.6171875,0.03515625 v -0.3046875 H 3.8557969 c -0.9023438,0 -0.9257813,-0.1171875 -0.9257813,-0.48046875 z m 3.3164063,5.61328121 1.0546875,-1.03125001 c 1.5585937,-1.3710937 2.15625,-1.9101562 2.15625,-2.90625 0,-1.1367187 -0.9023438,-1.9335937 -2.1210938,-1.9335937 -1.125,0 -1.8515625,0.9140625 -1.8515625,1.8046875 0,0.5507812 0.4921875,0.5507812 0.5273438,0.5507812 0.1640625,0 0.515625,-0.1171875 0.515625,-0.5273437 0,-0.2578125 -0.1875,-0.515625 -0.5273438,-0.515625 -0.082031,0 -0.1054687,0 -0.1289062,0.011719 0.2226562,-0.6445312 0.7617187,-1.0195312 1.3359375,-1.0195312 0.9140625,0 1.3359375,0.8085937 1.3359375,1.6289062 0,0.796875 -0.4921875,1.5820313 -1.0429688,2.203125 l -1.9101562,2.13281251 c -0.1054688,0.10546875 -0.1054688,0.12890625 -0.1054688,0.36328125 h 3.6914063 l 0.28125,-1.73437496 H 9.1995469 c -0.046875,0.3046875 -0.1171875,0.73828121 -0.2109375,0.89062496 -0.070312,0.0820313 -0.7265625,0.0820313 -0.9492188,0.0820313 z m 0,0"
       style="fill:#000000;fill-opacity:1;fill-rule:nonzero;stroke:none"
       aria-label="12"
       transform="matrix(1.3333333,0,0,1.3333333,92.148,85.357333)" />
    <path
       id="path15"
       d="M 148.85153,70.867 H 275.43568"
       style="fill:none;stroke:#000000;stroke-width:0.79701;stroke-linecap:butt;stroke-linejoin:miter;stroke-miterlimit:10;stroke-dasharray:none;stroke-opacity:1"
       transform="matrix(1.3333333,0,0,-1.3333333,-14.549333,160.22133)" />
    <path
       id="path16"
       d="M -1.55415,2.0722 C -1.42464,1.29512 0,0.1295 0.38852,0 0,-0.1295 -1.42464,-1.29512 -1.55415,-2.0722"
       style="fill:none;stroke:#000000;stroke-width:0.6376;stroke-linecap:round;stroke-linejoin:round;stroke-miterlimit:10;stroke-dasharray:none;stroke-opacity:1"
       transform="matrix(1.3333333,0,0,-1.3333333,352.69824,65.732)" />
    <path
       id="path17"
       d="m 2.9282969,-6.3739297 c 0,-0.234375 0,-0.2578125 -0.234375,-0.2578125 -0.609375,0.6328125 -1.4882813,0.6328125 -1.80468752,0.6328125 v 0.3164063 c 0.19921872,0 0.78515622,0 1.30078122,-0.2578125 v 5.15624996 c 0,0.3515625 -0.035156,0.48046875 -0.9257812,0.48046875 H 0.94782813 v 0.3046875 C 1.2993906,-0.03408594 2.1548594,-0.03408594 2.5532969,-0.03408594 c 0.3984375,0 1.265625,0 1.6171875,0.03515625 v -0.3046875 H 3.8540781 c -0.9023437,0 -0.9257812,-0.1171875 -0.9257812,-0.48046875 z m 4.9833984,0 c 0,-0.234375 0,-0.2578125 -0.234375,-0.2578125 -0.609375,0.6328125 -1.4882812,0.6328125 -1.8046875,0.6328125 v 0.3164063 c 0.1992188,0 0.7851563,0 1.3007813,-0.2578125 v 5.15624996 c 0,0.3515625 -0.035156,0.48046875 -0.9257813,0.48046875 H 5.9312266 v 0.3046875 c 0.3515625,-0.03515625 1.2070312,-0.03515625 1.6054687,-0.03515625 0.3984375,0 1.265625,0 1.6171875,0.03515625 v -0.3046875 H 8.8374766 c -0.9023438,0 -0.9257813,-0.1171875 -0.9257813,-0.48046875 z m 0,0"
       style="fill:#000000;fill-opacity:1;fill-rule:nonzero;stroke:none"
       aria-label="11"
       transform="matrix(1.3333333,0,0,1.3333333,262.13467,56.994667)" />
  </g>
</svg>
