<?xml version="1.0" encoding="UTF-8" standalone="no"?>
<!-- Created with Inkscape (http://www.inkscape.org/) -->

<svg
   version="1.1"
   id="svg1"
   width="308.91177"
   height="233.15575"
   viewBox="0 0 308.91178 233.15574"
   xmlns="http://www.w3.org/2000/svg"
   xmlns:svg="http://www.w3.org/2000/svg">
  <defs
     id="defs1" />
  <g
     id="g1"
     transform="translate(-4.8164063,-0.01131567)">
    <path
       id="path1"
       d="M 0,0 H 226.77448 M 0,28.3468 H 226.77448 M 0,56.69362 H 226.77448 M 0,85.04042 H 226.77448 M 0,113.38724 H 226.77448 M 0,141.73404 H 226.77448 M 0,170.07089 H 226.77448 M 0,0 V 170.08086 M 28.3468,0 V 170.08086 M 56.69362,0 V 170.08086 M 85.04042,0 V 170.08086 M 113.38724,0 V 170.08086 M 141.73404,0 V 170.08086 M 170.08086,0 V 170.08086 M 198.42766,0 V 170.08086 M 226.76451,0 v 170.08086"
       style="fill:none;stroke:#808080;stroke-width:0.19925;stroke-linecap:butt;stroke-linejoin:miter;stroke-miterlimit:10;stroke-dasharray:none;stroke-opacity:1"
       transform="matrix(1.3333333,0,0,-1.3333333,11.242667,226.90533)" />
    <path
       id="path2"
       d="m 77.95372,85.04042 c 0,23.48357 -9.51832,42.52022 -21.2601,42.52022 -11.74179,0 -21.26012,-19.03665 -21.26012,-42.52022 0,-23.48357 9.51833,-42.52022 21.26012,-42.52022 11.74178,0 21.2601,19.03665 21.2601,42.52022 z"
       style="fill:none;stroke:#000000;stroke-width:0.79701;stroke-linecap:butt;stroke-linejoin:miter;stroke-miterlimit:10;stroke-dasharray:none;stroke-opacity:1"
       transform="matrix(1.3333333,0,0,-1.3333333,11.242667,226.90533)" />
    <path
       id="path3"
       d="M 3.4808672,-3.8670156 2.2035234,-4.1717031 c -0.6210937,-0.1523438 -1.0078125,-0.6914063 -1.0078125,-1.265625 0,-0.703125 0.5390625,-1.3007813 1.3125,-1.3007813 1.6640625,0 1.8867188,1.6289063 1.9453125,2.0742188 0.011719,0.058594 0.011719,0.1171875 0.1171875,0.1171875 0.1289063,0 0.1289063,-0.046875 0.1289063,-0.234375 v -2.0039063 c 0,-0.1640625 0,-0.234375 -0.1054688,-0.234375 -0.070312,0 -0.082031,0.011719 -0.1523437,0.1289063 l -0.3515625,0.5625 c -0.2929688,-0.28125 -0.703125,-0.6914063 -1.59375,-0.6914063 -1.1015625,0 -1.93359376,0.8789063 -1.93359376,1.9335938 0,0.8203125 0.52734376,1.546875 1.30078126,1.8164062 0.1054687,0.046875 0.6210937,0.1640625 1.3125,0.328125 0.2695312,0.070312 0.5742187,0.140625 0.84375,0.515625 0.2109375,0.2578125 0.3164062,0.5859375 0.3164062,0.9140625 0,0.70312503 -0.5039062,1.41796878 -1.3359375,1.41796878 -0.2929687,0 -1.0429687,-0.046875 -1.5703125,-0.5390625 C 0.84414844,-1.1599844 0.82071094,-1.8045156 0.80899219,-2.1560781 c -0.0117188,-0.1054688 -0.09375,-0.1054688 -0.1171875,-0.1054688 -0.12890625,0 -0.12890625,0.070312 -0.12890625,0.2460938 v 1.99218748 c 0,0.17578125 0,0.24609375 0.10546875,0.24609375 0.0703125,0 0.0820313,-0.0234375 0.15234375,-0.12890625 0,-0.01171875 0.0234375,-0.046875 0.35156246,-0.57421875 0.3164063,0.33984375 0.9492188,0.703125 1.8398438,0.703125 1.1601562,0 1.9570312,-0.984375 1.9570312,-2.07421873 0,-0.9960938 -0.65625,-1.8164063 -1.4882812,-2.015625 z m 0,0"
       style="fill:#000000;fill-opacity:1;fill-rule:nonzero;stroke:none"
       aria-label="S"
       transform="matrix(1.3333333,0,0,1.3333333,83.144,51.601333)" />
    <path
       id="path4"
       d="m 191.34096,85.04042 c 0,23.48357 -9.51833,42.52022 -21.2601,42.52022 -11.74179,0 -21.2601,-19.03665 -21.2601,-42.52022 0,-23.48357 9.51831,-42.52022 21.2601,-42.52022 11.74177,0 21.2601,19.03665 21.2601,42.52022 z"
       style="fill:none;stroke:#000000;stroke-width:0.79701;stroke-linecap:butt;stroke-linejoin:miter;stroke-miterlimit:10;stroke-dasharray:none;stroke-opacity:1"
       transform="matrix(1.3333333,0,0,-1.3333333,11.242667,226.90533)" />
    <path
       id="path5"
       d="M 5.8015469,-6.7732656 H 0.32889062 v 0.3046875 h 0.234375 c 0.77343748,0 0.79687498,0.1171875 0.79687498,0.46875 v 5.22656248 c 0,0.3515625 -0.023437,0.46875 -0.79687498,0.46875 h -0.234375 V 1.71875e-4 C 0.68045312,-0.03498437 1.4538906,-0.03498437 1.8406094,-0.03498437 c 0.4101562,0 1.3125,0 1.6757812,0.035156245 V -0.30451562 h -0.328125 c -0.9492187,0 -0.9492187,-0.12890625 -0.9492187,-0.48046875 V -3.2342031 h 0.8554687 c 0.9609375,0 1.0546875,0.3164062 1.0546875,1.1601562 H 4.4070156 V -4.7107656 H 4.1492031 c 0,0.8320312 -0.09375,1.1601562 -1.0546875,1.1601562 H 2.2390469 v -2.5195312 c 0,-0.328125 0.023437,-0.3984375 0.4921875,-0.3984375 h 1.1953125 c 1.4882812,0 1.7460937,0.5625 1.8984375,1.9335937 h 0.2578125 z m 0,0"
       style="fill:#000000;fill-opacity:1;fill-rule:nonzero;stroke:none"
       aria-label="F"
       transform="matrix(1.3333333,0,0,1.3333333,233.67867,51.601333)" />
    <path
       id="path6"
       d="m 61.38992,99.21382 c 0,2.59374 -2.10258,4.69632 -4.6963,4.69632 -2.59374,0 -4.69632,-2.10258 -4.69632,-4.69632 0,-2.59373 2.10258,-4.69632 4.69632,-4.69632 2.59372,0 4.6963,2.10259 4.6963,4.69632 z"
       style="fill:#000000;fill-opacity:1;fill-rule:nonzero;stroke:none"
       transform="matrix(1.3333333,0,0,-1.3333333,11.242667,226.90533)" />
    <g
       id="g6"
       aria-label="x1"
       transform="matrix(1.3333333,0,0,1.3333333,79.716,83.401333)">
      <path
         id="path7"
         d="m 3.3272578,-3.0109609 c 0.058594,-0.2578125 0.2929688,-1.171875 0.984375,-1.171875 0.046875,0 0.2929688,0 0.5039063,0.1289062 -0.28125,0.046875 -0.4804688,0.3046875 -0.4804688,0.5390625 0,0.1640625 0.1054688,0.3515625 0.375,0.3515625 0.2226563,0 0.5390625,-0.1875 0.5390625,-0.5859375 0,-0.515625 -0.5859375,-0.65625 -0.9257812,-0.65625 -0.5742188,0 -0.9257813,0.5273438 -1.0429688,0.7617188 -0.2578125,-0.65625 -0.7851562,-0.7617188 -1.078125,-0.7617188 -1.0429687,0 -1.60546874,1.2890625 -1.60546874,1.5351563 0,0.1054687 0.10546875,0.1054687 0.1171875,0.1054687 0.0820313,0 0.1171875,-0.023437 0.12890625,-0.1171875 0.33984379,-1.0546875 0.99609379,-1.3007812 1.33593749,-1.3007812 0.1875,0 0.5390625,0.09375 0.5390625,0.6679687 0,0.3046875 -0.1640625,0.9726563 -0.5390625,2.3671875 -0.1523437,0.62109376 -0.5039062,1.04296876 -0.9492187,1.04296876 -0.058594,0 -0.28125004,0 -0.49218754,-0.12890625 0.24609375,-0.0585937 0.46875004,-0.26953125 0.46875004,-0.5390625 0,-0.26953121 -0.22265629,-0.35156251 -0.37500004,-0.35156251 -0.29296875,0 -0.5390625,0.25781251 -0.5390625,0.57421876 0,0.45703125 0.4921875,0.65625 0.93750004,0.65625 0.65625,0 1.0078125,-0.69140625 1.0429687,-0.75 0.1171875,0.36328125 0.4804688,0.75 1.078125,0.75 1.0195313,0 1.59375,-1.27734376 1.59375,-1.53515626 0,-0.09375 -0.09375,-0.09375 -0.1289062,-0.09375 -0.082031,0 -0.1054688,0.035156 -0.1289063,0.1054688 -0.328125,1.06640621 -0.9960937,1.31249996 -1.3242187,1.31249996 -0.3867188,0 -0.5390625,-0.328125 -0.5390625,-0.65625 0,-0.22265625 0.058594,-0.44531246 0.1640625,-0.87890626 z m 0,0"
         style="fill:#000000;fill-opacity:1;fill-rule:nonzero;stroke:none" />
      <path
         id="path8"
         d="m 8.6241328,-6.3742422 c 0,-0.234375 0,-0.2578125 -0.234375,-0.2578125 -0.609375,0.6328125 -1.4882812,0.6328125 -1.8046875,0.6328125 v 0.3164063 c 0.1992188,0 0.7851563,0 1.3007813,-0.2578125 v 5.15624996 c 0,0.3515625 -0.035156,0.48046875 -0.9257813,0.48046875 H 6.6436641 V 7.578125e-4 C 6.9952266,-0.03439844 7.8506953,-0.03439844 8.2491328,-0.03439844 c 0.3984375,0 1.265625,0 1.6171875,0.0351562525 V -0.30392969 H 9.5499141 c -0.9023438,0 -0.9257813,-0.1171875 -0.9257813,-0.48046875 z m 0,0"
         style="fill:#000000;fill-opacity:1;fill-rule:nonzero;stroke:none" />
    </g>
    <path
       id="path9"
       d="M 4.6963,0 C 4.6963,2.59372 2.59372,4.6963 0,4.6963 -2.59372,4.6963 -4.6963,2.59372 -4.6963,0 c 0,-2.59372 2.10258,-4.6963 4.6963,-4.6963 2.59372,0 4.6963,2.10258 4.6963,4.6963 z"
       style="fill:#000000;fill-opacity:1;fill-rule:nonzero;stroke:none"
       transform="matrix(1.3333333,0,0,-1.3333333,11.242667,226.90533)" />
    <g
       id="g9"
       aria-label="y1"
       transform="matrix(1.3333333,0,0,1.3333333,4.4266667,213.10133)">
      <path
         id="path10"
         d="m 4.8391797,-3.7967031 c 0.046875,-0.140625 0.046875,-0.1523438 0.046875,-0.2226563 0,-0.1875 -0.140625,-0.2695312 -0.2929688,-0.2695312 -0.1054687,0 -0.2578125,0.058594 -0.3515625,0.1992187 -0.023437,0.058594 -0.09375,0.3632813 -0.140625,0.5390625 -0.070312,0.2578125 -0.140625,0.5273438 -0.1992187,0.796875 l -0.4453125,1.79296878 c -0.035156,0.15234375 -0.46875,0.85546875 -1.125,0.85546875 -0.5039063,0 -0.6210938,-0.4453125 -0.6210938,-0.80859375 0,-0.45703128 0.1757813,-1.07812498 0.515625,-1.95703128 0.1523438,-0.4101562 0.1992188,-0.515625 0.1992188,-0.7148437 0,-0.4453125 -0.328125,-0.8203125 -0.8203125,-0.8203125 -0.94921876,0 -1.31250001,1.453125 -1.31250001,1.5351562 0,0.1054688 0.09375,0.1054688 0.1171875,0.1054688 0.09375,0 0.10546875,-0.023437 0.15234375,-0.1875 0.26953125,-0.9375 0.66796876,-1.2304688 1.00781246,-1.2304688 0.082031,0 0.2578125,0 0.2578125,0.3164063 0,0.2460937 -0.1054687,0.515625 -0.1757812,0.703125 -0.3984375,1.0546875 -0.5742188,1.6171875 -0.5742188,2.0859375 0,0.89062498 0.6210938,1.18359373 1.21875,1.18359373 0.3867188,0 0.7265625,-0.1640625 0.9960938,-0.4453125 -0.1289063,0.515625 -0.2460938,1.0078125 -0.6445313,1.53515627 -0.2578125,0.3398437 -0.6328125,0.6328125 -1.0898437,0.6328125 -0.140625,0 -0.59765626,-0.035156 -0.76171876,-0.421875 0.1640625,0 0.29296876,0 0.43359376,-0.1171875 0.09375,-0.09375 0.1992187,-0.2226563 0.1992187,-0.41015627 0,-0.31640625 -0.2695312,-0.3515625 -0.375,-0.3515625 -0.22265621,0 -0.55078121,0.1640625 -0.55078121,0.64453127 0,0.5039062 0.43359375,0.8671875 1.05468751,0.8671875 1.0195312,0 2.0507812,-0.9023438 2.3320312,-2.02734377 z m 0,0"
         style="fill:#000000;fill-opacity:1;fill-rule:nonzero;stroke:none" />
      <path
         id="path11"
         d="m 8.1731641,-6.3748281 c 0,-0.234375 0,-0.2578125 -0.234375,-0.2578125 -0.609375,0.6328125 -1.4882813,0.6328125 -1.8046875,0.6328125 v 0.3164062 c 0.1992187,0 0.7851562,0 1.3007812,-0.2578125 v 5.15625003 c 0,0.3515625 -0.035156,0.48046875 -0.9257812,0.48046875 H 6.1926953 V 1.71875e-4 C 6.5442578,-0.03498437 7.3997266,-0.03498437 7.7981641,-0.03498437 c 0.3984375,0 1.265625,0 1.6171875,0.035156245 V -0.30451562 H 9.0989453 c -0.9023437,0 -0.9257812,-0.1171875 -0.9257812,-0.48046875 z m 0,0"
         style="fill:#000000;fill-opacity:1;fill-rule:nonzero;stroke:none" />
    </g>
    <path
       id="path12"
       d="M 56.71541,94.31848 C 55.95119,51.35939 37.58571,20.8178 0,0"
       style="fill:none;stroke:#000000;stroke-width:0.3985;stroke-linecap:butt;stroke-linejoin:miter;stroke-miterlimit:10;stroke-dasharray:none;stroke-opacity:1"
       transform="matrix(1.3333333,0,0,-1.3333333,11.242667,226.90533)" />
    <path
       id="path13"
       d="m 3.6563203,-3.9851406 h 0.8554688 c 0.1992187,0 0.3046875,0 0.3046875,-0.1992188 0,-0.1054687 -0.1054688,-0.1054687 -0.2695313,-0.1054687 H 3.7149141 l 0.2109375,-1.1367188 c 0.035156,-0.2109375 0.1757812,-0.9140625 0.234375,-1.0429687 0.09375,-0.1875 0.2578125,-0.3398438 0.46875,-0.3398438 0.046875,0 0.3046875,0 0.4921875,0.1875 -0.4335938,0.035156 -0.5390625,0.3867188 -0.5390625,0.5390625 0,0.2226563 0.1757812,0.3398438 0.3632812,0.3398438 0.2695313,0 0.5507813,-0.2109375 0.5507813,-0.5976563 0,-0.4570312 -0.4570313,-0.6796875 -0.8671875,-0.6796875 -0.3398438,0 -0.9609375,0.1757813 -1.265625,1.1601563 -0.058594,0.2109375 -0.082031,0.3164062 -0.328125,1.5703125 H 2.3555391 c -0.1992188,0 -0.3046875,0 -0.3046875,0.1875 0,0.1171875 0.09375,0.1171875 0.28125,0.1171875 h 0.65625 l -0.75,3.93749998 C 2.0625703,0.91329688 1.8985078,1.8273594 1.3711641,1.8273594 c -0.035156,0 -0.28125,0 -0.46875004,-0.1875 C 1.3594453,1.6164219 1.4414766,1.2531406 1.4414766,1.1007969 c 0,-0.22265627 -0.1757813,-0.33984377 -0.3632813,-0.33984377 -0.25781249,0 -0.55078124,0.2109375 -0.55078124,0.59765627 0,0.4453125 0.43359375,0.6796875 0.84375004,0.6796875 0.5507812,0 0.9492187,-0.5859375 1.125,-0.9609375 0.328125,-0.63281252 0.5507812,-1.83984377 0.5625,-1.91015627 z m 0,0"
       style="fill:#000000;fill-opacity:1;fill-rule:nonzero;stroke:none"
       aria-label="f"
       transform="matrix(1.3333333,0,0,1.3333333,63.496,167.82133)" />
    <path
       id="path14"
       d="m 61.38992,42.5202 c 0,2.59374 -2.10258,4.69632 -4.6963,4.69632 -2.59374,0 -4.69632,-2.10258 -4.69632,-4.69632 0,-2.59373 2.10258,-4.69632 4.69632,-4.69632 2.59372,0 4.6963,2.10259 4.6963,4.69632 z"
       style="fill:#000000;fill-opacity:1;fill-rule:nonzero;stroke:none"
       transform="matrix(1.3333333,0,0,-1.3333333,11.242667,226.90533)" />
    <path
       id="path15"
       d="m 3.3294219,-3.0115781 c 0.058594,-0.2578125 0.2929687,-1.171875 0.984375,-1.171875 0.046875,0 0.2929687,0 0.5039062,0.1289062 -0.28125,0.046875 -0.4804687,0.3046875 -0.4804687,0.5390625 0,0.1640625 0.1054687,0.3515625 0.375,0.3515625 0.2226562,0 0.5390625,-0.1875 0.5390625,-0.5859375 0,-0.515625 -0.5859375,-0.65625 -0.9257813,-0.65625 -0.5742187,0 -0.9257812,0.5273438 -1.0429687,0.7617188 -0.2578125,-0.65625 -0.7851563,-0.7617188 -1.078125,-0.7617188 -1.0429688,0 -1.60546877,1.2890625 -1.60546877,1.5351563 0,0.1054687 0.10546875,0.1054687 0.1171875,0.1054687 0.0820313,0 0.1171875,-0.023437 0.12890625,-0.1171875 0.33984372,-1.0546875 0.99609372,-1.3007812 1.33593752,-1.3007812 0.1875,0 0.5390625,0.09375 0.5390625,0.6679687 0,0.3046875 -0.1640625,0.9726563 -0.5390625,2.3671875 -0.1523438,0.62109378 -0.5039063,1.04296878 -0.9492188,1.04296878 -0.058594,0 -0.28124997,0 -0.49218747,-0.12890625 0.24609375,-0.0585938 0.46874997,-0.26953125 0.46874997,-0.5390625 0,-0.26953123 -0.22265622,-0.35156253 -0.37499997,-0.35156253 -0.29296875,0 -0.5390625,0.25781253 -0.5390625,0.57421878 0,0.45703125 0.4921875,0.65625 0.93749997,0.65625 0.65625,0 1.0078125,-0.69140625 1.0429688,-0.75 0.1171875,0.36328125 0.4804687,0.75 1.078125,0.75 1.0195312,0 1.59375,-1.27734378 1.59375,-1.53515628 0,-0.09375 -0.09375,-0.09375 -0.1289063,-0.09375 -0.082031,0 -0.1054687,0.035156 -0.1289062,0.1054688 -0.328125,1.06640623 -0.9960938,1.31249998 -1.3242188,1.31249998 -0.3867187,0 -0.5390625,-0.328125 -0.5390625,-0.65625 0,-0.22265625 0.058594,-0.44531248 0.1640625,-0.87890628 z m 0,0"
       style="fill:#000000;fill-opacity:1;fill-rule:nonzero;stroke:none"
       aria-label="x"
       transform="matrix(1.3333333,0,0,1.3333333,83.037333,158.992)" />
    <path
       id="path16"
       d="m 174.77716,99.21382 c 0,2.59374 -2.10258,4.69632 -4.6963,4.69632 -2.59374,0 -4.69632,-2.10258 -4.69632,-4.69632 0,-2.59373 2.10258,-4.69632 4.69632,-4.69632 2.59372,0 4.6963,2.10259 4.6963,4.69632 z"
       style="fill:#000000;fill-opacity:1;fill-rule:nonzero;stroke:none"
       transform="matrix(1.3333333,0,0,-1.3333333,11.242667,226.90533)" />
    <path
       id="path17"
       d="m 4.8394922,-3.7956406 c 0.046875,-0.140625 0.046875,-0.1523438 0.046875,-0.2226563 0,-0.1875 -0.140625,-0.2695312 -0.2929688,-0.2695312 -0.1054687,0 -0.2578125,0.058594 -0.3515625,0.1992187 -0.023437,0.058594 -0.09375,0.3632813 -0.140625,0.5390625 -0.070312,0.2578125 -0.140625,0.5273438 -0.1992187,0.796875 l -0.4453125,1.79296877 c -0.035156,0.15234375 -0.46875,0.85546875 -1.125,0.85546875 -0.5039063,0 -0.6210938,-0.4453125 -0.6210938,-0.80859375 0,-0.45703127 0.1757813,-1.07812497 0.515625,-1.95703127 0.1523438,-0.4101562 0.1992188,-0.515625 0.1992188,-0.7148437 0,-0.4453125 -0.328125,-0.8203125 -0.8203125,-0.8203125 -0.94921876,0 -1.31250001,1.453125 -1.31250001,1.5351562 0,0.1054688 0.09375,0.1054688 0.1171875,0.1054688 0.09375,0 0.10546875,-0.023437 0.15234375,-0.1875 0.26953125,-0.9375 0.66796876,-1.2304688 1.00781246,-1.2304688 0.082031,0 0.2578125,0 0.2578125,0.3164063 0,0.2460937 -0.1054687,0.515625 -0.1757812,0.703125 -0.3984375,1.0546875 -0.5742188,1.6171875 -0.5742188,2.0859375 0,0.89062497 0.6210938,1.18359372 1.21875,1.18359372 0.3867188,0 0.7265625,-0.1640625 0.9960938,-0.4453125 -0.1289063,0.515625 -0.2460938,1.0078125 -0.6445313,1.53515628 -0.2578125,0.3398437 -0.6328125,0.6328125 -1.0898437,0.6328125 -0.140625,0 -0.59765626,-0.035156 -0.76171876,-0.421875 0.1640625,0 0.29296876,0 0.43359376,-0.1171875 0.09375,-0.09375 0.1992187,-0.2226563 0.1992187,-0.41015628 0,-0.31640625 -0.2695312,-0.3515625 -0.375,-0.3515625 -0.22265621,0 -0.55078121,0.1640625 -0.55078121,0.64453128 0,0.5039062 0.43359375,0.8671875 1.05468751,0.8671875 1.0195312,0 2.0507812,-0.9023438 2.3320312,-2.02734378 z m 0,0"
       style="fill:#000000;fill-opacity:1;fill-rule:nonzero;stroke:none"
       aria-label="y"
       transform="matrix(1.3333333,0,0,1.3333333,234.52,80.818667)" />
    <path
       id="path18"
       d="M 0,0 C 0,0 0,0 0,0"
       style="fill:none;stroke:#000000;stroke-width:0.3985;stroke-linecap:butt;stroke-linejoin:miter;stroke-miterlimit:10;stroke-dasharray:none;stroke-opacity:1"
       transform="matrix(1.3333333,0,0,-1.3333333,11.242667,226.90533)" />
    <path
       id="path19"
       d="m 3.6572578,-3.9846953 h 0.8554688 c 0.1992187,0 0.3046875,0 0.3046875,-0.1992188 0,-0.1054687 -0.1054688,-0.1054687 -0.2695313,-0.1054687 H 3.7158516 l 0.2109375,-1.1367188 c 0.035156,-0.2109375 0.1757812,-0.9140625 0.234375,-1.0429687 0.09375,-0.1875 0.2578125,-0.3398438 0.46875,-0.3398438 0.046875,0 0.3046875,0 0.4921875,0.1875 -0.4335938,0.035156 -0.5390625,0.3867188 -0.5390625,0.5390625 0,0.2226563 0.1757812,0.3398438 0.3632812,0.3398438 0.2695313,0 0.5507813,-0.2109375 0.5507813,-0.5976563 0,-0.4570312 -0.4570313,-0.6796875 -0.8671875,-0.6796875 -0.3398438,0 -0.9609375,0.1757813 -1.265625,1.1601563 -0.058594,0.2109375 -0.082031,0.3164062 -0.328125,1.5703125 H 2.3564766 c -0.1992188,0 -0.3046875,0 -0.3046875,0.1875 0,0.1171875 0.09375,0.1171875 0.28125,0.1171875 h 0.65625 l -0.75,3.93749999 C 2.0635078,0.91374219 1.8994453,1.8278047 1.3721016,1.8278047 c -0.035156,0 -0.28125,0 -0.46875004,-0.1875 C 1.3603828,1.6168672 1.4424141,1.2535859 1.4424141,1.1012422 c 0,-0.22265626 -0.1757813,-0.33984376 -0.3632813,-0.33984376 -0.25781249,0 -0.55078124,0.2109375 -0.55078124,0.59765626 0,0.4453125 0.43359375,0.6796875 0.84375004,0.6796875 0.5507812,0 0.9492187,-0.5859375 1.125,-0.9609375 0.328125,-0.63281251 0.5507812,-1.83984376 0.5625,-1.91015626 z m 0,0"
       style="fill:#000000;fill-opacity:1;fill-rule:nonzero;stroke:none"
       aria-label="f"
       transform="matrix(1.3333333,0,0,1.3333333,7.276,219.62933)" />
  </g>
</svg>
