<?xml version="1.0" encoding="UTF-8" standalone="no"?>
<!-- Created with Inkscape (http://www.inkscape.org/) -->

<svg
   version="1.1"
   id="svg1"
   width="302.61835"
   height="302.61835"
   viewBox="0 0 302.61835 302.61835"
   xmlns="http://www.w3.org/2000/svg"
   xmlns:svg="http://www.w3.org/2000/svg">
  <defs
     id="defs1" />
  <g
     id="g1"
     transform="translate(-5.000015e-4,-0.00916423)">
    <path
       id="path1"
       d="M 0,0 H 226.77448 M 0,28.3468 H 226.77448 M 0,56.69362 H 226.77448 M 0,85.04042 H 226.77448 M 0,113.38724 H 226.77448 M 0,141.73404 H 226.77448 M 0,170.08086 H 226.77448 M 0,198.42766 H 226.77448 M 0,226.76451 H 226.77448 M 0,0 V 226.77448 M 28.3468,0 V 226.77448 M 56.69362,0 V 226.77448 M 85.04042,0 V 226.77448 M 113.38724,0 V 226.77448 M 141.73404,0 V 226.77448 M 170.08086,0 V 226.77448 M 198.42766,0 V 226.77448 M 226.76451,0 v 226.77448"
       style="fill:none;stroke:#808080;stroke-width:0.19925;stroke-linecap:butt;stroke-linejoin:miter;stroke-miterlimit:10;stroke-dasharray:none;stroke-opacity:1"
       transform="matrix(1.3333333,0,0,-1.3333333,0.13333333,302.49467)" />
    <path
       id="path2"
       d="m 25.02623,81.71985 h 6.64113 v 6.64113 h -6.64113 z"
       style="fill:none;stroke:#000000;stroke-width:0.3985;stroke-linecap:butt;stroke-linejoin:miter;stroke-miterlimit:10;stroke-dasharray:none;stroke-opacity:1"
       transform="matrix(1.3333333,0,0,-1.3333333,0.13333333,302.49467)" />
    <path
       id="path3"
       d="m 61.38992,28.3468 c 0,2.59374 -2.10258,4.69632 -4.6963,4.69632 -2.59374,0 -4.69632,-2.10258 -4.69632,-4.69632 0,-2.59373 2.10258,-4.69632 4.69632,-4.69632 2.59372,0 4.6963,2.10259 4.6963,4.69632 z"
       style="fill:#000000;fill-opacity:1;fill-rule:nonzero;stroke:none"
       transform="matrix(1.3333333,0,0,-1.3333333,0.13333333,302.49467)" />
    <path
       id="path4"
       d="m 1.7123047,-3.7496484 v -3.1640625 l -1.42968751,0.1054687 v 0.3164063 c 0.69140625,0 0.77343751,0.070312 0.77343751,0.5507812 V 3.515625e-4 H 1.3021484 C 1.3138672,-0.01136719 1.3958984,-0.15199219 1.6654297,-0.62074219 c 0.1523437,0.234375 0.5625,0.7265625 1.3007812,0.7265625 1.1835938,0 2.2265625,-0.97265625 2.2265625,-2.26171871 0,-1.265625 -0.9726562,-2.25 -2.109375,-2.25 -0.7851562,0 -1.2070312,0.46875 -1.3710937,0.65625 z m 0.035156,2.6132812 v -2.0507812 c 0,-0.1875 0,-0.1992188 0.1054688,-0.3632813 0.3867187,-0.5507812 0.9375,-0.6328125 1.171875,-0.6328125 0.4570312,0 0.8085937,0.2578125 1.0546875,0.6328125 0.2578125,0.4101563 0.28125,0.984375 0.28125,1.3945313 0,0.3632812 -0.011719,0.9609375 -0.3046875,1.40624996 -0.2109375,0.31640625 -0.5859375,0.64453125 -1.125,0.64453125 -0.4453125,0 -0.8085938,-0.24609375 -1.0429688,-0.609375 -0.140625,-0.2109375 -0.140625,-0.24609375 -0.140625,-0.42187501 z m 0,0"
       style="fill:#000000;fill-opacity:1;fill-rule:nonzero;stroke:none"
       aria-label="b"
       transform="matrix(1.3333333,0,0,1.3333333,72.033333,253.48)" />
    <path
       id="path5"
       d="m 94.66559,56.69362 c 0,5.31588 -4.30928,9.62515 -9.62517,9.62515 -5.31589,0 -9.62517,-4.30927 -9.62517,-9.62515 0,-5.3159 4.30928,-9.62517 9.62517,-9.62517 5.31589,0 9.62517,4.30927 9.62517,9.62517 z"
       style="fill:none;stroke:#000000;stroke-width:0.3985;stroke-linecap:butt;stroke-linejoin:miter;stroke-miterlimit:10;stroke-dasharray:none;stroke-opacity:1"
       transform="matrix(1.3333333,0,0,-1.3333333,0.13333333,302.49467)" />
    <path
       id="path6"
       d="m 0.56349219,-3.4111016 c 0,2.0625 1.60546871,3.63281254 3.45703121,3.63281254 1.6289063,0 2.6015625,-1.38281254 2.6015625,-2.54296874 0,-0.1054688 0,-0.1757813 -0.1289062,-0.1757813 -0.1054688,0 -0.1054688,0.070312 -0.1171875,0.1640625 -0.082031,1.42968754 -1.1484375,2.23828129 -2.2265625,2.23828129 -0.609375,0 -2.5664063,-0.33984375 -2.5664063,-3.30468749 0,-2.9765625 1.9453125,-3.3164063 2.5546875,-3.3164063 1.078125,0 1.96875,0.9023438 2.1679688,2.3671875 0.023437,0.1289063 0.023437,0.1640625 0.1640625,0.1640625 0.1523437,0 0.1523437,-0.035156 0.1523437,-0.234375 v -2.3671875 c 0,-0.1640625 0,-0.234375 -0.1054687,-0.234375 -0.035156,0 -0.082031,0 -0.1640625,0.1171875 l -0.4921875,0.7382813 c -0.375,-0.3632813 -0.8789063,-0.8554688 -1.8398438,-0.8554688 -1.8632812,0 -3.45703121,1.5820313 -3.45703121,3.609375 z m 0,0"
       style="fill:#000000;fill-opacity:1;fill-rule:nonzero;stroke:none"
       aria-label="C"
       transform="matrix(1.3333333,0,0,1.3333333,108.72133,231.44267)" />
    <path
       id="path7"
       d="m 110.06667,110.06667 h 6.64113 v 6.64113 h -6.64113 z"
       style="fill:#ff8000;fill-opacity:1;fill-rule:nonzero;stroke:#000000;stroke-width:0.3985;stroke-linecap:butt;stroke-linejoin:miter;stroke-miterlimit:10;stroke-dasharray:none;stroke-opacity:1"
       transform="matrix(1.3333333,0,0,-1.3333333,0.13333333,302.49467)" />
    <path
       id="path8"
       d="m 3.7859063,-0.54951562 v 0.65625 L 5.25075,0.00126563 v -0.3046875 c -0.703125,0 -0.7734375,-0.0703125 -0.7734375,-0.5625 V -6.9127969 l -1.4414062,0.1054688 v 0.3164062 c 0.703125,0 0.7851562,0.070312 0.7851562,0.5507813 v 2.15625 C 3.5280938,-4.1471719 3.0945,-4.4049844 2.5554375,-4.4049844 c -1.171875,0 -2.21484375,0.984375 -2.21484375,2.2617188 0,1.26562498 0.97265625,2.24999998 2.10937505,2.24999998 0.6445312,0 1.0898437,-0.33984375 1.3359375,-0.65625 z m 0,-2.67187498 v 2.0507812 c 0,0.17578128 0,0.19921878 -0.1054688,0.36328128 -0.3046875,0.48046875 -0.75,0.703125 -1.1835937,0.703125 -0.4453125,0 -0.796875,-0.2578125 -1.0429688,-0.64453125 C 1.1960625,-1.1588906 1.1609063,-1.7213906 1.1609063,-2.1315469 c 0,-0.3632812 0.023437,-0.9609375 0.3164062,-1.4179687 0.2109375,-0.3046875 0.5859375,-0.6328125 1.125,-0.6328125 0.3515625,0 0.7617188,0.1523437 1.078125,0.5976562 0.1054688,0.1640625 0.1054688,0.1875 0.1054688,0.3632813 z m 0,0"
       style="fill:#000000;fill-opacity:1;fill-rule:nonzero;stroke:none"
       aria-label="d"
       transform="matrix(1.3333333,0,0,1.3333333,147.624,141.928)" />
    <path
       id="path9"
       d="m 191.34096,113.38724 c 0,23.48355 -9.51833,42.52022 -21.2601,42.52022 -11.74179,0 -21.2601,-19.03667 -21.2601,-42.52022 0,-23.48357 9.51831,-42.52024 21.2601,-42.52024 11.74177,0 21.2601,19.03667 21.2601,42.52024 z"
       style="fill:none;stroke:#000000;stroke-width:0.79701;stroke-linecap:butt;stroke-linejoin:miter;stroke-miterlimit:10;stroke-dasharray:none;stroke-opacity:1"
       transform="matrix(1.3333333,0,0,-1.3333333,0.13333333,302.49467)" />
    <path
       id="path10"
       d="m 2.2272813,-3.5159531 v -2.578125 c 0,-0.234375 0,-0.3515625 0.2226562,-0.3867188 0.1054688,-0.011719 0.3867188,-0.011719 0.5859375,-0.011719 0.9023438,0 2.015625,0.035156 2.015625,1.4765625 0,0.6914062 -0.234375,1.5 -1.7109375,1.5 z m 2.109375,0.1289062 c 0.9609375,-0.234375 1.7460937,-0.84375 1.7460937,-1.6289062 0,-0.9492188 -1.1367187,-1.7929688 -2.6015625,-1.7929688 H 0.35228125 v 0.3164063 h 0.234375 c 0.77343755,0 0.78515625,0.1054687 0.78515625,0.46875 v 5.24999997 c 0,0.3515625 -0.011719,0.46875 -0.78515625,0.46875 h -0.234375 V -3.28125e-4 C 0.70384375,-0.03548438 1.4186875,-0.03548438 1.8054063,-0.03548438 c 0.3867187,0 1.0898437,0 1.453125,0.035156255 V -0.30501563 h -0.234375 c -0.7734375,0 -0.796875,-0.1171875 -0.796875,-0.46875 V -3.2932969 h 1.1484375 c 0.1640625,0 0.5742187,0 0.9257812,0.3398438 0.3867188,0.3515625 0.3867188,0.65625 0.3867188,1.3242187 0,0.65625002 0,1.05468752 0.3984375,1.42968752 0.4101562,0.36328125 0.9609375,0.421875 1.2539062,0.421875 0.7851563,0 0.9492188,-0.8203125 0.9492188,-1.1015625 0,-0.0585938 0,-0.16406252 -0.1289063,-0.16406252 -0.1054687,0 -0.1054687,0.0820313 -0.1171875,0.15234377 -0.058594,0.71484375 -0.4101562,0.890625005 -0.65625,0.890625005 -0.4921875,0 -0.5742187,-0.503906255 -0.703125,-1.429687475 l -0.140625,-0.796875 C 5.3679063,-2.8714219 4.8874375,-3.1995469 4.3366563,-3.3870469 Z m 0,0"
       style="fill:#000000;fill-opacity:1;fill-rule:nonzero;stroke:none"
       aria-label="R"
       transform="matrix(1.3333333,0,0,1.3333333,222.01467,155.852)" />
    <path
       id="path11"
       d="m 1.114125,-2.5069844 c 0.058594,-1.4882812 0.9023438,-1.734375 1.2421875,-1.734375 1.0195313,0 1.125,1.3476563 1.125,1.734375 z m -0.011719,0.2109375 h 2.7890625 c 0.2109375,0 0.2460937,0 0.2460937,-0.2109375 0,-0.984375 -0.5390625,-1.9570312 -1.78125,-1.9570312 -1.1601562,0 -2.07421875,1.03125 -2.07421875,2.2734375 0,1.33593747 1.04296875,2.29687497 2.19140625,2.29687497 1.21875,0 1.6640625,-1.1015625 1.6640625,-1.28906247 0,-0.1054688 -0.082031,-0.1171875 -0.1289062,-0.1171875 -0.09375,0 -0.1171875,0.058594 -0.1289063,0.140625 -0.3515625,1.01953122 -1.2539062,1.01953122 -1.3476562,1.01953122 -0.5039063,0 -0.9023438,-0.29296875 -1.125,-0.66796875 C 1.1024063,-1.2882344 1.1024063,-1.9444844 1.102406,-2.2960469 Z m 0,0"
       style="fill:#000000;fill-opacity:1;fill-rule:nonzero;stroke:none"
       aria-label="e"
       transform="matrix(1.3333333,0,0,1.3333333,223.952,89.397333)" />
    <path
       id="path12"
       d="M 60.1553,31.80849 77.76947,49.42265"
       style="fill:none;stroke:#000000;stroke-width:0.3985;stroke-linecap:butt;stroke-linejoin:miter;stroke-miterlimit:10;stroke-dasharray:none;stroke-opacity:1"
       transform="matrix(1.3333333,0,0,-1.3333333,0.13333333,302.49467)" />
    <path
       id="path13"
       d="M -1.19551,1.59401 C -1.09587,0.99626 0,0.09961 0.29886,0 0,-0.09961 -1.09587,-0.99626 -1.19551,-1.59401"
       style="fill:none;stroke:#000000;stroke-width:0.31879;stroke-linecap:round;stroke-linejoin:round;stroke-miterlimit:10;stroke-dasharray:none;stroke-opacity:1"
       transform="matrix(0.9428,-0.9428,-0.9428,-0.9428,103.82596,236.5978)" />
    <path
       id="path14"
       d="m 89.43393,65.48036 21.98949,43.97719"
       style="fill:none;stroke:#000000;stroke-width:0.3985;stroke-linecap:butt;stroke-linejoin:miter;stroke-miterlimit:10;stroke-dasharray:none;stroke-opacity:1"
       transform="matrix(1.3333333,0,0,-1.3333333,0.13333333,302.49467)" />
    <path
       id="path15"
       d="M -1.19551,1.59401 C -1.09587,0.99626 0,0.09961 0.29886,0 0,-0.09961 -1.09587,-0.99626 -1.19551,-1.59401"
       style="fill:none;stroke:#000000;stroke-width:0.31879;stroke-linecap:round;stroke-linejoin:round;stroke-miterlimit:10;stroke-dasharray:none;stroke-opacity:1"
       transform="matrix(0.59626667,-1.1925067,-1.1925067,-0.59626667,148.69789,156.55129)" />
    <path
       id="path16"
       d="m 1.6285781,-4.5466953 c -0.46875,-0.3046875 -0.5039062,-0.6445313 -0.5039062,-0.8085938 0,-0.609375 0.6445312,-1.03125 1.359375,-1.03125 0.7265625,0 1.359375,0.515625 1.359375,1.2421875 0,0.5625 -0.3867188,1.0429688 -0.984375,1.3945313 z m 1.453125,0.9375 c 0.7148438,-0.3632813 1.2070313,-0.8789063 1.2070313,-1.5351563 0,-0.9257812 -0.890625,-1.4882812 -1.7929688,-1.4882812 -0.9960937,0 -1.80468747,0.7382812 -1.80468747,1.6640625 0,0.1757812 0.0117188,0.6210937 0.43359377,1.0898437 0.1054687,0.1289063 0.4804687,0.375 0.7265625,0.5390625 -0.5742188,0.2929688 -1.42968752,0.84375 -1.42968752,1.8398438 0,1.05468749 1.00781252,1.72265624 2.06250002,1.72265624 1.125,0 2.0625,-0.83203125 2.0625,-1.89843754 0,-0.3515625 -0.1054688,-0.8085937 -0.4804688,-1.21875 -0.1875,-0.2109375 -0.3515625,-0.3164062 -0.984375,-0.7148437 z m -0.9960937,0.421875 1.21875,0.7734375 c 0.28125,0.1875 0.75,0.4921875 0.75,1.1015625 0,0.73828124 -0.75,1.25390624 -1.5585938,1.25390624 -0.8671875,0 -1.58203122,-0.62109375 -1.58203122,-1.44140624 0,-0.5859375 0.31640622,-1.21875 1.17187502,-1.6875 z m 0,0"
       style="fill:#000000;fill-opacity:1;fill-rule:nonzero;stroke:none"
       aria-label="8"
       transform="matrix(1.3333333,0,0,1.3333333,130.852,189.87867)" />
    <path
       id="path17"
       d="m 116.90706,111.35637 c 9.01321,-9.70601 19.46847,-12.92584 31.934,-10.07537"
       style="fill:none;stroke:#000000;stroke-width:0.3985;stroke-linecap:butt;stroke-linejoin:miter;stroke-miterlimit:10;stroke-dasharray:none;stroke-opacity:1"
       transform="matrix(1.3333333,0,0,-1.3333333,0.13333333,302.49467)" />
    <path
       id="path18"
       d="M -1.19551,1.59401 C -1.09587,0.99626 0,0.09961 0.29886,0 0,-0.09961 -1.09587,-0.99626 -1.19551,-1.59401"
       style="fill:none;stroke:#000000;stroke-width:0.31879;stroke-linecap:round;stroke-linejoin:round;stroke-miterlimit:10;stroke-dasharray:none;stroke-opacity:1"
       transform="matrix(1.2997467,-0.29718667,-0.29718667,-1.2997467,198.58807,167.45333)" />
  </g>
</svg>
