<?xml version="1.0" encoding="UTF-8" standalone="no"?>
<!-- Created with Inkscape (http://www.inkscape.org/) -->

<svg
   version="1.1"
   id="svg1"
   width="231.45178"
   height="193.63739"
   viewBox="0 0 231.45178 193.63739"
   xmlns="http://www.w3.org/2000/svg"
   xmlns:svg="http://www.w3.org/2000/svg">
  <defs
     id="defs1" />
  <g
     id="g1"
     transform="translate(-4.8515625,-0.01104806)">
    <path
       id="path1"
       d="M 0,0 H 170.08086 M 0,28.3468 H 170.08086 M 0,56.69362 H 170.08086 M 0,85.04042 H 170.08086 M 0,113.38724 H 170.08086 M 0,141.72409 H 170.08086 M 0,0 V 141.73404 M 28.3468,0 V 141.73404 M 56.69362,0 V 141.73404 M 85.04042,0 V 141.73404 M 113.38724,0 V 141.73404 M 141.73404,0 V 141.73404 M 170.07089,0 v 141.73404"
       style="fill:none;stroke:#808080;stroke-width:0.19925;stroke-linecap:butt;stroke-linejoin:miter;stroke-miterlimit:10;stroke-dasharray:none;stroke-opacity:1"
       transform="matrix(1.3333333,0,0,-1.3333333,9.4093333,189.10933)" />
    <path
       id="path2"
       d="m 3.9622031,-6.9361719 c -0.046875,-0.1289062 -0.070312,-0.1992187 -0.2226562,-0.1992187 -0.1640625,0 -0.1875,0.058594 -0.2460938,0.1992187 l -2.0625,5.96484377 c -0.1757812,0.50390625 -0.57421872,0.65625 -1.11328122,0.66796875 v 0.3046875 c 0.234375,-0.01171875 0.65625,-0.03515625 1.01953122,-0.03515625 0.3046875,0 0.8203125,0.0234375 1.1484375,0.03515625 v -0.3046875 c -0.5039062,0 -0.75,-0.2578125 -0.75,-0.515625 0,-0.0234375 0.011719,-0.12890625 0.023437,-0.140625 L 2.2161094,-2.2721094 h 2.4609375 l 0.5273437,1.52343752 c 0.011719,0.046875 0.023437,0.10546875 0.023437,0.140625 0,0.3046875 -0.5507812,0.3046875 -0.8203125,0.3046875 v 0.3046875 c 0.3515625,-0.03515625 1.0546875,-0.03515625 1.4296875,-0.03515625 0.4335938,0 0.890625,0.01171875 1.3007813,0.03515625 v -0.3046875 H 6.9622031 c -0.5976562,0 -0.7382812,-0.0703125 -0.84375,-0.3984375 z m -0.5273437,1.125 1.125,3.234375 H 2.3215781 Z m 0,0"
       style="fill:#000000;fill-opacity:1;fill-rule:nonzero;stroke:none"
       aria-label="A"
       transform="matrix(1.3333333,0,0,1.3333333,4.428,193.64667)" />
  </g>
</svg>
