<?xml version="1.0" encoding="UTF-8" standalone="no"?>
<!-- Created with Inkscape (http://www.inkscape.org/) -->

<svg
   version="1.1"
   id="svg1"
   width="53.86512"
   height="115.29889"
   viewBox="0 0 53.86512 115.29889"
   xmlns="http://www.w3.org/2000/svg"
   xmlns:svg="http://www.w3.org/2000/svg">
  <defs
     id="defs1" />
  <g
     id="g1"
     transform="translate(-5.0606175e-4,0.00245316)">
    <path
       id="path1"
       d="m 48.54622,85.04042 c 0,11.15598 -9.04344,20.19942 -20.19942,20.19942 -11.15597,0 -20.19942,-9.04344 -20.19942,-20.19942 0,-11.15597 9.04345,-20.19942 20.19942,-20.19942 11.15598,0 20.19942,9.04345 20.19942,20.19942 z"
       style="fill:#000000;fill-opacity:1;fill-rule:nonzero;stroke:none"
       transform="matrix(1.3333333,0,0,-1.3333333,-10.862667,140.31733)" />
    <path
       id="path2"
       d="m 1.1003906,-3.4226484 v 2.66015621 c 0,0.45703125 -0.11718748,0.45703125 -0.78515623,0.45703125 V -7.734375e-4 C 0.66679687,-0.01249219 1.1707031,-0.03592969 1.4402344,-0.03592969 c 0.2578125,0 0.7851562,0.0234375 1.1132812,0.0351562525 V -0.30546094 c -0.65625,0 -0.7734375,0 -0.7734375,-0.45703125 V -2.5906172 c 0,-1.03125 0.7148438,-1.59375 1.3476563,-1.59375 0.6210937,0 0.7382812,0.5390625 0.7382812,1.1015625 v 2.32031251 c 0,0.45703125 -0.1171875,0.45703125 -0.7734375,0.45703125 v 0.3046875025 c 0.3398438,-0.0117187525 0.8554688,-0.0351562525 1.125,-0.0351562525 0.2578125,0 0.7734375,0.0234375 1.1132813,0.0351562525 V -0.30546094 c -0.515625,0 -0.7734375,0 -0.7851563,-0.3046875 V -2.5085859 c 0,-0.8554688 0,-1.171875 -0.3046875,-1.5234375 -0.140625,-0.1757813 -0.46875,-0.375 -1.0429687,-0.375 -0.7265625,0 -1.1953125,0.4335937 -1.4765625,1.0546875 v -1.0546875 l -1.40625003,0.1171875 v 0.3046875 c 0.70312503,0 0.78515623,0.070312 0.78515623,0.5625 z m 9.1230464,1.2890625 c 0,-1.2773438 -0.9960933,-2.3320313 -2.1914058,-2.3320313 -1.2539062,0 -2.2148437,1.0898438 -2.2148437,2.3320313 0,1.28906246 1.03125,2.23828121 2.203125,2.23828121 1.2070312,0 2.2031245,-0.97265625 2.2031245,-2.23828121 z m -2.1914058,1.99218746 c -0.4335937,0 -0.8671875,-0.2109375 -1.1367187,-0.66796875 C 6.6375,-1.2429609 6.6375,-1.8523359 6.6375,-2.2156172 c 0,-0.3867187 0,-0.9257812 0.2460937,-1.359375 0.2695313,-0.4570312 0.7382813,-0.6679687 1.1367188,-0.6679687 0.4335937,0 0.8671875,0.2226562 1.125,0.6445312 0.2578125,0.4335938 0.2578125,1.0078125 0.2578125,1.3828125 0,0.3632813 0,0.9023438 -0.2226563,1.33593751 -0.2226562,0.4453125 -0.65625,0.73828125 -1.1484375,0.73828125 z m 6.5478518,-0.41015625 v 0.65625 L 16.044727,-7.734375e-4 V -0.30546094 c -0.703125,0 -0.773438,-0.0703125 -0.773438,-0.5625 V -6.9148359 l -1.441406,0.1054687 v 0.3164063 c 0.703125,0 0.785156,0.070312 0.785156,0.5507812 v 2.15625 c -0.292969,-0.3632812 -0.726562,-0.6210937 -1.265625,-0.6210937 -1.171875,0 -2.214844,0.984375 -2.214844,2.2617187 0,1.26562501 0.972657,2.25000001 2.109375,2.25000001 0.644532,0 1.089844,-0.33984375 1.335938,-0.65625 z m 0,-2.67187501 v 2.0507813 c 0,0.17578121 0,0.19921871 -0.105469,0.36328121 -0.304687,0.48046875 -0.75,0.703125 -1.183594,0.703125 -0.445312,0 -0.796875,-0.2578125 -1.042968,-0.64453125 -0.257813,-0.41015626 -0.292969,-0.97265626 -0.292969,-1.38281246 0,-0.3632813 0.02344,-0.9609375 0.316406,-1.4179688 0.210938,-0.3046875 0.585938,-0.6328125 1.125,-0.6328125 0.351563,0 0.761719,0.1523438 1.078125,0.5976563 0.105469,0.1640625 0.105469,0.1875 0.105469,0.3632812 z m 2.865234,0.7148438 c 0.05859,-1.4882813 0.902344,-1.734375 1.242188,-1.734375 1.019531,0 1.125,1.3476562 1.125,1.734375 z m -0.01172,0.2109375 h 2.789063 c 0.210937,0 0.246094,0 0.246094,-0.2109375 0,-0.984375 -0.539063,-1.9570313 -1.78125,-1.9570313 -1.160157,0 -2.074219,1.03125 -2.074219,2.2734375 0,1.33593751 1.042969,2.29687501 2.191406,2.29687501 1.21875,0 1.664063,-1.1015625 1.664063,-1.28906251 0,-0.1054687 -0.08203,-0.1171875 -0.128907,-0.1171875 -0.09375,0 -0.117187,0.058594 -0.128906,0.140625 -0.351562,1.01953126 -1.253906,1.01953126 -1.347656,1.01953126 -0.503906,0 -0.902344,-0.29296875 -1.125,-0.66796875 C 17.433398,-1.2898359 17.433398,-1.9460859 17.433398,-2.2976484 Z m 10.602539,-4.640625 c -0.04687,-0.1289063 -0.07031,-0.1992188 -0.222656,-0.1992188 -0.164062,0 -0.1875,0.058594 -0.246094,0.1992188 l -2.0625,5.96484371 c -0.175781,0.50390625 -0.574218,0.65625 -1.113281,0.66796875 V -7.734375e-4 C 24.62578,-0.01249219 25.047655,-0.03592969 25.410936,-0.03592969 c 0.304688,0 0.820313,0.0234375 1.148438,0.0351562525 V -0.30546094 c -0.503906,0 -0.75,-0.2578125 -0.75,-0.515625 0,-0.0234375 0.01172,-0.12890625 0.02344,-0.140625 l 0.457032,-1.31249996 h 2.460937 l 0.527344,1.52343746 c 0.01172,0.046875 0.02344,0.10546875 0.02344,0.140625 0,0.3046875 -0.550781,0.3046875 -0.820312,0.3046875 V -7.734375e-4 C 28.832812,-0.03592969 29.535937,-0.03592969 29.910937,-0.03592969 c 0.433594,0 0.890625,0.01171875 1.300782,0.0351562525 V -0.30546094 h -0.175782 c -0.597656,0 -0.738281,-0.0703125 -0.84375,-0.3984375 z m -0.527343,1.125 1.125,3.234375 h -2.238282 z m 0,0"
       style="fill:#000000;fill-opacity:1;fill-rule:nonzero;stroke:none"
       aria-label="nodeA"
       transform="matrix(1.3333333,0,0,1.3333333,5.9,31.544)" />
    <path
       id="path3"
       d="m 37.92793,28.3468 c 0,5.29158 -4.28955,9.58113 -9.58113,9.58113 -5.29158,0 -9.58113,-4.28955 -9.58113,-9.58113 0,-5.29158 4.28955,-9.58113 9.58113,-9.58113 5.29158,0 9.58113,4.28955 9.58113,9.58113 z"
       style="fill:#000000;fill-opacity:1;fill-rule:nonzero;stroke:none"
       transform="matrix(1.3333333,0,0,-1.3333333,-10.862667,140.31733)" />
    <path
       id="path4"
       d="M 2.2137656,-3.6436562 V -6.092875 c 0,-0.328125 0.011719,-0.3984375 0.4804688,-0.3984375 h 1.2421875 c 0.9609375,0 1.3125,0.84375 1.3125,1.3710938 0,0.6328125 -0.4921875,1.4765625 -1.59375,1.4765625 z m 2.34375,0.09375 c 0.9726563,-0.1992188 1.6523438,-0.8320313 1.6523438,-1.5703125 0,-0.8671875 -0.9140625,-1.6875 -2.203125,-1.6875 H 0.36220313 v 0.3164062 h 0.234375 c 0.76171877,0 0.78515627,0.1054688 0.78515627,0.46875 v 5.25 c 0,0.3515625 -0.023437,0.46875 -0.78515627,0.46875 h -0.234375 V 8.75e-4 H 4.2645469 c 1.3242187,0 2.2148437,-0.890625 2.2148437,-1.828125 0,-0.8671875 -0.8085937,-1.6054687 -1.921875,-1.7226562 z m -0.609375,3.2460937 H 2.6942344 c -0.46875,0 -0.4804688,-0.0703125 -0.4804688,-0.3984375 V -3.421 h 1.875 c 0.984375,0 1.3945313,0.9257813 1.3945313,1.59375 0,0.703125 -0.515625,1.5234375 -1.5351563,1.5234375 z m 0,0"
       style="fill:#000000;fill-opacity:1;fill-rule:nonzero;stroke:none"
       aria-label="B"
       transform="matrix(1.3333333,0,0,1.3333333,22.228,107.06133)" />
  </g>
</svg>
