<?xml version="1.0" encoding="UTF-8" standalone="no"?>
<!-- Created with Inkscape (http://www.inkscape.org/) -->

<svg
   version="1.1"
   id="svg1"
   width="57.756279"
   height="133.34776"
   viewBox="0 0 57.756279 133.34776"
   xmlns="http://www.w3.org/2000/svg"
   xmlns:svg="http://www.w3.org/2000/svg">
  <defs
     id="defs1" />
  <g
     id="g1"
     transform="translate(-2.5980738e-4,0.00136311)">
    <path
       id="path1"
       d="m 49.6069,85.04042 c 0,11.74178 -9.51832,21.2601 -21.2601,21.2601 -11.74177,0 -21.2601,-9.51832 -21.2601,-21.2601 0,-11.74177 9.51833,-21.2601 21.2601,-21.2601 11.74178,0 21.2601,9.51833 21.2601,21.2601 z"
       style="fill:none;stroke:#000000;stroke-width:0.79701;stroke-linecap:butt;stroke-linejoin:miter;stroke-miterlimit:10;stroke-dasharray:none;stroke-opacity:1"
       transform="matrix(1.3333333,0,0,-1.3333333,-8.9173333,142.264)" />
    <path
       id="path2"
       d="m 1.100375,-3.4207344 v 2.66015627 c 0,0.45703125 -0.1171875,0.45703125 -0.78515625,0.45703125 v 0.3046875 c 0.3515625,-0.01171875 0.85546875,-0.03515625 1.12499995,-0.03515625 0.2578125,0 0.7851563,0.0234375 1.1132813,0.03515625 v -0.3046875 c -0.65625,0 -0.7734375,0 -0.7734375,-0.45703125 V -2.5887031 c 0,-1.03125 0.7148437,-1.59375 1.3476562,-1.59375 0.6210938,0 0.7382813,0.5390625 0.7382813,1.1015625 v 2.32031247 c 0,0.45703125 -0.1171875,0.45703125 -0.7734375,0.45703125 v 0.3046875 c 0.3398437,-0.01171875 0.8554687,-0.03515625 1.125,-0.03515625 0.2578125,0 0.7734375,0.0234375 1.1132812,0.03515625 v -0.3046875 c -0.515625,0 -0.7734375,0 -0.7851562,-0.3046875 V -2.5066719 c 0,-0.8554687 0,-1.171875 -0.3046875,-1.5234375 -0.140625,-0.1757812 -0.46875,-0.375 -1.0429688,-0.375 -0.7265625,0 -1.1953125,0.4335938 -1.4765625,1.0546875 v -1.0546875 l -1.40624995,0.1171875 v 0.3046875 c 0.70312495,0 0.78515625,0.070312 0.78515625,0.5625 z m 9.123047,1.2890625 c 0,-1.2773437 -0.9960939,-2.3320312 -2.1914064,-2.3320312 -1.2539062,0 -2.2148437,1.0898437 -2.2148437,2.3320312 0,1.28906252 1.03125,2.23828127 2.203125,2.23828127 1.2070312,0 2.2031251,-0.97265625 2.2031251,-2.23828127 z m -2.1914064,1.99218752 c -0.4335937,0 -0.8671875,-0.2109375 -1.1367187,-0.66796875 C 6.6374844,-1.2410469 6.6374844,-1.8504219 6.6374844,-2.2137031 c 0,-0.3867188 0,-0.9257813 0.2460937,-1.359375 0.2695313,-0.4570313 0.7382813,-0.6679688 1.1367188,-0.6679688 0.4335937,0 0.8671875,0.2226563 1.125,0.6445313 0.2578125,0.4335937 0.2578125,1.0078125 0.2578125,1.3828125 0,0.3632812 0,0.9023437 -0.2226563,1.33593747 -0.2226562,0.4453125 -0.65625,0.73828125 -1.1484375,0.73828125 z m 6.5478514,-0.41015625 v 0.65625 l 1.464844,-0.10546875 v -0.3046875 c -0.703125,0 -0.773438,-0.0703125 -0.773438,-0.5625 V -6.9129219 l -1.441406,0.1054688 v 0.3164062 c 0.703125,0 0.785156,0.070312 0.785156,0.5507813 v 2.15625 c -0.292968,-0.3632813 -0.726562,-0.6210938 -1.265625,-0.6210938 -1.171875,0 -2.214843,0.984375 -2.214843,2.2617188 0,1.26562497 0.972656,2.24999997 2.109375,2.24999997 0.644531,0 1.089843,-0.33984375 1.335937,-0.65625 z m 0,-2.67187497 v 2.0507812 c 0,0.17578127 0,0.19921877 -0.105469,0.36328127 -0.304687,0.48046875 -0.75,0.703125 -1.183593,0.703125 -0.445313,0 -0.796875,-0.2578125 -1.042969,-0.64453125 -0.257813,-0.41015622 -0.292969,-0.97265622 -0.292969,-1.38281252 0,-0.3632812 0.02344,-0.9609375 0.316406,-1.4179687 0.210938,-0.3046875 0.585938,-0.6328125 1.125,-0.6328125 0.351563,0 0.761719,0.1523437 1.078125,0.5976562 0.105469,0.1640625 0.105469,0.1875 0.105469,0.3632813 z m 2.865235,0.7148437 c 0.05859,-1.4882812 0.902343,-1.734375 1.242187,-1.734375 1.019531,0 1.125,1.3476563 1.125,1.734375 z m -0.01172,0.2109375 h 2.789062 c 0.210938,0 0.246094,0 0.246094,-0.2109375 0,-0.984375 -0.539062,-1.9570312 -1.78125,-1.9570312 -1.160156,0 -2.074219,1.03125 -2.074219,2.2734375 0,1.33593747 1.042969,2.29687497 2.191407,2.29687497 1.21875,0 1.664062,-1.1015625 1.664062,-1.28906247 0,-0.1054688 -0.08203,-0.1171875 -0.128906,-0.1171875 -0.09375,0 -0.117188,0.058594 -0.128906,0.140625 -0.351563,1.01953122 -1.253907,1.01953122 -1.347657,1.01953122 -0.503906,0 -0.902343,-0.29296875 -1.125,-0.66796875 C 17.433383,-1.2879219 17.433383,-1.9441719 17.433383,-2.2957344 Z m 10.602539,-4.640625 c -0.04687,-0.1289062 -0.07031,-0.1992187 -0.222656,-0.1992187 -0.164063,0 -0.1875,0.058594 -0.246094,0.1992187 l -2.0625,5.96484377 c -0.175781,0.50390625 -0.574219,0.65625 -1.113281,0.66796875 v 0.3046875 c 0.234375,-0.01171875 0.65625,-0.03515625 1.019531,-0.03515625 0.304687,0 0.820312,0.0234375 1.148437,0.03515625 v -0.3046875 c -0.503906,0 -0.75,-0.2578125 -0.75,-0.515625 0,-0.0234375 0.01172,-0.12890625 0.02344,-0.140625 l 0.457031,-1.31250002 h 2.460938 l 0.527343,1.52343752 c 0.01172,0.046875 0.02344,0.10546875 0.02344,0.140625 0,0.3046875 -0.550781,0.3046875 -0.820313,0.3046875 v 0.3046875 c 0.351563,-0.03515625 1.054688,-0.03515625 1.429688,-0.03515625 0.433594,0 0.890625,0.01171875 1.300781,0.03515625 v -0.3046875 h -0.175781 c -0.597656,0 -0.738281,-0.0703125 -0.84375,-0.3984375 z m -0.527344,1.125 1.125,3.234375 h -2.238281 z m 0,0"
       style="fill:#000000;fill-opacity:1;fill-rule:nonzero;stroke:none"
       aria-label="nodeA"
       transform="matrix(1.3333333,0,0,1.3333333,7.8453333,33.490667)" />
    <path
       id="path3"
       d="m 49.6069,28.3468 c 0,11.74178 -9.51832,21.2601 -21.2601,21.2601 -11.74177,0 -21.2601,-9.51832 -21.2601,-21.2601 0,-11.74177 9.51833,-21.2601 21.2601,-21.2601 11.74178,0 21.2601,9.51833 21.2601,21.2601 z"
       style="fill:none;stroke:#000000;stroke-width:0.79701;stroke-linecap:butt;stroke-linejoin:miter;stroke-miterlimit:10;stroke-dasharray:none;stroke-opacity:1"
       transform="matrix(1.3333333,0,0,-1.3333333,-8.9173333,142.264)" />
    <path
       id="path4"
       d="m 2.21375,-3.6446719 v -2.4492187 c 0,-0.328125 0.011719,-0.3984375 0.4804688,-0.3984375 h 1.2421875 c 0.9609375,0 1.3125,0.84375 1.3125,1.3710937 0,0.6328125 -0.4921875,1.4765625 -1.59375,1.4765625 z m 2.34375,0.09375 c 0.9726563,-0.1992187 1.6523438,-0.8320312 1.6523438,-1.5703125 0,-0.8671875 -0.9140625,-1.6875 -2.203125,-1.6875 H 0.3621875 v 0.3164063 h 0.234375 c 0.7617188,0 0.7851563,0.1054687 0.7851563,0.46875 v 5.24999997 c 0,0.3515625 -0.023437,0.46875 -0.7851563,0.46875 h -0.234375 v 0.304687505 h 3.9023438 c 1.3242187,0 2.2148437,-0.890625005 2.2148437,-1.828124975 0,-0.8671875 -0.8085937,-1.6054688 -1.921875,-1.7226563 z M 3.948125,-0.30482813 H 2.6942188 c -0.46875,0 -0.4804688,-0.0703125 -0.4804688,-0.3984375 V -3.4220156 h 1.875 c 0.984375,0 1.3945313,0.9257812 1.3945313,1.59375 0,0.703125 -0.515625,1.52343747 -1.5351563,1.52343747 z m 0,0"
       style="fill:#000000;fill-opacity:1;fill-rule:nonzero;stroke:none"
       aria-label="B"
       transform="matrix(1.3333333,0,0,1.3333333,24.173333,109.008)" />
  </g>
</svg>
