<?xml version="1.0" encoding="UTF-8" standalone="no"?>
<!-- Created with Inkscape (http://www.inkscape.org/) -->

<svg
   version="1.1"
   id="svg1"
   width="26.430613"
   height="26.430613"
   viewBox="0 0 26.430613 26.430613"
   xmlns="http://www.w3.org/2000/svg"
   xmlns:svg="http://www.w3.org/2000/svg">
  <defs
     id="defs1" />
  <g
     id="g1"
     transform="translate(6.3933326e-4,-6.9366674e-4)">
    <path
       id="path1"
       d="M 9.71223,0 C 9.71223,5.36398 5.36398,9.71223 0,9.71223 -5.36398,9.71223 -9.71223,5.36398 -9.71223,0 c 0,-5.36398 4.34825,-9.71223 9.71223,-9.71223 5.36398,0 9.71223,4.34825 9.71223,9.71223 z"
       style="fill:none;stroke:#000000;stroke-width:0.3985;stroke-linecap:butt;stroke-linejoin:miter;stroke-miterlimit:10;stroke-dasharray:none;stroke-opacity:1"
       transform="matrix(1.3333333,0,0,-1.3333333,13.214667,13.216)" />
    <path
       id="path2"
       d="m 3.9617187,-6.9380703 c -0.046875,-0.1289063 -0.070312,-0.1992188 -0.2226562,-0.1992188 -0.1640625,0 -0.1875,0.058594 -0.2460938,0.1992188 l -2.0625,5.96484374 c -0.1757812,0.50390625 -0.5742187,0.65625 -1.1132812,0.66796875 V -5.703125e-4 C 0.5515625,-0.01228906 0.9734375,-0.03572656 1.3367187,-0.03572656 c 0.3046875,0 0.8203125,0.0234375 1.1484375,0.0351562475 V -0.30525781 c -0.5039062,0 -0.75,-0.2578125 -0.75,-0.515625 0,-0.0234375 0.011719,-0.12890625 0.023437,-0.140625 L 2.215625,-2.2740078 h 2.4609375 l 0.5273437,1.52343749 c 0.011719,0.046875 0.023437,0.10546875 0.023437,0.140625 0,0.3046875 -0.5507812,0.3046875 -0.8203125,0.3046875 V -5.703125e-4 C 4.7585937,-0.03572656 5.4617187,-0.03572656 5.8367187,-0.03572656 c 0.4335938,0 0.890625,0.01171875 1.3007813,0.0351562475 V -0.30525781 H 6.9617187 c -0.5976562,0 -0.7382812,-0.0703125 -0.84375,-0.3984375 z m -0.5273437,1.125 1.125,3.234375 H 2.3210937 Z m 0,0"
       style="fill:#000000;fill-opacity:1;fill-rule:nonzero;stroke:none"
       aria-label="A"
       transform="matrix(1.3333333,0,0,1.3333333,8.2333333,17.754667)" />
  </g>
</svg>
