<?xml version="1.0" encoding="UTF-8" standalone="no"?>
<!-- Created with Inkscape (http://www.inkscape.org/) -->

<svg
   version="1.1"
   id="svg1"
   width="403.32175"
   height="171.14352"
   viewBox="0 0 403.32175 171.14353"
   xmlns="http://www.w3.org/2000/svg"
   xmlns:svg="http://www.w3.org/2000/svg">
  <defs
     id="defs1" />
  <g
     id="g1"
     transform="translate(-2.5980738e-4,0.00245217)">
    <path
       id="path1"
       d="m 49.6069,113.38724 c 0,11.74177 -9.51832,21.2601 -21.2601,21.2601 -11.74177,0 -21.2601,-9.51833 -21.2601,-21.2601 0,-11.74179 9.51833,-21.26012 21.2601,-21.26012 11.74178,0 21.2601,9.51833 21.2601,21.26012 z"
       style="fill:#99def9;fill-opacity:1;fill-rule:nonzero;stroke:#000000;stroke-width:0.79701;stroke-linecap:butt;stroke-linejoin:miter;stroke-miterlimit:10;stroke-dasharray:none;stroke-opacity:1"
       transform="matrix(1.3333333,0,0,-1.3333333,-8.9173333,180.05867)" />
    <path
       id="path2"
       d="m 1.1381719,-3.5496406 v 3.08203122 H 0.44676563 v 0.46875 c 0.28125,-0.01171875 0.87890627,-0.03515625 1.25390627,-0.03515625 0.3984375,0 0.984375,0.0234375 1.2539062,0.03515625 v -0.46875 H 2.2748906 V -2.5535469 c 0,-1.078125 0.8554688,-1.5703125 1.4765625,-1.5703125 0.3398438,0 0.5507813,0.2109375 0.5507813,0.9726563 v 2.68359372 H 3.6225469 v 0.46875 c 0.2695312,-0.01171875 0.8671875,-0.03515625 1.2539062,-0.03515625 0.3867188,0 0.9726563,0.0234375 1.2539063,0.03515625 v -0.46875 H 5.4389531 V -3.0457344 c 0,-1.0429687 -0.5390625,-1.4414062 -1.5351562,-1.4414062 -0.9492188,0 -1.4765625,0.5742187 -1.7460938,1.078125 v -1.078125 l -1.71093747,0.082031 v 0.46875 c 0.62109377,0 0.69140627,0 0.69140627,0.386719 z m 10.6289061,1.3828125 c 0,-1.3359375 -0.914062,-2.34375 -2.5429686,-2.34375 -1.6289063,0 -2.5429688,1.0195312 -2.5429688,2.34375 0,1.23046872 0.8789063,2.22656247 2.5429688,2.22656247 1.6757816,0 2.5429686,-1.0078125 2.5429686,-2.22656247 z m -2.5429686,1.82812497 c -1.265625,0 -1.265625,-1.07812497 -1.265625,-1.94531247 0,-0.4453125 0,-0.9492188 0.1640625,-1.2890625 0.1992187,-0.375 0.609375,-0.5742188 1.1015625,-0.5742188 0.421875,0 0.8320316,0.1523438 1.0546876,0.5039063 0.210937,0.3398437 0.210937,0.890625 0.210937,1.359375 0,0.8671875 0,1.94531247 -1.2656246,1.94531247 z m 7.3476566,-0.09375 v 0.4921875 l 1.828125,-0.05859375 v -0.46875 c -0.621094,0 -0.691407,0 -0.691407,-0.38671875 V -6.9129219 l -1.757812,0.082031 v 0.46875 c 0.609375,0 0.679687,0 0.679687,0.3867187 v 1.9453125 c -0.492187,-0.3867187 -1.007812,-0.4570312 -1.335937,-0.4570312 -1.453125,0 -2.507813,0.8789062 -2.507813,2.2851562 0,1.31250002 0.925782,2.26171877 2.390625,2.26171877 0.609375,0 1.089844,-0.234375 1.394532,-0.4921872 z m 0,-3.08203127 v 2.484375 c -0.128907,0.18750002 -0.539063,0.72656252 -1.289063,0.72656252 -1.21875,0 -1.21875,-1.19531252 -1.21875,-1.89843752 0,-0.4804687 0,-1.0195312 0.257813,-1.40625 0.292968,-0.4101562 0.761718,-0.515625 1.066406,-0.515625 0.574219,0 0.972656,0.3164063 1.183594,0.609375 z m 6.811523,1.3476563 c 0.210938,0 0.316406,0 0.316406,-0.2695313 0,-0.3164062 -0.05859,-1.0429687 -0.5625,-1.5351562 -0.363281,-0.3632813 -0.890625,-0.5390625 -1.582031,-0.5390625 -1.59375,0 -2.460937,1.0195312 -2.460937,2.2734375 0,1.33593747 0.996093,2.29687497 2.601562,2.29687497 1.570313,0 2.003906,-1.0546875 2.003906,-1.21874997 0,-0.1875 -0.1875,-0.1875 -0.234375,-0.1875 -0.175781,0 -0.199218,0.046875 -0.257812,0.2109375 -0.210938,0.48046872 -0.773438,0.79687497 -1.417969,0.79687497 -1.40625,0 -1.417969,-1.32421877 -1.417969,-1.82812497 z m -3.011719,-0.328125 c 0.02344,-0.3984375 0.03516,-0.8085938 0.234375,-1.1367188 0.269532,-0.3984375 0.667969,-0.515625 0.949219,-0.515625 1.171875,0 1.183594,1.3007813 1.195313,1.6523438 z m 8.378907,-4.1953125 c -0.105469,-0.2578125 -0.234375,-0.2578125 -0.398438,-0.2578125 -0.28125,0 -0.316406,0.070312 -0.386719,0.2578125 l -2.472656,5.98828122 c -0.05859,0.15234375 -0.09375,0.234375 -0.84375,0.234375 h -0.210937 v 0.46875 c 0.375,-0.01171875 0.855468,-0.03515625 1.160156,-0.03515625 0.386719,0 0.949219,0 1.324219,0.03515625 v -0.46875 c -0.02344,0 -0.890625,0 -0.890625,-0.12890625 0,-0.0117188 0.02344,-0.10546875 0.03516,-0.1171875 l 0.503906,-1.20703127 h 2.671875 l 0.597656,1.45312502 h -0.949218 v 0.46875 c 0.375,-0.03515625 1.324218,-0.03515625 1.746093,-0.03515625 0.398438,0 1.277344,0 1.628907,0.03515625 v -0.46875 h -0.960938 z m -0.84375,1.5351562 1.136718,2.765625 h -2.273437 z m 0,0"
       style="fill:#000000;fill-opacity:1;fill-rule:nonzero;stroke:none"
       aria-label="nodeA"
       transform="matrix(1.3333333,0,0,1.3333333,7.084,33.490667)" />
    <path
       id="path3"
       d="m 49.6069,28.3468 c 0,11.74178 -9.51832,21.2601 -21.2601,21.2601 -11.74177,0 -21.2601,-9.51832 -21.2601,-21.2601 0,-11.74177 9.51833,-21.2601 21.2601,-21.2601 11.74178,0 21.2601,9.51833 21.2601,21.2601 z"
       style="fill:#fffa99;fill-opacity:1;fill-rule:nonzero;stroke:#000000;stroke-width:0.79701;stroke-linecap:butt;stroke-linejoin:miter;stroke-miterlimit:10;stroke-dasharray:none;stroke-opacity:1"
       transform="matrix(1.3333333,0,0,-1.3333333,-8.9173333,180.05867)" />
    <path
       id="path4"
       d="m 2.7666094,-3.7380469 v -2.625 h 1.8164062 c 1.0078125,0 1.1835938,0.7851563 1.1835938,1.2421875 0,0.7734375 -0.4804688,1.3828125 -1.4414063,1.3828125 z m 2.6953125,0.1757813 c 1.078125,-0.1875 1.7226562,-0.7851563 1.7226562,-1.5585938 0,-0.9140625 -0.8671875,-1.7109375 -2.4726562,-1.7109375 H 0.38770312 v 0.46875 H 1.4658281 v 5.89453127 H 0.38770312 V 2.34375e-4 H 5.0166094 c 1.6523437,0 2.484375,-0.878906255 2.484375,-1.851562475 0,-0.9609375 -0.8554688,-1.6289063 -2.0390625,-1.7109375 z M 4.6064531,-0.46851563 H 2.7666094 V -3.3747656 h 1.9335937 c 0.1992188,0 0.6679688,0 1.0078125,0.421875 0.328125,0.421875 0.328125,0.984375 0.328125,1.0898437 0,0.1171875 0,1.39453127 -1.4296875,1.39453127 z m 0,0"
       style="fill:#000000;fill-opacity:1;fill-rule:nonzero;stroke:none"
       aria-label="B"
       transform="matrix(1.3333333,0,0,1.3333333,23.444,146.82)" />
    <path
       id="path5"
       d="m 162.99414,56.69362 c 0,11.74178 -9.51833,21.2601 -21.2601,21.2601 -11.74178,0 -21.2601,-9.51832 -21.2601,-21.2601 0,-11.74179 9.51832,-21.26012 21.2601,-21.26012 11.74177,0 21.2601,9.51833 21.2601,21.26012 z"
       style="fill:#ffffff;fill-opacity:1;fill-rule:nonzero;stroke:#000000;stroke-width:0.79701;stroke-linecap:butt;stroke-linejoin:miter;stroke-miterlimit:10;stroke-dasharray:none;stroke-opacity:1"
       transform="matrix(1.3333333,0,0,-1.3333333,-8.9173333,180.05867)" />
    <path
       id="path6"
       d="m 7.6291328,-6.6693906 c 0,-0.1875 0,-0.2695313 -0.1757812,-0.2695313 -0.09375,0 -0.1171875,0.011719 -0.1875,0.082031 l -0.65625,0.5859375 c -0.6210938,-0.4921875 -1.2890625,-0.6679688 -1.96875,-0.6679688 -2.484375,0 -4.00781254,1.4765625 -4.00781254,3.515625 0,2.0507813 1.52343754,3.52734377 4.00781254,3.52734377 1.8632812,0 2.9882812,-1.21874997 2.9882812,-2.36718747 0,-0.1992188 -0.070312,-0.2109375 -0.234375,-0.2109375 -0.1289062,0 -0.2226562,0 -0.234375,0.1757812 -0.070312,1.33593752 -1.2773437,1.93359377 -2.2734375,1.93359377 -0.7851562,0 -1.6171875,-0.234375 -2.1328125,-0.84374997 -0.46875,-0.5625 -0.5976562,-1.3125 -0.5976562,-2.2148438 0,-0.5507812 0.035156,-1.6289062 0.6679687,-2.2851562 0.6445313,-0.65625 1.5117188,-0.7734375 2.0273438,-0.7734375 1.078125,0 2.0273437,0.7617187 2.2382812,2.0273437 0.035156,0.1875 0.046875,0.2109375 0.2695313,0.2109375 0.2578125,0 0.2695312,-0.023437 0.2695312,-0.28125 z m 0,0"
       style="fill:#000000;fill-opacity:1;fill-rule:nonzero;stroke:none"
       aria-label="C"
       transform="matrix(1.3333333,0,0,1.3333333,174.54267,109.02533)" />
    <path
       id="path7"
       d="m 257.95592,42.52022 h 51.02434 v 28.34679 h -51.02434 z"
       style="fill:#ffb3b3;fill-opacity:1;fill-rule:nonzero;stroke:#000000;stroke-width:0.3985;stroke-linecap:butt;stroke-linejoin:miter;stroke-miterlimit:10;stroke-dasharray:none;stroke-opacity:1"
       transform="matrix(1.3333333,0,0,-1.3333333,-8.9173333,180.05867)" />
    <path
       id="path8"
       d="m 0.35126562,-6.8077344 v 0.3164063 h 0.234375 c 0.77343748,0 0.78515628,0.1054687 0.78515628,0.46875 v 5.24999997 c 0,0.3515625 -0.011719,0.46875 -0.78515628,0.46875 h -0.234375 V 8.59375e-4 H 3.9957969 c 1.6757812,0 3.046875,-1.476562475 3.046875,-3.351562475 0,-1.8867188 -1.3476563,-3.4570313 -3.046875,-3.4570313 z m 2.36718748,6.50390627 c -0.46875,0 -0.4921875,-0.0703125 -0.4921875,-0.3984375 V -6.0928906 c 0,-0.328125 0.023437,-0.3984375 0.4921875,-0.3984375 h 0.9960938 c 0.6210937,0 1.3007812,0.2109375 1.8164062,0.9257812 0.421875,0.5859375 0.515625,1.4414063 0.515625,2.2148438 0,1.1132812 -0.1875,1.7109375 -0.5507812,2.1914062 -0.1992188,0.26953127 -0.7617188,0.85546877 -1.7695313,0.85546877 z m 0,0"
       style="fill:#000000;fill-opacity:1;fill-rule:nonzero;stroke:none"
       aria-label="D"
       transform="matrix(1.3333333,0,0,1.3333333,363.96133,109.00667)" />
    <path
       id="path9"
       d="M 28.3468,91.72862 V 50.46368"
       style="fill:none;stroke:#000000;stroke-width:0.3985;stroke-linecap:butt;stroke-linejoin:miter;stroke-miterlimit:10;stroke-dasharray:none;stroke-opacity:1"
       transform="matrix(1.3333333,0,0,-1.3333333,-8.9173333,180.05867)" />
    <path
       id="path10"
       d="M -1.19551,1.59401 C -1.09587,0.99626 0,0.09961 0.29886,0 0,-0.09961 -1.09587,-0.99626 -1.19551,-1.59401"
       style="fill:none;stroke:#000000;stroke-width:0.31879;stroke-linecap:round;stroke-linejoin:round;stroke-miterlimit:10;stroke-dasharray:none;stroke-opacity:1"
       transform="matrix(0,1.3333333,1.3333333,0,28.8784,112.77376)" />
    <path
       id="path11"
       d="m 2.9306328,-6.3738203 c 0,-0.234375 0,-0.2578125 -0.234375,-0.2578125 -0.609375,0.6328125 -1.4882812,0.6328125 -1.80468749,0.6328125 v 0.3164062 c 0.19921879,0 0.78515629,0 1.30078129,-0.2578125 v 5.15625004 c 0,0.3515625 -0.035156,0.48046875 -0.9257813,0.48046875 H 0.95016406 v 0.3046875 C 1.3017266,-0.03397656 2.1571953,-0.03397656 2.5556328,-0.03397656 c 0.3984375,0 1.265625,0 1.6171875,0.03515625 v -0.3046875 H 3.8564141 c -0.9023438,0 -0.9257813,-0.1171875 -0.9257813,-0.48046875 z m 0,0"
       style="fill:#000000;fill-opacity:1;fill-rule:nonzero;stroke:none"
       aria-label="1"
       transform="matrix(1.3333333,0,0,1.3333333,25.557333,80.877333)" />
  </g>
</svg>
