<?xml version="1.0" encoding="UTF-8" standalone="no"?>
<!-- Created with Inkscape (http://www.inkscape.org/) -->

<svg
   version="1.1"
   id="svg1"
   width="227.02684"
   height="189.23111"
   viewBox="0 0 227.02684 189.23111"
   xmlns="http://www.w3.org/2000/svg"
   xmlns:svg="http://www.w3.org/2000/svg">
  <defs
     id="defs1" />
  <g
     id="g1"
     transform="translate(-5.000015e-4,-0.00971806)">
    <path
       id="path1"
       d="M 0,0 H 170.08086 M 0,28.3468 H 170.08086 M 0,56.69362 H 170.08086 M 0,85.04042 H 170.08086 M 0,113.38724 H 170.08086 M 0,141.72409 H 170.08086 M 0,0 V 141.73404 M 28.3468,0 V 141.73404 M 56.69362,0 V 141.73404 M 85.04042,0 V 141.73404 M 113.38724,0 V 141.73404 M 141.73404,0 V 141.73404 M 170.07089,0 v 141.73404"
       style="fill:none;stroke:#808080;stroke-width:0.19925;stroke-linecap:butt;stroke-linejoin:miter;stroke-miterlimit:10;stroke-dasharray:none;stroke-opacity:1"
       transform="matrix(1.3333333,0,0,-1.3333333,0.13333333,189.108)" />
    <path
       id="path2"
       d="m 1.1004609,-3.4225781 v 2.66015622 c 0,0.45703125 -0.11718746,0.45703125 -0.78515621,0.45703125 V -7.03125e-4 C 0.66686719,-0.01242188 1.1707734,-0.03585938 1.4403047,-0.03585938 c 0.2578125,0 0.7851562,0.0234375 1.1132812,0.035156255 V -0.30539063 c -0.65625,0 -0.7734375,0 -0.7734375,-0.45703125 V -2.5905469 c 0,-1.03125 0.7148438,-1.59375 1.3476563,-1.59375 0.6210937,0 0.7382812,0.5390625 0.7382812,1.1015625 v 2.32031252 c 0,0.45703125 -0.1171875,0.45703125 -0.7734375,0.45703125 v 0.304687505 c 0.3398438,-0.011718755 0.8554688,-0.035156255 1.125,-0.035156255 0.2578125,0 0.7734375,0.0234375 1.1132813,0.035156255 V -0.30539063 c -0.515625,0 -0.7734375,0 -0.7851563,-0.3046875 V -2.5085156 c 0,-0.8554688 0,-1.171875 -0.3046875,-1.5234375 -0.140625,-0.1757813 -0.46875,-0.375 -1.0429687,-0.375 -0.7265625,0 -1.1953125,0.4335937 -1.4765625,1.0546875 v -1.0546875 l -1.40625001,0.1171875 v 0.3046875 c 0.70312501,0 0.78515621,0.070312 0.78515621,0.5625 z m 9.1230471,1.2890625 c 0,-1.2773438 -0.9960939,-2.3320313 -2.1914064,-2.3320313 -1.2539063,0 -2.2148438,1.0898438 -2.2148438,2.3320313 0,1.28906247 1.03125,2.23828122 2.203125,2.23828122 1.2070313,0 2.2031252,-0.97265625 2.2031252,-2.23828122 z m -2.1914064,1.99218747 c -0.4335938,0 -0.8671875,-0.2109375 -1.1367188,-0.66796875 C 6.6375703,-1.2428906 6.6375703,-1.8522656 6.6375703,-2.2155469 c 0,-0.3867187 0,-0.9257812 0.2460938,-1.359375 0.2695312,-0.4570312 0.7382812,-0.6679687 1.1367187,-0.6679687 0.4335938,0 0.8671875,0.2226562 1.125,0.6445312 0.2578125,0.4335938 0.2578125,1.0078125 0.2578125,1.3828125 0,0.3632813 0,0.9023438 -0.2226562,1.33593752 -0.2226563,0.4453125 -0.65625,0.73828125 -1.1484375,0.73828125 z m 6.5478514,-0.41015625 v 0.65625 L 16.044797,-7.03125e-4 V -0.30539063 c -0.703125,0 -0.773438,-0.0703125 -0.773438,-0.5625 V -6.9147656 l -1.441406,0.1054687 v 0.3164063 c 0.703125,0 0.785156,0.070312 0.785156,0.5507812 v 2.15625 c -0.292968,-0.3632812 -0.726562,-0.6210937 -1.265625,-0.6210937 -1.171875,0 -2.214843,0.984375 -2.214843,2.2617187 0,1.26562502 0.972656,2.25000002 2.109375,2.25000002 0.644531,0 1.089843,-0.33984375 1.335937,-0.65625 z m 0,-2.67187502 v 2.0507813 c 0,0.17578122 0,0.19921872 -0.105469,0.36328122 -0.304687,0.48046875 -0.75,0.703125 -1.183593,0.703125 -0.445313,0 -0.796875,-0.2578125 -1.042969,-0.64453125 -0.257813,-0.41015627 -0.292969,-0.97265627 -0.292969,-1.38281247 0,-0.3632813 0.02344,-0.9609375 0.316406,-1.4179688 0.210938,-0.3046875 0.585938,-0.6328125 1.125,-0.6328125 0.351563,0 0.761719,0.1523438 1.078125,0.5976563 0.105469,0.1640625 0.105469,0.1875 0.105469,0.3632812 z m 2.865234,0.7148438 c 0.05859,-1.4882813 0.902344,-1.734375 1.242188,-1.734375 1.019531,0 1.125,1.3476562 1.125,1.734375 z m -0.01172,0.2109375 h 2.789062 c 0.210938,0 0.246094,0 0.246094,-0.2109375 0,-0.984375 -0.539063,-1.9570313 -1.78125,-1.9570313 -1.160156,0 -2.074219,1.03125 -2.074219,2.2734375 0,1.33593752 1.042969,2.29687502 2.191406,2.29687502 1.21875,0 1.664063,-1.1015625 1.664063,-1.28906252 0,-0.1054687 -0.08203,-0.1171875 -0.128906,-0.1171875 -0.09375,0 -0.117188,0.058594 -0.128907,0.140625 -0.351562,1.01953127 -1.253906,1.01953127 -1.347656,1.01953127 -0.503906,0 -0.902344,-0.29296875 -1.125,-0.66796875 C 17.433469,-1.2897656 17.433469,-1.9460156 17.433469,-2.2975781 Z m 10.602539,-4.640625 c -0.04687,-0.1289063 -0.07031,-0.1992188 -0.222656,-0.1992188 -0.164063,0 -0.1875,0.058594 -0.246094,0.1992188 l -2.0625,5.96484372 c -0.175781,0.50390625 -0.574219,0.65625 -1.113281,0.66796875 v 0.304687505 c 0.234375,-0.011718755 0.65625,-0.035156255 1.019531,-0.035156255 0.304687,0 0.820312,0.0234375 1.148437,0.035156255 V -0.30539063 c -0.503906,0 -0.75,-0.2578125 -0.75,-0.515625 0,-0.0234375 0.01172,-0.12890625 0.02344,-0.140625 l 0.457031,-1.31249997 h 2.460938 l 0.527343,1.52343747 c 0.01172,0.046875 0.02344,0.10546875 0.02344,0.140625 0,0.3046875 -0.550781,0.3046875 -0.820313,0.3046875 v 0.304687505 c 0.351563,-0.035156255 1.054688,-0.035156255 1.429688,-0.035156255 0.433594,0 0.890625,0.01171875 1.300781,0.035156255 V -0.30539063 H 31.03601 c -0.597656,0 -0.738281,-0.0703125 -0.84375,-0.3984375 z m -0.527344,1.125 1.125,3.234375 h -2.238281 z m 0,0"
       style="fill:#000000;fill-opacity:1;fill-rule:nonzero;stroke:none"
       aria-label="nodeA"
       transform="matrix(1.3333333,0,0,1.3333333,16.896,42.54)" />
    <path
       id="path3"
       d="m 2.2138359,-3.6448594 v -2.4492187 c 0,-0.328125 0.011719,-0.3984375 0.4804688,-0.3984375 h 1.2421875 c 0.9609375,0 1.3125,0.84375 1.3125,1.3710937 0,0.6328125 -0.4921875,1.4765625 -1.59375,1.4765625 z m 2.34375,0.09375 c 0.9726563,-0.1992187 1.6523438,-0.8320312 1.6523438,-1.5703125 0,-0.8671875 -0.9140625,-1.6875 -2.203125,-1.6875 H 0.36227344 v 0.3164063 h 0.234375 c 0.76171876,0 0.78515626,0.1054687 0.78515626,0.46875 v 5.24999997 c 0,0.3515625 -0.023437,0.46875 -0.78515626,0.46875 h -0.234375 V -3.28125e-4 H 4.2646172 c 1.3242187,0 2.2148437,-0.890625005 2.2148437,-1.828124975 0,-0.8671875 -0.8085937,-1.6054688 -1.921875,-1.7226563 z m -0.609375,3.24609377 H 2.6943047 c -0.46875,0 -0.4804688,-0.0703125 -0.4804688,-0.3984375 V -3.4222031 h 1.875 c 0.984375,0 1.3945313,0.9257812 1.3945313,1.59375 0,0.703125 -0.515625,1.52343747 -1.5351563,1.52343747 z m 0,0"
       style="fill:#000000;fill-opacity:1;fill-rule:nonzero;stroke:none"
       aria-label="B"
       transform="matrix(1.3333333,0,0,1.3333333,33.224,155.852)" />
  </g>
</svg>
