<?xml version="1.0" encoding="UTF-8" standalone="no"?>
<!-- Created with Inkscape (http://www.inkscape.org/) -->

<svg
   version="1.1"
   id="svg1"
   width="57.224934"
   height="132.81642"
   viewBox="0 0 57.224934 132.81642"
   xmlns="http://www.w3.org/2000/svg"
   xmlns:svg="http://www.w3.org/2000/svg">
  <defs
     id="defs1" />
  <g
     id="g1"
     transform="translate(-5.997401e-4,0.00235978)">
    <path
       id="path1"
       d="m 49.6069,85.04042 c 0,11.74178 -9.51832,21.2601 -21.2601,21.2601 -11.74177,0 -21.2601,-9.51832 -21.2601,-21.2601 0,-11.74177 9.51833,-21.2601 21.2601,-21.2601 11.74178,0 21.2601,9.51833 21.2601,21.2601 z"
       style="fill:none;stroke:#000000;stroke-width:0.3985;stroke-linecap:butt;stroke-linejoin:miter;stroke-miterlimit:10;stroke-dasharray:none;stroke-opacity:1"
       transform="matrix(1.3333333,0,0,-1.3333333,-9.1826667,141.99733)" />
    <path
       id="path2"
       d="m 1.1001562,-3.4228828 v 2.66015624 c 0,0.45703125 -0.11718745,0.45703125 -0.7851562,0.45703125 v 0.3046875 c 0.3515625,-0.01171875 0.8554687,-0.03515625 1.125,-0.03515625 0.2578125,0 0.7851562,0.0234375 1.1132812,0.03515625 v -0.3046875 c -0.65625,0 -0.7734375,0 -0.7734375,-0.45703125 V -2.5908516 c 0,-1.03125 0.7148438,-1.59375 1.3476563,-1.59375 0.6210937,0 0.7382812,0.5390625 0.7382812,1.1015625 v 2.32031254 c 0,0.45703125 -0.1171875,0.45703125 -0.7734375,0.45703125 v 0.3046875 c 0.3398438,-0.01171875 0.8554688,-0.03515625 1.125,-0.03515625 0.2578125,0 0.7734375,0.0234375 1.1132813,0.03515625 v -0.3046875 c -0.515625,0 -0.7734375,0 -0.7851563,-0.3046875 V -2.5088203 c 0,-0.8554688 0,-1.171875 -0.3046875,-1.5234375 -0.140625,-0.1757813 -0.46875,-0.375 -1.0429687,-0.375 -0.7265625,0 -1.1953125,0.4335937 -1.4765625,1.0546875 V -4.4072578 L 0.315,-4.2900703 v 0.3046875 c 0.703125,0 0.7851562,0.070312 0.7851562,0.5625 z m 9.1230468,1.2890625 c 0,-1.2773438 -0.9960936,-2.3320313 -2.1914061,-2.3320313 -1.2539063,0 -2.2148438,1.0898438 -2.2148438,2.3320313 0,1.28906249 1.03125,2.23828124 2.203125,2.23828124 1.2070313,0 2.2031249,-0.97265625 2.2031249,-2.23828124 z m -2.1914061,1.99218749 c -0.4335938,0 -0.8671875,-0.2109375 -1.1367188,-0.66796875 C 6.6372656,-1.2431953 6.6372656,-1.8525703 6.6372656,-2.2158516 c 0,-0.3867187 0,-0.9257812 0.2460938,-1.359375 0.2695312,-0.4570312 0.7382812,-0.6679687 1.1367187,-0.6679687 0.4335938,0 0.8671875,0.2226562 1.125,0.6445312 0.2578125,0.4335938 0.2578125,1.0078125 0.2578125,1.3828125 0,0.3632813 0,0.9023438 -0.2226562,1.33593754 -0.2226563,0.4453125 -0.65625,0.73828125 -1.1484375,0.73828125 z m 6.5478511,-0.41015625 v 0.65625 l 1.464844,-0.10546875 v -0.3046875 c -0.703125,0 -0.773437,-0.0703125 -0.773437,-0.5625 V -6.9150703 l -1.441407,0.1054687 v 0.3164063 c 0.703125,0 0.785157,0.070312 0.785157,0.5507812 v 2.15625 c -0.292969,-0.3632812 -0.726563,-0.6210937 -1.265625,-0.6210937 -1.171875,0 -2.214844,0.984375 -2.214844,2.2617187 0,1.26562504 0.972656,2.25000004 2.109375,2.25000004 0.644531,0 1.089844,-0.33984375 1.335937,-0.65625 z m 0,-2.67187504 v 2.0507813 c 0,0.17578124 0,0.19921874 -0.105468,0.36328124 -0.304688,0.48046875 -0.75,0.703125 -1.183594,0.703125 -0.445313,0 -0.796875,-0.2578125 -1.042969,-0.64453125 -0.257812,-0.41015629 -0.292969,-0.97265629 -0.292969,-1.38281249 0,-0.3632813 0.02344,-0.9609375 0.316407,-1.4179688 0.210937,-0.3046875 0.585937,-0.6328125 1.125,-0.6328125 0.351562,0 0.761718,0.1523438 1.078125,0.5976563 0.105468,0.1640625 0.105468,0.1875 0.105468,0.3632812 z m 2.865235,0.7148438 c 0.05859,-1.4882813 0.902344,-1.734375 1.242187,-1.734375 1.019532,0 1.125,1.3476562 1.125,1.734375 z m -0.01172,0.2109375 h 2.789063 c 0.210937,0 0.246093,0 0.246093,-0.2109375 0,-0.984375 -0.539062,-1.9570313 -1.78125,-1.9570313 -1.160156,0 -2.074218,1.03125 -2.074218,2.2734375 0,1.33593754 1.042968,2.29687504 2.191406,2.29687504 1.21875,0 1.664062,-1.1015625 1.664062,-1.28906254 0,-0.1054687 -0.08203,-0.1171875 -0.128906,-0.1171875 -0.09375,0 -0.117187,0.058594 -0.128906,0.140625 -0.351563,1.01953129 -1.253906,1.01953129 -1.347656,1.01953129 -0.503907,0 -0.902344,-0.29296875 -1.125,-0.66796875 C 17.433164,-1.2900703 17.433164,-1.9463203 17.433164,-2.2978828 Z m 10.602539,-4.640625 c -0.04687,-0.1289063 -0.07031,-0.1992188 -0.222656,-0.1992188 -0.164063,0 -0.1875,0.058594 -0.246094,0.1992188 l -2.0625,5.96484374 c -0.175781,0.50390625 -0.574219,0.65625 -1.113281,0.66796875 v 0.3046875 c 0.234375,-0.01171875 0.65625,-0.03515625 1.019531,-0.03515625 0.304688,0 0.820313,0.0234375 1.148438,0.03515625 v -0.3046875 c -0.503907,0 -0.75,-0.2578125 -0.75,-0.515625 0,-0.0234375 0.01172,-0.12890625 0.02344,-0.140625 l 0.457031,-1.31249999 h 2.460938 l 0.527344,1.52343749 c 0.01172,0.046875 0.02344,0.10546875 0.02344,0.140625 0,0.3046875 -0.550781,0.3046875 -0.820312,0.3046875 v 0.3046875 c 0.351562,-0.03515625 1.054687,-0.03515625 1.429687,-0.03515625 0.433594,0 0.890625,0.01171875 1.300781,0.03515625 v -0.3046875 h -0.175781 c -0.597656,0 -0.738281,-0.0703125 -0.84375,-0.3984375 z m -0.527344,1.125 1.125,3.234375 h -2.238281 z m 0,0"
       style="fill:#000000;fill-opacity:1;fill-rule:nonzero;stroke:none"
       aria-label="nodeA"
       transform="matrix(1.3333333,0,0,1.3333333,7.58,33.224)" />
    <path
       id="path3"
       d="m 49.6069,28.3468 c 0,11.74178 -9.51832,21.2601 -21.2601,21.2601 -11.74177,0 -21.2601,-9.51832 -21.2601,-21.2601 0,-11.74177 9.51833,-21.2601 21.2601,-21.2601 11.74178,0 21.2601,9.51833 21.2601,21.2601 z"
       style="fill:none;stroke:#000000;stroke-width:0.3985;stroke-linecap:butt;stroke-linejoin:miter;stroke-miterlimit:10;stroke-dasharray:none;stroke-opacity:1"
       transform="matrix(1.3333333,0,0,-1.3333333,-9.1826667,141.99733)" />
    <path
       id="path4"
       d="m 2.2135313,-3.6438906 v -2.4492188 c 0,-0.328125 0.011719,-0.3984375 0.4804687,-0.3984375 h 1.2421875 c 0.9609375,0 1.3125,0.84375 1.3125,1.3710938 0,0.6328125 -0.4921875,1.4765625 -1.59375,1.4765625 z m 2.34375,0.09375 c 0.9726562,-0.1992188 1.6523437,-0.8320313 1.6523437,-1.5703125 0,-0.8671875 -0.9140625,-1.6875 -2.203125,-1.6875 H 0.36196875 v 0.3164062 h 0.234375 c 0.76171875,0 0.78515625,0.1054688 0.78515625,0.46875 v 5.25000003 c 0,0.3515625 -0.023437,0.46875 -0.78515625,0.46875 h -0.234375 V 6.40625e-4 H 4.2643125 c 1.3242188,0 2.2148438,-0.890624995 2.2148438,-1.828125025 0,-0.8671875 -0.8085938,-1.6054687 -1.921875,-1.7226562 z m -0.609375,3.24609373 H 2.694 c -0.46875,0 -0.4804687,-0.0703125 -0.4804687,-0.3984375 V -3.4212344 h 1.875 c 0.984375,0 1.3945312,0.9257813 1.3945312,1.59375 0,0.703125 -0.515625,1.52343753 -1.5351562,1.52343753 z m 0,0"
       style="fill:#000000;fill-opacity:1;fill-rule:nonzero;stroke:none"
       aria-label="B"
       transform="matrix(1.3333333,0,0,1.3333333,23.908,108.74133)" />
  </g>
</svg>
