<?xml version="1.0" encoding="UTF-8" standalone="no"?>
<!-- Created with Inkscape (http://www.inkscape.org/) -->

<svg
   version="1.1"
   id="svg1"
   width="168.71548"
   height="93.964844"
   viewBox="0 0 168.71548 93.964846"
   xmlns="http://www.w3.org/2000/svg"
   xmlns:svg="http://www.w3.org/2000/svg">
  <defs
     id="defs1" />
  <g
     id="g1"
     transform="translate(6.3933326e-4,-4.1445314)">
    <path
       id="path1"
       d="M 9.71223,0 C 9.71223,5.36398 5.36398,9.71223 0,9.71223 -5.36398,9.71223 -9.71223,5.36398 -9.71223,0 c 0,-5.36398 4.34825,-9.71223 9.71223,-9.71223 5.36398,0 9.71223,4.34825 9.71223,9.71223 z"
       style="fill:none;stroke:#000000;stroke-width:0.3985;stroke-linecap:butt;stroke-linejoin:miter;stroke-miterlimit:10;stroke-dasharray:none;stroke-opacity:1"
       transform="matrix(1.3333333,0,0,-1.3333333,13.214667,17.681333)" />
    <path
       id="path2"
       d="m 3.9617187,-6.9384375 c -0.046875,-0.1289062 -0.070312,-0.1992187 -0.2226562,-0.1992187 -0.1640625,0 -0.1875,0.058594 -0.2460938,0.1992187 l -2.0625,5.96484375 C 1.2546875,-0.4696875 0.85625,-0.31734375 0.3171875,-0.305625 v 0.3046875 c 0.234375,-0.01171875 0.65625,-0.03515625 1.0195312,-0.03515625 0.3046875,0 0.8203125,0.0234375 1.1484375,0.03515625 V -0.305625 c -0.5039062,0 -0.75,-0.2578125 -0.75,-0.515625 0,-0.0234375 0.011719,-0.12890625 0.023437,-0.140625 l 0.4570313,-1.3125 H 4.676562 l 0.5273437,1.5234375 c 0.011719,0.046875 0.023437,0.10546875 0.023437,0.140625 0,0.3046875 -0.5507812,0.3046875 -0.8203125,0.3046875 v 0.3046875 c 0.3515625,-0.03515625 1.0546875,-0.03515625 1.4296875,-0.03515625 0.4335938,0 0.890625,0.01171875 1.3007813,0.03515625 V -0.305625 H 6.9617187 c -0.5976562,0 -0.7382812,-0.0703125 -0.84375,-0.3984375 z m -0.5273437,1.125 1.125,3.234375 H 2.3210937 Z m 0,0"
       style="fill:#000000;fill-opacity:1;fill-rule:nonzero;stroke:none"
       aria-label="A"
       transform="matrix(1.3333333,0,0,1.3333333,8.2333333,22.22)" />
    <path
       id="path3"
       d="m 2.2150156,-3.6454687 v -2.4492188 c 0,-0.328125 0.011719,-0.3984375 0.4804688,-0.3984375 h 1.2421875 c 0.9609375,0 1.3125,0.84375 1.3125,1.3710938 0,0.6328125 -0.4921875,1.4765625 -1.59375,1.4765625 z m 2.34375,0.09375 c 0.9726563,-0.1992188 1.6523438,-0.8320313 1.6523438,-1.5703125 0,-0.8671875 -0.9140625,-1.6875 -2.203125,-1.6875 H 0.36345312 v 0.3164062 h 0.234375 c 0.76171878,0 0.78515628,0.1054688 0.78515628,0.46875 v 5.25 c 0,0.3515625 -0.023437,0.46875 -0.78515628,0.46875 h -0.234375 V -9.375e-4 H 4.2657969 c 1.3242187,0 2.2148437,-0.890625 2.2148437,-1.828125 0,-0.8671875 -0.8085937,-1.6054687 -1.921875,-1.7226562 z M 3.9493906,-0.305625 H 2.6954844 c -0.46875,0 -0.4804688,-0.0703125 -0.4804688,-0.3984375 v -2.71875 h 1.875 c 0.984375,0 1.3945313,0.9257813 1.3945313,1.59375 0,0.703125 -0.515625,1.5234375 -1.5351563,1.5234375 z m 0,0"
       style="fill:#000000;fill-opacity:1;fill-rule:nonzero;stroke:none"
       aria-label="B"
       transform="matrix(1.3333333,0,0,1.3333333,84.101333,22.22)" />
    <path
       id="path4"
       d="m 0.35272656,-6.8095312 v 0.3164062 h 0.234375 c 0.77343754,0 0.78515624,0.1054688 0.78515624,0.46875 v 5.25 c 0,0.3515625 -0.011719,0.46875 -0.78515624,0.46875 h -0.234375 V -9.375e-4 H 3.9972578 c 1.6757813,0 3.046875,-1.4765625 3.046875,-3.3515625 0,-1.8867187 -1.3476562,-3.4570312 -3.046875,-3.4570312 z M 2.7199141,-0.305625 c -0.46875,0 -0.4921875,-0.0703125 -0.4921875,-0.3984375 v -5.390625 c 0,-0.328125 0.023437,-0.3984375 0.4921875,-0.3984375 h 0.9960937 c 0.6210938,0 1.3007813,0.2109375 1.8164063,0.9257813 0.421875,0.5859375 0.515625,1.4414062 0.515625,2.2148437 0,1.1132813 -0.1875,1.7109375 -0.5507813,2.1914063 -0.1992187,0.2695312 -0.7617187,0.8554687 -1.7695312,0.8554687 z m 0,0"
       style="fill:#000000;fill-opacity:1;fill-rule:nonzero;stroke:none"
       aria-label="D"
       transform="matrix(1.3333333,0,0,1.3333333,159.32267,22.22)" />
    <path
       id="path5"
       d="m 0.56135938,-3.4087813 c 0,2.0625 1.60546872,3.63281255 3.45703122,3.63281255 1.6289063,0 2.6015625,-1.38281255 2.6015625,-2.54296875 0,-0.1054688 0,-0.1757813 -0.1289062,-0.1757813 -0.1054688,0 -0.1054688,0.070312 -0.1171875,0.1640625 -0.082031,1.42968755 -1.1484375,2.2382813 -2.2265625,2.2382813 -0.609375,0 -2.5664063,-0.33984375 -2.5664063,-3.3046875 0,-2.9765625 1.9453125,-3.3164063 2.5546875,-3.3164063 1.078125,0 1.96875,0.9023438 2.1679688,2.3671875 0.023437,0.1289063 0.023437,0.1640625 0.1640625,0.1640625 0.1523437,0 0.1523437,-0.035156 0.1523437,-0.234375 v -2.3671875 c 0,-0.1640625 0,-0.234375 -0.1054687,-0.234375 -0.035156,0 -0.082031,0 -0.1640625,0.1171875 l -0.4921875,0.7382813 c -0.375,-0.3632813 -0.8789063,-0.8554688 -1.8398438,-0.8554688 -1.8632812,0 -3.45703122,1.5820313 -3.45703122,3.609375 z m 0,0"
       style="fill:#000000;fill-opacity:1;fill-rule:nonzero;stroke:none"
       aria-label="C"
       transform="matrix(1.3333333,0,0,1.3333333,84.009333,97.810667)" />
    <path
       id="path6"
       d="M 9.91148,0 H 49.18703"
       style="fill:none;stroke:#000000;stroke-width:0.3985;stroke-linecap:butt;stroke-linejoin:miter;stroke-miterlimit:10;stroke-dasharray:none;stroke-opacity:1"
       transform="matrix(1.3333333,0,0,-1.3333333,13.214667,17.681333)" />
    <path
       id="path7"
       d="M -1.19551,1.59401 C -1.09587,0.99626 0,0.09961 0.29886,0 0,-0.09961 -1.09587,-0.99626 -1.19551,-1.59401"
       style="fill:none;stroke:#000000;stroke-width:0.31879;stroke-linecap:round;stroke-linejoin:round;stroke-miterlimit:10;stroke-dasharray:none;stroke-opacity:1"
       transform="matrix(1.3333333,0,0,-1.3333333,78.797373,17.681333)" />
    <path
       id="path8"
       d="m 2.9289297,-6.3747891 c 0,-0.234375 0,-0.2578125 -0.234375,-0.2578125 -0.609375,0.6328125 -1.4882813,0.6328125 -1.80468751,0.6328125 v 0.3164063 c 0.19921871,0 0.78515621,0 1.30078121,-0.2578125 v 5.15624999 c 0,0.3515625 -0.035156,0.48046875 -0.9257812,0.48046875 H 0.94846094 V 2.109375e-4 C 1.3000234,-0.03494531 2.1554922,-0.03494531 2.5539297,-0.03494531 c 0.3984375,0 1.265625,0 1.6171875,0.0351562475 V -0.30447656 H 3.8547109 c -0.9023437,0 -0.9257812,-0.1171875 -0.9257812,-0.48046875 z m 0,0"
       style="fill:#000000;fill-opacity:1;fill-rule:nonzero;stroke:none"
       aria-label="1"
       transform="matrix(1.3333333,0,0,1.3333333,49.598667,12.988)" />
    <path
       id="path9"
       d="m 63.74191,0 h 41.862"
       style="fill:none;stroke:#000000;stroke-width:0.3985;stroke-linecap:butt;stroke-linejoin:miter;stroke-miterlimit:10;stroke-dasharray:none;stroke-opacity:1"
       transform="matrix(1.3333333,0,0,-1.3333333,13.214667,17.681333)" />
    <path
       id="path10"
       d="M -1.19551,1.59401 C -1.09587,0.99626 0,0.09961 0.29886,0 0,-0.09961 -1.09587,-0.99626 -1.19551,-1.59401"
       style="fill:none;stroke:#000000;stroke-width:0.31879;stroke-linecap:round;stroke-linejoin:round;stroke-miterlimit:10;stroke-dasharray:none;stroke-opacity:1"
       transform="matrix(1.3333333,0,0,-1.3333333,154.01988,17.681333)" />
    <path
       id="path11"
       d="m 2.9309297,-6.3747891 c 0,-0.234375 0,-0.2578125 -0.234375,-0.2578125 -0.609375,0.6328125 -1.4882813,0.6328125 -1.80468751,0.6328125 v 0.3164063 c 0.19921871,0 0.78515621,0 1.30078121,-0.2578125 v 5.15624999 c 0,0.3515625 -0.035156,0.48046875 -0.9257812,0.48046875 H 0.95046094 V 2.109375e-4 C 1.3020234,-0.03494531 2.1574922,-0.03494531 2.5559297,-0.03494531 c 0.3984375,0 1.265625,0 1.6171875,0.0351562475 V -0.30447656 H 3.8567109 c -0.9023437,0 -0.9257812,-0.1171875 -0.9257812,-0.48046875 z m 0,0"
       style="fill:#000000;fill-opacity:1;fill-rule:nonzero;stroke:none"
       aria-label="1"
       transform="matrix(1.3333333,0,0,1.3333333,123.096,12.988)" />
    <path
       id="path12"
       d="m 7.00862,-7.00803 42.44122,-42.4378"
       style="fill:none;stroke:#000000;stroke-width:0.3985;stroke-linecap:butt;stroke-linejoin:miter;stroke-miterlimit:10;stroke-dasharray:none;stroke-opacity:1"
       transform="matrix(1.3333333,0,0,-1.3333333,13.214667,17.681333)" />
    <path
       id="path13"
       d="M -1.19551,1.59401 C -1.09587,0.99626 0,0.09961 0.29886,0 0,-0.09961 -1.09587,-0.99626 -1.19551,-1.59401"
       style="fill:none;stroke:#000000;stroke-width:0.31879;stroke-linecap:round;stroke-linejoin:round;stroke-miterlimit:10;stroke-dasharray:none;stroke-opacity:1"
       transform="matrix(0.94282667,0.94274667,0.94274667,-0.94282667,79.147773,83.609107)" />
    <path
       id="path14"
       d="M 1.266125,-0.76185156 2.3208125,-1.7931016 c 1.5585938,-1.3710937 2.15625,-1.9101562 2.15625,-2.90625 0,-1.1367187 -0.9023437,-1.9335937 -2.1210937,-1.9335937 -1.125,0 -1.85156255,0.9140625 -1.85156255,1.8046875 0,0.5507812 0.4921875,0.5507812 0.52734375,0.5507812 0.1640625,0 0.515625,-0.1171875 0.515625,-0.5273437 0,-0.2578125 -0.1875,-0.515625 -0.5273437,-0.515625 -0.0820313,0 -0.1054688,0 -0.1289063,0.011719 0.2226563,-0.6445312 0.7617188,-1.0195312 1.3359375,-1.0195312 0.9140625,0 1.3359375,0.8085937 1.3359375,1.6289062 0,0.796875 -0.4921875,1.5820313 -1.0429687,2.203125 L 0.609875,-0.36341406 C 0.50440625,-0.25794531 0.50440625,-0.23450781 0.50440625,-1.328125e-4 H 4.1958125 L 4.4770625,-1.7345078 H 4.21925 C 4.172375,-1.4298203 4.1020625,-0.99622656 4.0083125,-0.84388281 3.938,-0.76185156 3.28175,-0.76185156 3.0590938,-0.76185156 Z m 0,0"
       style="fill:#000000;fill-opacity:1;fill-rule:nonzero;stroke:none"
       aria-label="2"
       transform="matrix(1.3333333,0,0,1.3333333,47.749333,68.785333)" />
    <path
       id="path15"
       d="m 63.61324,-49.76985 42.53021,42.52209"
       style="fill:none;stroke:#000000;stroke-width:0.3985;stroke-linecap:butt;stroke-linejoin:miter;stroke-miterlimit:10;stroke-dasharray:none;stroke-opacity:1"
       transform="matrix(1.3333333,0,0,-1.3333333,13.214667,17.681333)" />
    <path
       id="path16"
       d="M -1.19551,1.59401 C -1.09587,0.99626 0,0.09961 0.29886,0 0,-0.09961 -1.09587,-0.99626 -1.19551,-1.59401"
       style="fill:none;stroke:#000000;stroke-width:0.31879;stroke-linecap:round;stroke-linejoin:round;stroke-miterlimit:10;stroke-dasharray:none;stroke-opacity:1"
       transform="matrix(0.94286667,-0.94270667,-0.94270667,-0.94286667,154.73924,27.345013)" />
    <path
       id="path17"
       d="M 2.8954687,-3.5030547 C 3.7040625,-3.7725859 4.29,-4.4757109 4.29,-5.2608672 c 0,-0.8203125 -0.8789063,-1.3710937 -1.8398438,-1.3710937 -1.0078125,0 -1.75781245,0.5976562 -1.75781245,1.3476562 0,0.3398438 0.2109375,0.5273438 0.50390625,0.5273438 0.3046875,0 0.5039062,-0.2226563 0.5039062,-0.515625 0,-0.4921875 -0.46875,-0.4921875 -0.609375,-0.4921875 0.3046875,-0.4921875 0.9609375,-0.6210938 1.3242188,-0.6210938 0.4101562,0 0.9492187,0.2226563 0.9492187,1.1132813 0,0.1289062 -0.011719,0.703125 -0.2695312,1.1367187 -0.3046875,0.4804688 -0.6445313,0.515625 -0.890625,0.515625 -0.082031,0.011719 -0.3164063,0.035156 -0.3867188,0.035156 C 1.7353125,-3.5733672 1.665,-3.5616484 1.665,-3.4678984 c 0,0.1171875 0.070312,0.1171875 0.234375,0.1171875 h 0.4453125 c 0.8085937,0 1.1835937,0.6679687 1.1835937,1.6523437 0,1.34765626 -0.6914062,1.64062501 -1.125,1.64062501 -0.4335937,0 -1.171875,-0.17578125 -1.52343745,-0.76171875 0.35156245,0.0585938 0.65624995,-0.1640625 0.65624995,-0.53906246 0,-0.3632813 -0.2695312,-0.5625 -0.56249995,-0.5625 -0.234375,0 -0.55078125,0.140625 -0.55078125,0.5742187 0,0.91406251 0.9257812,1.57031251 2.0039062,1.57031251 1.21875,0 2.1210938,-0.9140625 2.1210938,-1.92187501 0,-0.8203125 -0.6210938,-1.59375 -1.6523438,-1.8046875 z m 0,0"
       style="fill:#000000;fill-opacity:1;fill-rule:nonzero;stroke:none"
       aria-label="3"
       transform="matrix(1.3333333,0,0,1.3333333,123.28,68.729333)" />
  </g>
</svg>
