<?xml version="1.0" encoding="UTF-8" standalone="no"?>
<!-- Created with Inkscape (http://www.inkscape.org/) -->

<svg
   version="1.1"
   id="svg1"
   width="304.92651"
   height="135.0592"
   viewBox="0 0 304.92652 135.05921"
   xmlns="http://www.w3.org/2000/svg"
   xmlns:svg="http://www.w3.org/2000/svg">
  <defs
     id="defs1" />
  <g
     id="g1"
     transform="translate(5.1354983e-4,0.00213307)">
    <path
       id="path1"
       d="m 50.89049,85.04042 c 0,12.45068 -10.093,22.54368 -22.54369,22.54368 -12.45068,0 -22.54368,-10.093 -22.54368,-22.54368 0,-12.45068 10.093,-22.54369 22.54368,-22.54369 12.45069,0 22.54369,10.09301 22.54369,22.54369 z"
       style="fill:#99def9;fill-opacity:1;fill-rule:nonzero;stroke:#000000;stroke-width:0.79701;stroke-linecap:butt;stroke-linejoin:miter;stroke-miterlimit:10;stroke-dasharray:none;stroke-opacity:1"
       transform="matrix(1.3333333,0,0,-1.3333333,-7.2066667,143.97467)" />
    <path
       id="path2"
       d="m 1.1362188,-3.5494375 v 3.08203125 H 0.4448125 v 0.46875 c 0.28125,-0.01171875 0.8789063,-0.03515625 1.2539063,-0.03515625 0.3984375,0 0.984375,0.0234375 1.2539062,0.03515625 v -0.46875 H 2.2729375 V -2.5533438 c 0,-1.078125 0.8554688,-1.5703125 1.4765625,-1.5703125 0.3398438,0 0.5507813,0.2109375 0.5507813,0.9726563 v 2.68359375 H 3.6205938 v 0.46875 C 3.890125,-0.010375 4.4877813,-0.0338125 4.8745,-0.0338125 c 0.3867188,0 0.9726563,0.0234375 1.2539063,0.03515625 v -0.46875 H 5.437 V -3.0455313 c 0,-1.0429687 -0.5390625,-1.4414062 -1.5351562,-1.4414062 -0.9492188,0 -1.4765625,0.5742187 -1.7460938,1.078125 v -1.078125 l -1.7109375,0.082031 v 0.46875 c 0.6210938,0 0.6914063,0 0.6914063,0.386719 z M 11.768055,-2.166625 c 0,-1.3359375 -0.914063,-2.34375 -2.5429691,-2.34375 -1.6289062,0 -2.5429687,1.0195312 -2.5429687,2.34375 0,1.23046875 0.8789062,2.2265625 2.5429687,2.2265625 1.6757811,0 2.5429691,-1.0078125 2.5429691,-2.2265625 z M 9.2250859,-0.3385 c -1.265625,0 -1.265625,-1.078125 -1.265625,-1.9453125 0,-0.4453125 0,-0.9492188 0.1640625,-1.2890625 0.1992188,-0.375 0.609375,-0.5742188 1.1015625,-0.5742188 0.421875,0 0.8320311,0.1523438 1.0546871,0.5039063 0.210938,0.3398437 0.210938,0.890625 0.210938,1.359375 0,0.8671875 0,1.9453125 -1.2656251,1.9453125 z m 7.3476561,-0.09375 v 0.4921875 l 1.828125,-0.05859375 v -0.46875 c -0.621094,0 -0.691406,0 -0.691406,-0.38671875 v -6.0585938 l -1.757813,0.082031 v 0.46875 c 0.609375,0 0.679688,0 0.679688,0.3867187 v 1.9453125 c -0.492188,-0.3867187 -1.007813,-0.4570312 -1.335938,-0.4570312 -1.453125,0 -2.507812,0.8789062 -2.507812,2.2851562 0,1.31250005 0.925781,2.2617188 2.390625,2.2617188 0.609375,0 1.089844,-0.234375 1.394531,-0.4921872 z m 0,-3.0820313 v 2.484375 c -0.128906,0.18750005 -0.539062,0.72656255 -1.289062,0.72656255 -1.21875,0 -1.21875,-1.19531255 -1.21875,-1.89843755 0,-0.4804687 0,-1.0195312 0.257812,-1.40625 0.292969,-0.4101562 0.761719,-0.515625 1.066406,-0.515625 0.574219,0 0.972657,0.3164063 1.183594,0.609375 z m 6.811524,1.3476563 c 0.210937,0 0.316406,0 0.316406,-0.2695313 0,-0.3164062 -0.05859,-1.0429687 -0.5625,-1.5351562 -0.363281,-0.3632813 -0.890625,-0.5390625 -1.582031,-0.5390625 -1.59375,0 -2.460938,1.0195312 -2.460938,2.2734375 0,1.3359375 0.996094,2.296875 2.601563,2.296875 1.570312,0 2.003906,-1.0546875 2.003906,-1.21875 0,-0.1875 -0.1875,-0.1875 -0.234375,-0.1875 -0.175781,0 -0.199219,0.046875 -0.257813,0.2109375 -0.210937,0.48046875 -0.773437,0.796875 -1.417968,0.796875 -1.40625,0 -1.417969,-1.3242188 -1.417969,-1.828125 z M 20.372547,-2.49475 c 0.02344,-0.3984375 0.03516,-0.8085938 0.234375,-1.1367188 0.269531,-0.3984375 0.667969,-0.515625 0.949219,-0.515625 1.171875,0 1.183593,1.3007813 1.195312,1.6523438 z M 32.565906,-6.6900625 C 32.460437,-6.947875 32.331531,-6.947875 32.167469,-6.947875 c -0.28125,0 -0.316407,0.070312 -0.386719,0.2578125 l -2.472656,5.98828125 c -0.05859,0.15234375 -0.09375,0.234375 -0.84375,0.234375 h -0.210938 v 0.46875 c 0.375,-0.01171875 0.855469,-0.03515625 1.160156,-0.03515625 0.386719,0 0.949219,0 1.324219,0.03515625 v -0.46875 c -0.02344,0 -0.890625,0 -0.890625,-0.12890625 0,-0.0117188 0.02344,-0.10546875 0.03516,-0.1171875 l 0.503907,-1.2070313 h 2.671875 l 0.597656,1.45312505 h -0.949219 v 0.46875 c 0.375,-0.03515625 1.324219,-0.03515625 1.746094,-0.03515625 0.398437,0 1.277344,0 1.628906,0.03515625 v -0.46875 h -0.960937 z m -0.84375,1.5351562 1.136719,2.765625 h -2.273438 z m 0,0"
       style="fill:#000000;fill-opacity:1;fill-rule:nonzero;stroke:none"
       aria-label="nodeA"
       transform="matrix(1.3333333,0,0,1.3333333,6.2506667,35.201333)" />
    <path
       id="path3"
       d="m 49.6069,28.3468 c 0,11.74178 -9.51832,21.2601 -21.2601,21.2601 -11.74177,0 -21.2601,-9.51832 -21.2601,-21.2601 0,-11.74177 9.51833,-21.2601 21.2601,-21.2601 11.74178,0 21.2601,9.51833 21.2601,21.2601 z"
       style="fill:#fffa99;fill-opacity:1;fill-rule:nonzero;stroke:#000000;stroke-width:0.79701;stroke-linecap:butt;stroke-linejoin:miter;stroke-miterlimit:10;stroke-dasharray:none;stroke-opacity:1"
       transform="matrix(1.3333333,0,0,-1.3333333,-7.2066667,143.97467)" />
    <path
       id="path4"
       d="m 2.7658125,-3.7395 v -2.625 h 1.8164063 c 1.0078125,0 1.1835937,0.7851562 1.1835937,1.2421875 0,0.7734375 -0.4804687,1.3828125 -1.4414062,1.3828125 z m 2.6953125,0.1757812 c 1.078125,-0.1875 1.7226563,-0.7851562 1.7226563,-1.5585937 0,-0.9140625 -0.8671875,-1.7109375 -2.4726563,-1.7109375 H 0.38690625 V -6.3645 H 1.4650313 v 5.89453125 H 0.38690625 v 0.46875 H 5.0158125 c 1.6523438,0 2.484375,-0.87890625 2.484375,-1.85156255 0,-0.9609375 -0.8554687,-1.6289062 -2.0390625,-1.7109375 z M 4.6056563,-0.46996875 H 2.7658125 V -3.3762188 h 1.9335938 c 0.1992187,0 0.6679687,0 1.0078125,0.421875 0.328125,0.421875 0.328125,0.984375 0.328125,1.0898438 0,0.1171875 0,1.39453125 -1.4296875,1.39453125 z m 0,0"
       style="fill:#000000;fill-opacity:1;fill-rule:nonzero;stroke:none"
       aria-label="B"
       transform="matrix(1.3333333,0,0,1.3333333,25.156,110.736)" />
    <path
       id="path5"
       d="m 162.99414,56.69362 c 0,11.74178 -9.51833,21.2601 -21.2601,21.2601 -11.74178,0 -21.2601,-9.51832 -21.2601,-21.2601 0,-11.74179 9.51832,-21.26012 21.2601,-21.26012 11.74177,0 21.2601,9.51833 21.2601,21.26012 z"
       style="fill:#ffffff;fill-opacity:1;fill-rule:nonzero;stroke:#000000;stroke-width:0.79701;stroke-linecap:butt;stroke-linejoin:miter;stroke-miterlimit:10;stroke-dasharray:none;stroke-opacity:1"
       transform="matrix(1.3333333,0,0,-1.3333333,-7.2066667,143.97467)" />
    <path
       id="path6"
       d="m 7.6293359,-6.6679141 c 0,-0.1875 0,-0.2695312 -0.1757812,-0.2695312 -0.09375,0 -0.1171875,0.011719 -0.1875,0.082031 l -0.65625,0.5859375 c -0.6210938,-0.4921875 -1.2890625,-0.6679687 -1.96875,-0.6679687 -2.484375,0 -4.00781251,1.4765625 -4.00781251,3.515625 0,2.0507812 1.52343751,3.52734374 4.00781251,3.52734374 1.8632812,0 2.9882812,-1.21875004 2.9882812,-2.36718754 0,-0.1992187 -0.070312,-0.2109375 -0.234375,-0.2109375 -0.1289062,0 -0.2226562,0 -0.234375,0.1757813 -0.070312,1.33593749 -1.2773437,1.93359374 -2.2734375,1.93359374 -0.7851562,0 -1.6171875,-0.234375 -2.1328125,-0.84375004 -0.46875,-0.5625 -0.5976562,-1.3125 -0.5976562,-2.2148437 0,-0.5507813 0.035156,-1.6289063 0.6679687,-2.2851563 0.6445313,-0.65625 1.5117188,-0.7734375 2.0273438,-0.7734375 1.078125,0 2.0273437,0.7617188 2.2382812,2.0273438 0.035156,0.1875 0.046875,0.2109375 0.2695313,0.2109375 0.2578125,0 0.2695312,-0.023437 0.2695312,-0.28125 z m 0,0"
       style="fill:#000000;fill-opacity:1;fill-rule:nonzero;stroke:none"
       aria-label="C"
       transform="matrix(1.3333333,0,0,1.3333333,176.25333,72.941333)" />
    <path
       id="path7"
       d="m 219.64868,42.52022 h 14.25157 v 28.34679 h -14.25157 z"
       style="fill:#ffb3b3;fill-opacity:1;fill-rule:nonzero;stroke:#000000;stroke-width:0.3985;stroke-linecap:butt;stroke-linejoin:miter;stroke-miterlimit:10;stroke-dasharray:none;stroke-opacity:1"
       transform="matrix(1.3333333,0,0,-1.3333333,-7.2066667,143.97467)" />
    <path
       id="path8"
       d="m 0.35108594,-6.8091875 v 0.3164062 h 0.234375 c 0.77343746,0 0.78515626,0.1054688 0.78515626,0.46875 v 5.25000005 c 0,0.3515625 -0.011719,0.46875 -0.78515626,0.46875 h -0.234375 v 0.3046875 H 3.9956172 c 1.6757812,0 3.046875,-1.47656255 3.046875,-3.35156255 0,-1.8867187 -1.3476563,-3.4570312 -3.046875,-3.4570312 z m 2.36718746,6.50390625 c -0.46875,0 -0.4921875,-0.0703125 -0.4921875,-0.3984375 V -6.0943438 c 0,-0.328125 0.023437,-0.3984375 0.4921875,-0.3984375 h 0.9960938 c 0.6210937,0 1.3007812,0.2109375 1.8164062,0.9257813 0.421875,0.5859375 0.515625,1.4414062 0.515625,2.2148437 0,1.1132813 -0.1875,1.7109375 -0.5507812,2.1914063 -0.1992188,0.26953125 -0.7617188,0.85546875 -1.7695313,0.85546875 z m 0,0"
       style="fill:#000000;fill-opacity:1;fill-rule:nonzero;stroke:none"
       aria-label="D"
       transform="matrix(1.3333333,0,0,1.3333333,290.08267,72.922667)" />
  </g>
</svg>
