<?xml version="1.0" encoding="UTF-8" standalone="no"?>
<!-- Created with Inkscape (http://www.inkscape.org/) -->

<svg
   version="1.1"
   id="svg1"
   width="227.02684"
   height="189.23111"
   viewBox="0 0 227.02684 189.23111"
   xmlns="http://www.w3.org/2000/svg"
   xmlns:svg="http://www.w3.org/2000/svg">
  <defs
     id="defs1" />
  <g
     id="g1"
     transform="translate(-5.000015e-4,-0.00971806)">
    <path
       id="path1"
       d="M 0,0 H 170.08086 M 0,28.3468 H 170.08086 M 0,56.69362 H 170.08086 M 0,85.04042 H 170.08086 M 0,113.38724 H 170.08086 M 0,141.72409 H 170.08086 M 0,0 V 141.73404 M 28.3468,0 V 141.73404 M 56.69362,0 V 141.73404 M 85.04042,0 V 141.73404 M 113.38724,0 V 141.73404 M 141.73404,0 V 141.73404 M 170.07089,0 v 141.73404"
       style="fill:none;stroke:#808080;stroke-width:0.19925;stroke-linecap:butt;stroke-linejoin:miter;stroke-miterlimit:10;stroke-dasharray:none;stroke-opacity:1"
       transform="matrix(1.3333333,0,0,-1.3333333,0.13333333,189.108)" />
    <path
       id="path2"
       d="m 3.9599219,-6.9378281 c -0.046875,-0.1289063 -0.070312,-0.1992188 -0.2226563,-0.1992188 -0.1640625,0 -0.1875,0.058594 -0.2460937,0.1992188 l -2.0625,5.96484372 c -0.1757813,0.50390625 -0.57421878,0.65625 -1.11328128,0.66796875 v 0.304687505 c 0.234375,-0.011718755 0.65625,-0.035156255 1.01953128,-0.035156255 0.3046875,0 0.8203125,0.0234375 1.1484375,0.035156255 V -0.30501563 c -0.5039063,0 -0.75,-0.2578125 -0.75,-0.515625 0,-0.0234375 0.011719,-0.12890625 0.023437,-0.140625 L 2.2138281,-2.2737656 h 2.4609375 l 0.5273438,1.52343747 c 0.011719,0.046875 0.023437,0.10546875 0.023437,0.140625 0,0.3046875 -0.5507813,0.3046875 -0.8203125,0.3046875 v 0.304687505 c 0.351563,-0.035156255 1.054688,-0.035156255 1.429688,-0.035156255 0.4335937,0 0.890625,0.01171875 1.3007812,0.035156255 V -0.30501563 H 6.9599219 c -0.5976563,0 -0.7382813,-0.0703125 -0.84375,-0.3984375 z m -0.5273438,1.125 1.125,3.234375 H 2.3192969 Z m 0,0"
       style="fill:#000000;fill-opacity:1;fill-rule:nonzero;stroke:none"
       aria-label="A"
       transform="matrix(1.3333333,0,0,1.3333333,32.946667,155.852)" />
  </g>
</svg>
