<?xml version="1.0" encoding="UTF-8" standalone="no"?>
<!-- Created with Inkscape (http://www.inkscape.org/) -->

<svg
   version="1.1"
   id="svg1"
   width="54.396454"
   height="115.83022"
   viewBox="0 0 54.396454 115.83022"
   xmlns="http://www.w3.org/2000/svg"
   xmlns:svg="http://www.w3.org/2000/svg">
  <defs
     id="defs1" />
  <g
     id="g1"
     transform="translate(-1.7340475e-4,0.00144982)">
    <path
       id="path1"
       d="m 48.54622,85.04042 c 0,11.15598 -9.04344,20.19942 -20.19942,20.19942 -11.15597,0 -20.19942,-9.04344 -20.19942,-20.19942 0,-11.15597 9.04345,-20.19942 20.19942,-20.19942 11.15598,0 20.19942,9.04345 20.19942,20.19942 z"
       style="fill:none;stroke:#000000;stroke-width:0.3985;stroke-linecap:butt;stroke-linejoin:miter;stroke-miterlimit:10;stroke-dasharray:none;stroke-opacity:1"
       transform="matrix(1.3333333,0,0,-1.3333333,-10.597333,140.584)" />
    <path
       id="path2"
       d="m 1.1006094,-3.4205 v 2.66015625 c 0,0.45703125 -0.11718753,0.45703125 -0.78515628,0.45703125 V 0.001375 c 0.3515625,-0.01171875 0.85546878,-0.03515625 1.12499998,-0.03515625 0.2578125,0 0.7851563,0.0234375 1.1132813,0.03515625 v -0.3046875 c -0.65625,0 -0.7734375,0 -0.7734375,-0.45703125 V -2.5884687 c 0,-1.03125 0.7148437,-1.59375 1.3476562,-1.59375 0.6210938,0 0.7382813,0.5390625 0.7382813,1.1015625 v 2.32031245 c 0,0.45703125 -0.1171875,0.45703125 -0.7734375,0.45703125 V 0.001375 c 0.3398437,-0.01171875 0.8554687,-0.03515625 1.125,-0.03515625 0.2578125,0 0.7734375,0.0234375 1.1132812,0.03515625 v -0.3046875 c -0.515625,0 -0.7734375,0 -0.7851562,-0.3046875 v -1.8984375 c 0,-0.8554687 0,-1.171875 -0.3046875,-1.5234375 -0.140625,-0.1757812 -0.46875,-0.375 -1.0429688,-0.375 -0.7265625,0 -1.1953125,0.4335938 -1.4765625,1.0546875 V -4.404875 L 0.31545312,-4.2876875 V -3.983 c 0.70312498,0 0.78515628,0.070312 0.78515628,0.5625 z m 9.1230466,1.2890625 c 0,-1.2773437 -0.9960935,-2.3320312 -2.191406,-2.3320312 -1.2539063,0 -2.2148438,1.0898437 -2.2148438,2.3320312 0,1.2890625 1.03125,2.23828125 2.2031251,2.23828125 1.2070312,0 2.2031247,-0.97265625 2.2031247,-2.23828125 z M 8.03225,-0.13925 c -0.4335938,0 -0.8671875,-0.2109375 -1.1367188,-0.66796875 C 6.6377187,-1.2408125 6.6377187,-1.8501875 6.6377187,-2.2134687 c 0,-0.3867188 0,-0.9257813 0.2460938,-1.359375 0.2695312,-0.4570313 0.7382812,-0.6679688 1.1367188,-0.6679688 0.4335937,0 0.8671875,0.2226563 1.125,0.6445313 0.2578125,0.4335937 0.2578125,1.0078125 0.2578125,1.3828125 0,0.3632812 0,0.9023437 -0.2226563,1.33593745 C 8.9580313,-0.43221875 8.5244375,-0.13925 8.03225,-0.13925 Z m 6.547852,-0.41015625 v 0.65625 L 16.044945,0.001375 v -0.3046875 c -0.703125,0 -0.773437,-0.0703125 -0.773437,-0.5625 v -6.046875 l -1.441406,0.1054688 v 0.3164062 c 0.703125,0 0.785156,0.070312 0.785156,0.5507813 v 2.15625 c -0.292969,-0.3632813 -0.726563,-0.6210938 -1.265625,-0.6210938 -1.171875,0 -2.214844,0.984375 -2.214844,2.2617188 0,1.26562495 0.972656,2.24999995 2.109375,2.24999995 0.644531,0 1.089844,-0.33984375 1.335938,-0.65625 z m 0,-2.67187495 V -1.1705 c 0,0.17578125 0,0.19921875 -0.105469,0.36328125 -0.304688,0.48046875 -0.75,0.703125 -1.183594,0.703125 -0.445312,0 -0.796875,-0.2578125 -1.042969,-0.64453125 -0.257812,-0.4101562 -0.292968,-0.9726562 -0.292968,-1.3828125 0,-0.3632812 0.02344,-0.9609375 0.316406,-1.4179687 0.210937,-0.3046875 0.585937,-0.6328125 1.125,-0.6328125 0.351562,0 0.761719,0.1523437 1.078125,0.5976562 0.105469,0.1640625 0.105469,0.1875 0.105469,0.3632813 z m 2.865234,0.7148437 c 0.05859,-1.4882812 0.902344,-1.734375 1.242187,-1.734375 1.019532,0 1.125,1.3476563 1.125,1.734375 z M 17.433617,-2.2955 h 2.789063 c 0.210937,0 0.246093,0 0.246093,-0.2109375 0,-0.984375 -0.539062,-1.9570312 -1.78125,-1.9570312 -1.160156,0 -2.074218,1.03125 -2.074218,2.2734375 0,1.33593745 1.042968,2.29687495 2.191406,2.29687495 1.21875,0 1.664062,-1.1015625 1.664062,-1.28906245 0,-0.1054688 -0.08203,-0.1171875 -0.128906,-0.1171875 -0.09375,0 -0.117187,0.058594 -0.128906,0.140625 -0.351563,1.0195312 -1.253906,1.0195312 -1.347656,1.0195312 -0.503907,0 -0.902344,-0.29296875 -1.125,-0.66796875 C 17.433617,-1.2876875 17.433617,-1.9439375 17.433617,-2.2955 Z m 10.602539,-4.640625 c -0.04687,-0.1289062 -0.07031,-0.1992187 -0.222656,-0.1992187 -0.164063,0 -0.1875,0.058594 -0.246094,0.1992187 l -2.0625,5.96484375 c -0.175781,0.50390625 -0.574219,0.65625 -1.113281,0.66796875 V 0.001375 c 0.234375,-0.01171875 0.65625,-0.03515625 1.019531,-0.03515625 0.304688,0 0.820313,0.0234375 1.148438,0.03515625 v -0.3046875 c -0.503907,0 -0.75,-0.2578125 -0.75,-0.515625 0,-0.0234375 0.01172,-0.12890625 0.02344,-0.140625 l 0.457031,-1.3125 H 28.751 l 0.527344,1.5234375 c 0.01172,0.046875 0.02344,0.10546875 0.02344,0.140625 0,0.3046875 -0.550781,0.3046875 -0.820312,0.3046875 V 0.001375 c 0.351562,-0.03515625 1.054687,-0.03515625 1.429687,-0.03515625 0.433594,0 0.890625,0.01171875 1.300781,0.03515625 v -0.3046875 h -0.175781 c -0.597656,0 -0.738281,-0.0703125 -0.84375,-0.3984375 z m -0.527344,1.125 1.125,3.234375 h -2.238281 z m 0,0"
       style="fill:#000000;fill-opacity:1;fill-rule:nonzero;stroke:none"
       aria-label="nodeA"
       transform="matrix(1.3333333,0,0,1.3333333,6.1653333,31.810667)" />
    <path
       id="path3"
       d="m 37.92793,28.3468 c 0,5.29158 -4.28955,9.58113 -9.58113,9.58113 -5.29158,0 -9.58113,-4.28955 -9.58113,-9.58113 0,-5.29158 4.28955,-9.58113 9.58113,-9.58113 5.29158,0 9.58113,4.28955 9.58113,9.58113 z"
       style="fill:none;stroke:#000000;stroke-width:0.3985;stroke-linecap:butt;stroke-linejoin:miter;stroke-miterlimit:10;stroke-dasharray:none;stroke-opacity:1"
       transform="matrix(1.3333333,0,0,-1.3333333,-10.597333,140.584)" />
    <path
       id="path4"
       d="m 2.2139844,-3.6444375 v -2.4492187 c 0,-0.328125 0.011719,-0.3984375 0.4804687,-0.3984375 h 1.2421875 c 0.9609375,0 1.3125,0.84375 1.3125,1.3710937 0,0.6328125 -0.4921875,1.4765625 -1.59375,1.4765625 z m 2.34375,0.09375 C 5.5303906,-3.7499062 6.2100781,-4.3827187 6.2100781,-5.121 c 0,-0.8671875 -0.9140625,-1.6875 -2.203125,-1.6875 H 0.36242188 v 0.3164063 h 0.234375 c 0.76171872,0 0.78515622,0.1054687 0.78515622,0.46875 v 5.24999995 c 0,0.3515625 -0.023437,0.46875 -0.78515622,0.46875 h -0.234375 V 9.375e-5 H 4.2647656 c 1.3242188,0 2.2148438,-0.890625 2.2148438,-1.82812495 0,-0.8671875 -0.8085938,-1.6054688 -1.921875,-1.7226563 z m -0.609375,3.24609375 H 2.6944531 c -0.46875,0 -0.4804687,-0.0703125 -0.4804687,-0.3984375 V -3.4217812 h 1.875 c 0.984375,0 1.3945312,0.9257812 1.3945312,1.59375 0,0.703125 -0.515625,1.52343745 -1.5351562,1.52343745 z m 0,0"
       style="fill:#000000;fill-opacity:1;fill-rule:nonzero;stroke:none"
       aria-label="B"
       transform="matrix(1.3333333,0,0,1.3333333,22.493333,107.328)" />
  </g>
</svg>
