<?xml version="1.0" encoding="UTF-8" standalone="no"?>
<!-- Created with Inkscape (http://www.inkscape.org/) -->

<svg
   version="1.1"
   id="svg1"
   width="76.122826"
   height="151.71431"
   viewBox="0 0 76.122825 151.71431"
   xmlns="http://www.w3.org/2000/svg"
   xmlns:svg="http://www.w3.org/2000/svg">
  <defs
     id="defs1" />
  <g
     id="g1"
     transform="translate(3.3332701e-4,0.00197954)">
    <path
       id="path1"
       d="m 56.69362,85.04042 c 0,15.65572 -12.6911,28.34682 -28.34682,28.34682 C 12.69109,113.38724 0,100.69614 0,85.04042 0,69.3847 12.69109,56.69362 28.3468,56.69362 c 15.65572,0 28.34682,12.69108 28.34682,28.3468 z"
       style="fill:none;stroke:#000000;stroke-width:0.3985;stroke-linecap:butt;stroke-linejoin:miter;stroke-miterlimit:10;stroke-dasharray:none;stroke-opacity:1"
       transform="matrix(1.3333333,0,0,-1.3333333,0.26533333,151.44667)" />
    <path
       id="path2"
       d="m 1.1010703,-3.4229687 v 2.6601562 c 0,0.45703125 -0.11718749,0.45703125 -0.78515624,0.45703125 v 0.3046875 C 0.66747656,-0.0128125 1.1713828,-0.03625 1.4409141,-0.03625 c 0.2578125,0 0.7851562,0.0234375 1.1132812,0.03515625 v -0.3046875 c -0.65625,0 -0.7734375,0 -0.7734375,-0.45703125 v -1.828125 c 0,-1.03125 0.7148438,-1.59375 1.3476563,-1.59375 0.6210937,0 0.7382812,0.5390625 0.7382812,1.1015625 v 2.3203125 c 0,0.45703125 -0.1171875,0.45703125 -0.7734375,0.45703125 v 0.3046875 C 3.4331016,-0.0128125 3.9487266,-0.03625 4.2182578,-0.03625 c 0.2578125,0 0.7734375,0.0234375 1.1132813,0.03515625 v -0.3046875 c -0.515625,0 -0.7734375,0 -0.7851563,-0.3046875 V -2.5089062 c 0,-0.8554688 0,-1.171875 -0.3046875,-1.5234375 -0.140625,-0.1757813 -0.46875,-0.375 -1.0429687,-0.375 -0.7265625,0 -1.1953125,0.4335937 -1.4765625,1.0546875 v -1.0546875 l -1.40625004,0.1171875 v 0.3046875 c 0.70312504,0 0.78515624,0.070312 0.78515624,0.5625 z m 9.1230467,1.2890625 c 0,-1.2773438 -0.9960936,-2.3320313 -2.1914061,-2.3320313 -1.2539062,0 -2.2148437,1.0898438 -2.2148437,2.3320313 0,1.28906245 1.03125,2.2382812 2.203125,2.2382812 1.2070312,0 2.2031248,-0.97265625 2.2031248,-2.2382812 z m -2.1914061,1.99218745 c -0.4335937,0 -0.8671875,-0.2109375 -1.1367187,-0.66796875 -0.2578125,-0.4335937 -0.2578125,-1.0429687 -0.2578125,-1.40625 0,-0.3867187 0,-0.9257812 0.2460937,-1.359375 0.2695313,-0.4570312 0.7382813,-0.6679687 1.1367188,-0.6679687 0.4335937,0 0.8671875,0.2226562 1.125,0.6445312 0.2578125,0.4335938 0.2578125,1.0078125 0.2578125,1.3828125 0,0.3632813 0,0.9023438 -0.2226563,1.3359375 -0.2226562,0.4453125 -0.65625,0.73828125 -1.1484375,0.73828125 z M 14.580562,-0.551875 v 0.65625 l 1.464844,-0.10546875 v -0.3046875 c -0.703125,0 -0.773437,-0.0703125 -0.773437,-0.5625 V -6.9151562 l -1.441407,0.1054687 v 0.3164063 c 0.703125,0 0.785157,0.070312 0.785157,0.5507812 v 2.15625 c -0.292969,-0.3632812 -0.726563,-0.6210937 -1.265625,-0.6210937 -1.171875,0 -2.214844,0.984375 -2.214844,2.2617187 0,1.265625 0.972656,2.25 2.109375,2.25 0.644531,0 1.089844,-0.33984375 1.335937,-0.65625 z m 0,-2.671875 v 2.0507813 c 0,0.1757812 0,0.1992187 -0.105468,0.3632812 -0.304688,0.48046875 -0.75,0.703125 -1.183594,0.703125 -0.445313,0 -0.796875,-0.2578125 -1.042969,-0.64453125 C 11.990719,-1.16125 11.955562,-1.72375 11.955562,-2.1339062 c 0,-0.3632813 0.02344,-0.9609375 0.316407,-1.4179688 0.210937,-0.3046875 0.585937,-0.6328125 1.125,-0.6328125 0.351562,0 0.761718,0.1523438 1.078125,0.5976563 0.105468,0.1640625 0.105468,0.1875 0.105468,0.3632812 z m 2.862305,0.7148438 c 0.05859,-1.4882813 0.902344,-1.734375 1.242188,-1.734375 1.019531,0 1.125,1.3476562 1.125,1.734375 z m -0.01172,0.2109375 h 2.789063 c 0.210937,0 0.246094,0 0.246094,-0.2109375 0,-0.984375 -0.539063,-1.9570313 -1.78125,-1.9570313 -1.160157,0 -2.074219,1.03125 -2.074219,2.2734375 0,1.3359375 1.042969,2.296875 2.191406,2.296875 1.21875,0 1.664063,-1.1015625 1.664063,-1.2890625 0,-0.1054687 -0.08203,-0.1171875 -0.128907,-0.1171875 -0.09375,0 -0.117187,0.058594 -0.128906,0.140625 -0.351562,1.01953125 -1.253906,1.01953125 -1.347656,1.01953125 -0.503906,0 -0.902344,-0.29296875 -1.125,-0.66796875 -0.304688,-0.4804687 -0.304688,-1.1367187 -0.304688,-1.4882812 z m 10.605469,-4.640625 c -0.04687,-0.1289063 -0.07031,-0.1992188 -0.222656,-0.1992188 -0.164063,0 -0.1875,0.058594 -0.246094,0.1992188 l -2.0625,5.9648437 c -0.175781,0.50390625 -0.574219,0.65625 -1.113281,0.66796875 v 0.3046875 C 24.626461,-0.0128125 25.048336,-0.03625 25.411617,-0.03625 c 0.304688,0 0.820313,0.0234375 1.148438,0.03515625 v -0.3046875 c -0.503907,0 -0.75,-0.2578125 -0.75,-0.515625 0,-0.0234375 0.01172,-0.12890625 0.02344,-0.140625 l 0.457031,-1.31249995 h 2.460938 l 0.527344,1.52343745 c 0.01172,0.046875 0.02344,0.10546875 0.02344,0.140625 0,0.3046875 -0.550781,0.3046875 -0.820312,0.3046875 v 0.3046875 C 28.833492,-0.03625 29.536617,-0.03625 29.911617,-0.03625 c 0.433594,0 0.890625,0.01171875 1.300781,0.03515625 v -0.3046875 h -0.175781 c -0.597656,0 -0.738281,-0.0703125 -0.84375,-0.3984375 z m -0.527344,1.125 1.125,3.234375 h -2.238281 z m 0,0"
       style="fill:#000000;fill-opacity:1;fill-rule:nonzero;stroke:none"
       aria-label="nodeA"
       transform="matrix(1.3333333,0,0,1.3333333,17.028,42.673333)" />
    <path
       id="path3"
       d="m 56.69362,28.3468 c 0,15.65572 -12.6911,28.34682 -28.34682,28.34682 C 12.69109,56.69362 0,44.00252 0,28.3468 0,12.69109 12.69109,0 28.3468,0 44.00252,0 56.69362,12.69109 56.69362,28.3468 Z"
       style="fill:none;stroke:#000000;stroke-width:0.3985;stroke-linecap:butt;stroke-linejoin:miter;stroke-miterlimit:10;stroke-dasharray:none;stroke-opacity:1"
       transform="matrix(1.3333333,0,0,-1.3333333,0.26533333,151.44667)" />
    <path
       id="path4"
       d="M 2.2144453,-3.6459062 V -6.095125 c 0,-0.328125 0.011719,-0.3984375 0.4804688,-0.3984375 h 1.2421875 c 0.9609375,0 1.3125,0.84375 1.3125,1.3710938 0,0.6328125 -0.4921875,1.4765625 -1.59375,1.4765625 z m 2.34375,0.09375 c 0.9726563,-0.1992188 1.6523438,-0.8320313 1.6523438,-1.5703125 0,-0.8671875 -0.9140625,-1.6875 -2.203125,-1.6875 H 0.36288281 v 0.3164062 h 0.234375 c 0.76171879,0 0.78515629,0.1054688 0.78515629,0.46875 v 5.25 c 0,0.3515625 -0.023437,0.46875 -0.78515629,0.46875 h -0.234375 V -0.001375 H 4.2652266 c 1.3242187,0 2.2148437,-0.890625 2.2148437,-1.828125 0,-0.8671875 -0.8085937,-1.6054687 -1.921875,-1.7226562 z m -0.609375,3.2460937 H 2.6949141 c -0.46875,0 -0.4804688,-0.0703125 -0.4804688,-0.3984375 v -2.71875 h 1.875 c 0.984375,0 1.3945313,0.9257813 1.3945313,1.59375 0,0.703125 -0.515625,1.5234375 -1.5351563,1.5234375 z m 0,0"
       style="fill:#000000;fill-opacity:1;fill-rule:nonzero;stroke:none"
       aria-label="B"
       transform="matrix(1.3333333,0,0,1.3333333,33.356,118.18933)" />
  </g>
</svg>
