<?xml version="1.0" encoding="UTF-8" standalone="no"?>
<!-- Created with Inkscape (http://www.inkscape.org/) -->

<svg
   version="1.1"
   id="svg1"
   width="302.61835"
   height="189.23111"
   viewBox="0 0 302.61835 189.23111"
   xmlns="http://www.w3.org/2000/svg"
   xmlns:svg="http://www.w3.org/2000/svg">
  <defs
     id="defs1" />
  <g
     id="g1"
     transform="translate(-5.000015e-4,-0.00971806)">
    <path
       id="path1"
       d="m 77.95372,56.69362 c 0,11.74178 -9.51832,21.2601 -21.2601,21.2601 -11.74179,0 -21.26012,-9.51832 -21.26012,-21.2601 0,-11.74179 9.51833,-21.26012 21.26012,-21.26012 11.74178,0 21.2601,9.51833 21.2601,21.26012 z"
       style="fill:#ccffcc;fill-opacity:1;fill-rule:nonzero;stroke:#000000;stroke-width:0.3985;stroke-linecap:butt;stroke-linejoin:miter;stroke-miterlimit:10;stroke-dasharray:none;stroke-opacity:1"
       transform="matrix(1.3333333,0,0,-1.3333333,0.13333333,189.108)" />
    <path
       id="path2"
       d="m 3.9605781,-6.9384844 c -0.046875,-0.1289062 -0.070312,-0.1992187 -0.2226562,-0.1992187 -0.1640625,0 -0.1875,0.058594 -0.2460938,0.1992187 l -2.0625,5.96484377 c -0.1757812,0.50390625 -0.57421873,0.65625 -1.11328123,0.66796875 v 0.304687505 c 0.234375,-0.011718755 0.65625,-0.035156255 1.01953123,-0.035156255 0.3046875,0 0.8203125,0.0234375 1.1484375,0.035156255 V -0.30567188 c -0.5039062,0 -0.75,-0.2578125 -0.75,-0.515625 0,-0.0234375 0.011719,-0.12890625 0.023437,-0.140625 L 2.2144844,-2.2744219 h 2.4609375 l 0.5273437,1.52343752 c 0.011719,0.046875 0.023437,0.10546875 0.023437,0.140625 0,0.3046875 -0.5507812,0.3046875 -0.8203125,0.3046875 v 0.304687505 c 0.351563,-0.035156255 1.054688,-0.035156255 1.429688,-0.035156255 0.4335938,0 0.890625,0.01171875 1.3007813,0.035156255 V -0.30567188 H 6.9605781 c -0.5976562,0 -0.7382812,-0.0703125 -0.84375,-0.3984375 z m -0.5273437,1.125 1.125,3.234375 H 2.3199531 Z m 0,0"
       style="fill:#000000;fill-opacity:1;fill-rule:nonzero;stroke:none"
       aria-label="A"
       transform="matrix(1.3333333,0,0,1.3333333,70.742667,118.056)" />
    <path
       id="path3"
       d="m 106.30052,99.21382 c 0,11.74178 -9.51832,21.2601 -21.2601,21.2601 -11.74177,0 -21.2601,-9.51832 -21.2601,-21.2601 0,-11.74177 9.51833,-21.2601 21.2601,-21.2601 11.74178,0 21.2601,9.51833 21.2601,21.2601 z"
       style="fill:#fffccc;fill-opacity:1;fill-rule:nonzero;stroke:#000000;stroke-width:0.3985;stroke-linecap:butt;stroke-linejoin:miter;stroke-miterlimit:10;stroke-dasharray:none;stroke-opacity:1"
       transform="matrix(1.3333333,0,0,-1.3333333,0.13333333,189.108)" />
    <path
       id="path4"
       d="m 2.2161484,-3.6450703 v -2.4492188 c 0,-0.328125 0.011719,-0.3984375 0.4804688,-0.3984375 h 1.2421875 c 0.9609375,0 1.3125,0.84375 1.3125,1.3710938 0,0.6328125 -0.4921875,1.4765625 -1.59375,1.4765625 z m 2.34375,0.09375 c 0.9726563,-0.1992188 1.6523438,-0.8320313 1.6523438,-1.5703125 0,-0.8671875 -0.9140625,-1.6875 -2.203125,-1.6875 H 0.36458594 v 0.3164062 h 0.234375 c 0.76171876,0 0.78515626,0.1054688 0.78515626,0.46875 v 5.25000004 c 0,0.3515625 -0.023437,0.46875 -0.78515626,0.46875 h -0.234375 V -5.390625e-4 H 4.2669297 c 1.3242187,0 2.2148437,-0.8906249975 2.2148437,-1.8281250375 0,-0.8671875 -0.8085937,-1.6054687 -1.921875,-1.7226562 z m -0.609375,3.24609374 H 2.6966172 c -0.46875,0 -0.4804688,-0.0703125 -0.4804688,-0.3984375 V -3.4224141 h 1.875 c 0.984375,0 1.3945313,0.9257813 1.3945313,1.59375 0,0.703125 -0.515625,1.52343754 -1.5351563,1.52343754 z m 0,0"
       style="fill:#000000;fill-opacity:1;fill-rule:nonzero;stroke:none"
       aria-label="B"
       transform="matrix(1.3333333,0,0,1.3333333,108.81467,61.364)" />
    <path
       id="path5"
       d="m 134.64734,56.69362 c 0,11.74178 -9.51833,21.2601 -21.2601,21.2601 -11.74179,0 -21.26012,-9.51832 -21.26012,-21.2601 0,-11.74179 9.51833,-21.26012 21.26012,-21.26012 11.74177,0 21.2601,9.51833 21.2601,21.26012 z"
       style="fill:#ffcccc;fill-opacity:1;fill-rule:nonzero;stroke:#000000;stroke-width:0.3985;stroke-linecap:butt;stroke-linejoin:miter;stroke-miterlimit:10;stroke-dasharray:none;stroke-opacity:1"
       transform="matrix(1.3333333,0,0,-1.3333333,0.13333333,189.108)" />
    <path
       id="path6"
       d="m 0.56121875,-3.4111406 c 0,2.0625 1.60546875,3.63281247 3.45703125,3.63281247 1.6289063,0 2.6015625,-1.38281247 2.6015625,-2.54296877 0,-0.1054687 0,-0.1757812 -0.1289062,-0.1757812 -0.1054688,0 -0.1054688,0.070312 -0.1171875,0.1640625 -0.082031,1.42968747 -1.1484375,2.23828122 -2.2265625,2.23828122 -0.609375,0 -2.5664063,-0.33984375 -2.5664063,-3.30468752 0,-2.9765625 1.9453125,-3.3164062 2.5546875,-3.3164062 1.078125,0 1.96875,0.9023437 2.1679688,2.3671875 0.023437,0.1289062 0.023437,0.1640625 0.1640625,0.1640625 0.1523437,0 0.1523437,-0.035156 0.1523437,-0.234375 v -2.3671875 c 0,-0.1640625 0,-0.234375 -0.1054687,-0.234375 -0.035156,0 -0.082031,0 -0.1640625,0.1171875 l -0.4921875,0.7382812 c -0.375,-0.3632812 -0.8789063,-0.8554687 -1.8398438,-0.8554687 -1.8632812,0 -3.45703125,1.5820312 -3.45703125,3.609375 z m 0,0"
       style="fill:#000000;fill-opacity:1;fill-rule:nonzero;stroke:none"
       aria-label="C"
       transform="matrix(1.3333333,0,0,1.3333333,146.51733,118.056)" />
    <path
       id="path7"
       d="M 0,0 H 226.77448 M 0,28.3468 H 226.77448 M 0,56.69362 H 226.77448 M 0,85.04042 H 226.77448 M 0,113.38724 H 226.77448 M 0,141.72409 H 226.77448 M 0,0 V 141.73404 M 28.3468,0 V 141.73404 M 56.69362,0 V 141.73404 M 85.04042,0 V 141.73404 M 113.38724,0 V 141.73404 M 141.73404,0 V 141.73404 M 170.08086,0 V 141.73404 M 198.42766,0 V 141.73404 M 226.76451,0 v 141.73404"
       style="fill:none;stroke:#808080;stroke-width:0.19925;stroke-linecap:butt;stroke-linejoin:miter;stroke-miterlimit:10;stroke-dasharray:none;stroke-opacity:1"
       transform="matrix(1.3333333,0,0,-1.3333333,0.13333333,189.108)" />
  </g>
</svg>
